<?xml version="1.0" encoding="UTF-8"?>
<svg id="Layer_2" data-name="Layer 2" xmlns="http://www.w3.org/2000/svg" viewBox="0 0 464.92 133.34">
  <defs>
    <style>
      .cls-1 {
        fill: #f16348;
      }
    </style>
  </defs>
  <g id="Layer_1-2" data-name="Layer 1">
    <g>
      <path class="cls-1" d="m62.72,5.26c-.85,0-1.69.13-2.5.39-.53.17-13.1,4.11-25.88,5.67-4.79.59-10.28.89-16.31.89-4.97,0-8.58-.21-9.25-.25-.2-.01-.38-.02-.56-.02h0C3.91,11.94.31,15.28.02,19.54c-.15,2.16.56,4.26,1.99,5.9,1.44,1.65,3.44,2.64,5.64,2.79.04,0,4.23.29,10.35.29,2.53,0,5.12-.06,7.67-.16l1.71-.15v63.5c0,4.46,3.59,8.23,7.83,8.23,4.61,0,8.37-3.69,8.37-8.23V26.34l1.29-.15.33-.06c10.62-1.99,19.13-4.66,20.07-4.96,2.09-.67,3.79-2.11,4.79-4.06.99-1.93,1.17-4.13.5-6.2-1.09-3.38-4.24-5.66-7.82-5.66Z"/>
      <path class="cls-1" d="m113.97,33.36c-5.39,0-14.09,2.27-18.83,8.31V7.97c0-4.39-3.45-7.97-7.7-7.97-4.47,0-8.1,3.57-8.1,7.97v84c0,4.39,3.45,7.97,7.7,7.97,4.47,0,8.1-3.57,8.1-7.97v-27.33c0-11.62,8.84-15.75,16.42-15.75s12.93,5.84,12.93,14.54v28.54c0,4.39,3.45,7.97,7.7,7.97,4.47,0,8.1-3.57,8.1-7.97v-29.34c0-18.33-9.84-29.27-26.32-29.27Z"/>
      <path class="cls-1" d="m181.08,33.36c-19.21,0-33.15,14.06-33.15,33.42s13.94,33.82,33.15,33.82c9.89,0,19.14-3.73,25.38-10.23,1.41-1.49,2.13-3.52,1.98-5.57-.14-1.88-.97-3.52-2.35-4.6-3.28-2.65-7.54-1.58-10.11.54-4.67,3.85-8.16,5.8-14.24,5.8-9.37,0-16.3-5.33-17.97-13.67h42.36c4.02,0,7.3-3.27,7.3-7.33-.53-18.95-13.83-32.19-32.35-32.19Zm-17.31,27.46c1.64-8.18,8.31-13.41,17.31-13.41s15.04,5.1,16.64,13.41h-33.94Z"/>
      <path class="cls-1" d="m258.74,33.92h-.01c-1.75-.38-3.75-.56-6.1-.56-7.29,0-12.7,3.73-16.15,11.1v-2.46c0-4.39-3.63-7.97-8.1-7.97s-7.7,3.57-7.7,7.97v49.97c0,4.39,3.45,7.97,7.7,7.97,4.47,0,8.1-3.57,8.1-7.97v-16.21c0-10.23,2.05-27.4,15.75-27.4.62,0,1.29.04,1.98.07,3.83.21,9.07.49,10.25-5.41.91-4.08-1.66-8.16-5.71-9.1Z"/>
      <path class="cls-1" d="m345.7,33.36c-9.07,0-16.28,3.91-20.95,11.33-3.95-7.52-10.6-11.33-19.78-11.33-4.94,0-13.73,1.82-18.71,8.22-.21-4.2-3.58-7.55-7.69-7.55-4.47,0-8.1,3.57-8.1,7.97v49.97c0,4.39,3.45,7.97,7.7,7.97,4.47,0,8.1-3.57,8.1-7.97v-27.33c0-9.86,5.54-15.75,14.81-15.75,7.12,0,11.73,5.6,11.73,14.27v28.8c0,4.39,3.45,7.97,7.7,7.97,4.47,0,8.1-3.57,8.1-7.97v-27.33c0-9.57,5.55-15.75,14.14-15.75,7.68,0,12.26,5.44,12.26,14.54v28.54c0,4.39,3.45,7.97,7.7,7.97,4.47,0,8.1-3.57,8.1-7.97v-29.74c0-18.35-9.15-28.87-25.12-28.87Z"/>
      <path class="cls-1" d="m388.45,0c-4.24,0-7.7,3.57-7.7,7.97v84c0,4.39,3.45,7.97,7.7,7.97,4.47,0,8.1-3.57,8.1-7.97V7.97c0-4.39-3.63-7.97-8.1-7.97Z"/>
      <path class="cls-1" d="m463.86,37.69c-.96-1.7-2.48-2.89-4.29-3.36-4.05-1.05-8.06,1-9.75,5.01l-15.01,36.59-14.89-36.6c-1.69-3.99-5.7-6.05-9.75-5-2.01.52-3.73,1.95-4.7,3.93s-1.07,4.21-.26,6.12c2.17,5.44,4.48,10.92,6.71,16.23,1.13,2.68,2.25,5.36,3.37,8.05,1.23,2.96,2.44,5.93,3.65,8.91,2.37,5.81,4.81,11.82,7.38,17.65-2.48,3.81-5.37,7.87-8.17,11.8-2.24,3.15-4.56,6.4-6.6,9.44-.39.58-.85,1.18-1.34,1.82-1.81,2.37-3.85,5.06-3.57,8.1.3,3.2,2.53,5.95,5.42,6.69.69.18,1.35.26,1.96.26,3.33,0,5.64-2.39,7.65-5.05l.07-.09c19.74-26.47,34.14-54.7,42.83-83.9.66-2.23.4-4.63-.71-6.6Z"/>
    </g>
  </g>
</svg>