<?xml version="1.0" encoding="utf-8"?>
<!-- Generator: Adobe Illustrator 27.5.0, SVG Export Plug-In . SVG Version: 6.00 Build 0)  -->
<svg version="1.1" id="Layer_1" xmlns="http://www.w3.org/2000/svg" xmlns:xlink="http://www.w3.org/1999/xlink" x="0px" y="0px"
	 viewBox="0 0 89 91" style="enable-background:new 0 0 89 91;" xml:space="preserve">
<style type="text/css">
	.st0{fill:none;stroke:#26B994;stroke-width:4;stroke-linecap:round;stroke-linejoin:round;}
</style>
<path class="st0" d="M32.7,14.7c-11.4,4.5-19.5,16.6-19.3,29c0.1,12.4,8.5,24.3,20,28.5c5,1.8,10.4,2.3,15.6,1.9
	c6.5-0.5,13.1-2.6,17.6-7.3c3.8-4,5.8-9.5,6.7-15c1.6-9.8-0.1-20.7-6.9-27.9c-4-4.4-9.5-7.1-15.3-8.4c-5.7-1.3-9.9-2-16.8-1"/>
<path class="st0" d="M28.5,11.3c-9.8,2.4-17.6,15-19.2,26.6C7.6,49.5,11,63,19.7,70.8c8.8,7.8,20.9,11.3,32.8,11.2
	c5.8,0,11.8-2.6,16.2-6.3c5.7-4.8,8.4-11.8,10-19c2-9.7,2.4-20.9-2-29.6c-4.2-8.4-11.2-13.2-20.1-15.7C47.7,8.8,39,8,30.2,10.6"/>
<path class="st0" d="M44.8,21.1l0,3.1"/>
<path class="st0" d="M60.7,32l1.7-1.6"/>
<path class="st0" d="M66.2,49.6l2.4-0.2"/>
<path class="st0" d="M59.4,63.7c0.5,0.4,1,0.7,1.6,1"/>
<path class="st0" d="M44.1,66.1l-0.1,2.4"/>
<path class="st0" d="M29.8,59.5l-1.4,1.5"/>
<path class="st0" d="M19.8,43.3c1.5,0.1,3.1,0.1,4.6-0.1"/>
<path class="st0" d="M23.5,28.7c0.9,0.6,1.8,1.2,2.8,1.8"/>
<path class="st0" d="M45.1,30.6c-0.2,5.8-0.4,11.5-0.7,17.3"/>
<path class="st0" d="M44.5,48.1l3.4-6.6"/>
<path class="st0" d="M49.9,37.7l8-15.5"/>
</svg>
