<?xml version="1.0" encoding="utf-8"?>
<!-- Generator: Adobe Illustrator 27.5.0, SVG Export Plug-In . SVG Version: 6.00 Build 0)  -->
<svg version="1.1" id="Layer_1" xmlns="http://www.w3.org/2000/svg" xmlns:xlink="http://www.w3.org/1999/xlink" x="0px" y="0px"
	 viewBox="0 0 79 75" style="enable-background:new 0 0 79 75;" xml:space="preserve">
<style type="text/css">
	.st0{fill:none;stroke:#26B994;stroke-width:4;stroke-linecap:round;stroke-linejoin:round;}
</style>
<g>
	<g>
		<path class="st0" d="M16.5,28.4c-2.9,4.4-4.8,9.4-5.4,14.6c-0.7,5.3,0,10.8,2.1,15.6c2.1,4.9,5.8,9.1,10.5,11.6
			c4.8,2.6,10.4,3.2,15.8,2.8c5-0.4,9.9-1.7,14.3-4.2c7.5-4.3,13-11.9,14.6-20.4c1.2-6.3,0.2-13-2.6-18.8"/>
		<path class="st0" d="M31.4,39.4c0.7-3.8,4.5-6.2,8.3-6.9c1.7-0.3,3.5-0.3,5.1,0.3c2.3,0.9,3.9,3.3,4.2,5.8c0.2,2.5-0.8,5-2.5,6.8
			c-1.7,1.8-4.2,2.9-6.6,3.2l-0.2,7"/>
		<path class="st0" d="M39.3,60.2v1.5"/>
		<path class="st0" d="M20,21.2c-0.2,0.9,0.4,1.9,1.2,2.4c0.8,0.5,1.8,0.5,2.8,0.6c12.3,0.6,24.6,0.7,36.9,0.2
			c1.3,0,2.8-0.2,3.4-1.3c0.4-0.7,0.3-1.5,0.3-2.3c-0.3-4-0.7-8-1-12c-0.1-1.6-0.4-3.3-1.6-4.3c-0.8-0.6-1.8-0.8-2.8-0.9
			c-8.9-1.2-17.3-2.4-26.2-1.3c-2.4,0.3-6.9,0.8-9,2.2C21.8,6,21.7,9.7,21,12.5c-0.7,2.8-0.8,5.7-0.9,8.5"/>
		<path class="st0" d="M64.7,20.7c3.8,0.2,6.9,0.9,10.3,2.4c1,0.4,2.1,1.1,2.1,2.2c0,1.1-1.1,1.9-2.1,2.3c-3.7,1.7-7.9,2.1-12,2.4
			c-19.2,1.4-38.6,0.3-57.6-3.4c-1.7-0.3-3.7-1.1-3.7-2.8c0-1.5,1.6-2.4,3.1-2.9c4.8-1.6,9.8-2.4,14.8-2.3"/>
	</g>
</g>
</svg>
