<svg width="1799" height="962" viewBox="0 0 1799 962" fill="none" xmlns="http://www.w3.org/2000/svg">
<g clip-path="url(#clip0_1_3)">
<path d="M697.653 -37.72C707.688 -36.1699 704.284 -33.3569 704.895 -8.37398C705.051 -1.99259 704.634 4.35424 704.634 10.7364V45.867C704.634 68.2726 705.54 90.7731 704.502 113.132C704.21 119.43 705.28 127.671 704.371 133.127" stroke="#145A6C" stroke-width="6" stroke-miterlimit="10" stroke-linecap="round"/>
<path d="M416.95 136.268C416.507 139.612 420.223 142.21 422.971 142.027" stroke="#145A6C" stroke-width="6" stroke-miterlimit="10" stroke-linecap="round"/>
<path d="M425.85 141.765L697.827 142.551C701.589 142.894 705.374 136.143 704.633 133.388" stroke="#145A6C" stroke-width="6" stroke-miterlimit="10" stroke-linecap="round"/>
<path d="M412.5 -18.8727C414.141 15.6234 414.15 45.333 415.182 79.8527C415.335 84.9658 415.487 90.0789 415.64 95.192C415.992 106.967 416.344 118.742 416.697 130.516" stroke="#145A6C" stroke-width="6" stroke-miterlimit="10" stroke-linecap="round"/>
<path d="M428.73 -21.8397C428.73 -21.8397 426.635 -22.1884 426.287 -17.826C425.938 -13.4636 431.347 125.099 431.173 125.798C430.999 126.496 434.314 132.254 439.026 132.429C443.738 132.603 688.229 130.858 688.229 130.858C688.229 130.858 693.639 129.986 694.163 124.924C694.687 119.863 691.894 -21.6661 691.894 -21.6661C691.894 -21.6661 691.196 -27.2504 685.786 -27.5999C680.376 -27.9494 433.965 -24.4579 433.965 -24.4579" stroke="#145A6C" stroke-width="6" stroke-miterlimit="10" stroke-linecap="round"/>
<path d="M435.52 12.8984C438.199 1.83262 449.116 -6.65338 460.5 -6.5191C463.482 -6.48376 466.649 -5.82096 468.757 -3.71085C470.908 -1.55754 471.544 1.67478 471.664 4.71548C471.926 11.3387 470.178 18.0264 466.722 23.6814C466.61 23.8651 466.798 24.0725 466.992 23.9767C470.832 22.066 474.918 20.6462 479.117 19.7643C481.229 19.3206 483.419 19.0127 485.54 19.4156C487.662 19.8185 489.722 21.0388 490.669 22.9793C491.599 24.886 491.337 27.143 490.902 29.2193C489.926 33.8825 488.181 38.3831 485.757 42.4855C487.258 40.1398 490.28 39.3427 493.042 38.9909C496.824 38.5103 501.276 38.738 503.081 42.7227C503.559 43.7789 503.731 44.9553 503.663 46.1128C503.46 49.5313 501.55 52.3246 499.682 55.03" stroke="#145A6C" stroke-width="6" stroke-miterlimit="10" stroke-linecap="round"/>
<path d="M562.43 15.2919C560.472 18.551 558.921 22.1932 558.915 25.9949C558.91 29.7965 560.714 33.7678 564.08 35.534C565.842 36.4583 567.876 36.7261 569.865 36.7465C571.231 36.7606 572.606 36.6632 573.926 36.3138C577.482 35.3714 580.439 32.5239 581.655 29.0513C582.87 25.5787 582.365 21.5799 580.45 18.4379C579.196 16.3804 577.35 14.6692 575.155 13.6758C572.914 12.662 570.334 12.4185 567.942 12.9957" stroke="#145A6C" stroke-width="6" stroke-miterlimit="10" stroke-linecap="round"/>
<path d="M618.196 52.8311C615.335 49.2132 613.192 45.0307 611.926 40.5953C610.859 36.8541 610.42 32.666 614.204 29.4856C616.152 27.8482 618.704 27.0456 621.242 27.227C625.215 27.5113 628.494 29.7423 630.873 32.7752C631.61 33.716 633.094 33.1883 633.096 31.993C633.099 30.3675 633.253 28.7419 633.557 27.1446C634.02 24.7078 634.86 22.2859 636.42 20.3572C637.981 18.4285 640.346 17.0487 642.826 17.0982C646.224 17.1649 649.114 19.8789 650.442 23.0076C651.77 26.1362 651.852 29.6316 651.913 33.0289" stroke="#145A6C" stroke-width="6" stroke-miterlimit="10" stroke-linecap="round"/>
<path d="M690.881 4.545C690.043 2.56917 687.467 1.81607 685.397 2.38149C684.347 2.66813 683.407 3.20684 682.546 3.87435C681.302 4.83792 679.511 4.4649 678.816 3.05292C676.995 -0.64508 674.785 -4.17502 671.307 -6.26865C667.393 -8.62692 662.363 -8.71173 658.084 -7.10814C653.805 -5.50454 650.229 -2.36332 647.472 1.28128C644.585 5.09707 642.45 9.88037 643.31 14.5875" stroke="#145A6C" stroke-width="6" stroke-miterlimit="10" stroke-linecap="round"/>
<path d="M574.801 85.9717C576.235 86.1327 577.71 85.9105 579.033 85.3333" stroke="#145A6C" stroke-width="6" stroke-miterlimit="10" stroke-linecap="round"/>
<path d="M617.205 128.665C605.493 123.682 593.935 118.335 582.556 112.632C582.544 112.626 582.532 112.619 582.519 112.613C580.997 111.848 581.348 109.574 583.024 109.274C602.454 105.797 621.998 102.081 640.327 94.9493C642.573 94.0753 642.287 90.8163 639.929 90.3176C632.799 88.8098 625.604 87.6146 618.369 86.7366C610.643 85.7997 602.871 85.2288 595.176 84.0383C592.54 83.6307 585.822 83.5153 583.883 81.5881C581.526 79.2464 586.614 76.3274 588.409 74.8369C599.072 65.9794 611.266 59.0782 624.044 53.7711C638.929 47.5884 654.621 43.5291 670.448 40.4806C676.377 39.3387 682.462 38.3335 688.426 39.2736" stroke="#145A6C" stroke-width="6" stroke-miterlimit="10" stroke-linecap="round"/>
<path d="M434.489 61.9257H434.75" stroke="#145A6C" stroke-width="6" stroke-miterlimit="10" stroke-linecap="round"/>
<path d="M442.226 61.6203C462.05 55.4462 483.469 58.4107 503.854 62.3553C514.974 64.507 526.09 66.9493 536.685 70.9544C547.28 74.9594 557.393 80.5964 565.501 88.506" stroke="#145A6C" stroke-width="6" stroke-miterlimit="10" stroke-linecap="round"/>
<path d="M562.501 90.6851C566.364 91.4028 570.188 92.3295 573.951 93.4596C574.803 93.7156 574.878 94.8998 574.056 95.2406C554.266 103.467 533.095 107.835 512.319 113.177C511.099 113.491 509.86 113.818 508.664 114.235C506.327 115.048 506.027 118.245 508.134 119.543C515.07 123.82 522.536 127.237 530.308 129.686" stroke="#145A6C" stroke-width="6" stroke-miterlimit="10" stroke-linecap="round"/>
<g clip-path="url(#clip1_1_3)">
<g clip-path="url(#clip2_1_3)">
<path d="M715.037 937.749H1102.06C1104.64 937.749 1106.96 936.667 1108.6 934.94" stroke="#145A6C" stroke-width="6" stroke-miterlimit="10" stroke-linecap="round"/>
<path d="M1098.39 686.584L1097.75 674.445C1097.55 670.58 1094.35 667.55 1090.48 667.552C1041.77 667.569 750.146 667.67 689.805 667.568C683.59 667.557 678.394 672.277 677.805 678.461L664.442 818.74" stroke="#145A6C" stroke-width="6" stroke-miterlimit="10" stroke-linecap="round"/>
<path d="M1108.04 870.606L1102.79 770.593" stroke="#145A6C" stroke-width="6" stroke-miterlimit="10" stroke-linecap="round"/>
<path d="M1074.19 785.676C1071.4 788.009 1070.82 792.575 1072.96 795.526C1075.09 798.478 1079.61 799.367 1082.7 797.444C1085.79 795.522 1086.99 791.079 1085.29 787.86C1083.59 784.641 1079.24 783.136 1075.91 784.612" stroke="#145A6C" stroke-width="6" stroke-miterlimit="10" stroke-linecap="round"/>
<path d="M1172.32 908.111C1160.06 925.669 1135.3 934.769 1123.38 934.182C1118.63 933.947 1112.13 933.724 1108.02 931.287C1104.41 929.144 1101.26 924.632 1098.69 921.408C1087 906.749 1074.27 885.953 1073.39 866.667C1073.18 861.992 1073.81 856.659 1077.55 853.854C1081.83 850.652 1088 852.35 1092.61 855.05C1098.45 858.473 1104.55 867.158 1108.16 872.886" stroke="#145A6C" stroke-width="6" stroke-miterlimit="10" stroke-linecap="round"/>
<path d="M1105.59 798.462C1161.18 844.942 1143.27 870.467 1172.32 908.111" stroke="#145A6C" stroke-width="6" stroke-miterlimit="10" stroke-linecap="round"/>
<path d="M1081.29 862.655C1078.56 864.558 1078.08 868.948 1080.28 871.444C1082.48 873.941 1086.83 874.05 1089.2 871.718C1091.58 869.387 1091.59 865.113 1089.28 862.716C1086.97 860.319 1082.77 860.142 1080.21 862.278" stroke="#145A6C" stroke-width="6" stroke-miterlimit="10" stroke-linecap="round"/>
<path d="M1106.74 932.156C1110.65 949.646 1116.9 966.611 1125.27 982.46" stroke="#145A6C" stroke-width="6" stroke-miterlimit="10" stroke-linecap="round"/>
<path d="M1172.32 908.11C1184.28 919.751 1194.77 932.891 1203.48 947.124" stroke="#145A6C" stroke-width="6" stroke-miterlimit="10" stroke-linecap="round"/>
<path d="M705.847 830.976C714.608 817.374 721.568 802.613 726.49 787.201C727.739 783.291 728.887 779.272 731.153 775.849C733.42 772.426 737.06 769.623 741.165 769.515C745.7 769.396 749.815 772.635 751.929 776.647C754.043 780.659 754.499 785.324 754.611 789.857C755.166 812.188 748.381 833.992 741.229 855.155" stroke="#145A6C" stroke-width="6" stroke-miterlimit="10" stroke-linecap="round"/>
<path d="M680.693 816.177C673.867 813.873 666.102 816.629 660.802 821.508C655.503 826.387 652.259 833.075 649.616 839.775C645.836 849.356 643.01 859.411 642.466 869.696C641.922 879.982 643.753 890.541 648.797 899.521C654.023 908.827 662.589 916.123 672.433 920.252C682.276 924.382 693.33 925.397 703.855 923.61C723.097 920.345 740.443 907.406 749.052 889.896C757.661 872.387 757.312 850.754 748.144 833.531" stroke="#145A6C" stroke-width="6" stroke-miterlimit="10" stroke-linecap="round"/>
<path d="M674.642 833.456C674.104 827.207 677.312 821.023 682.051 816.911C686.789 812.798 692.888 810.544 699.041 809.315C705.123 808.102 711.603 807.847 717.372 810.12" stroke="#145A6C" stroke-width="6" stroke-miterlimit="10" stroke-linecap="round"/>
<path d="M587.74 981.935C593.511 938.673 612.307 897.233 641.055 864.384" stroke="#145A6C" stroke-width="6" stroke-miterlimit="10" stroke-linecap="round"/>
<path d="M712.491 994.433C711.79 969.591 713.548 944.68 717.734 920.183" stroke="#145A6C" stroke-width="6" stroke-miterlimit="10" stroke-linecap="round"/>
<path d="M737.062 778.776C734.513 779.738 733.369 783.179 734.648 785.583C735.928 787.987 739.19 789.008 741.709 787.971C744.229 786.935 745.81 784.118 745.63 781.4C745.475 779.059 743.95 776.727 741.685 776.112C739.42 775.496 736.667 777.098 736.498 779.438" stroke="#145A6C" stroke-width="6" stroke-miterlimit="10" stroke-linecap="round"/>
<path d="M960.111 703.16H814.069C810.36 703.16 807.354 706.165 807.354 709.872V893.144C807.354 896.851 810.36 899.856 814.069 899.856H960.111C963.82 899.856 966.826 896.851 966.826 893.144V709.872C966.826 706.165 963.82 703.16 960.111 703.16Z" stroke="#145A6C" stroke-width="6" stroke-miterlimit="10" stroke-linecap="round"/>
<path d="M979.695 769.512H1047.96C1051.65 769.512 1054.68 772.532 1054.68 776.224V912.565C1054.68 916.257 1051.65 919.277 1047.96 919.277H841.292C837.599 919.277 834.577 916.257 834.577 912.565" stroke="#145A6C" stroke-width="6" stroke-miterlimit="10" stroke-linecap="round"/>
<path d="M848.481 778.031C852.808 778.031 856.315 774.525 856.315 770.2C856.315 765.875 852.808 762.369 848.481 762.369C844.155 762.369 840.647 765.875 840.647 770.2C840.647 774.525 844.155 778.031 848.481 778.031Z" stroke="#145A6C" stroke-width="6" stroke-miterlimit="10" stroke-linecap="round"/>
<path d="M869.184 769.578H933.533" stroke="#145A6C" stroke-width="6" stroke-miterlimit="10" stroke-linecap="round"/>
<path d="M848.481 809.339C852.808 809.339 856.315 805.833 856.315 801.508C856.315 797.183 852.808 793.677 848.481 793.677C844.155 793.677 840.647 797.183 840.647 801.508C840.647 805.833 844.155 809.339 848.481 809.339Z" stroke="#145A6C" stroke-width="6" stroke-miterlimit="10" stroke-linecap="round"/>
<path d="M869.184 800.887H933.533" stroke="#145A6C" stroke-width="6" stroke-miterlimit="10" stroke-linecap="round"/>
<path d="M848.481 840.648C852.808 840.648 856.315 837.142 856.315 832.817C856.315 828.492 852.808 824.986 848.481 824.986C844.155 824.986 840.647 828.492 840.647 832.817C840.647 837.142 844.155 840.648 848.481 840.648Z" stroke="#145A6C" stroke-width="6" stroke-miterlimit="10" stroke-linecap="round"/>
<path d="M869.184 832.196H933.533" stroke="#145A6C" stroke-width="6" stroke-miterlimit="10" stroke-linecap="round"/>
<path d="M788.33 694.77H705.538C701.829 694.77 698.823 697.775 698.823 701.482V742.314C698.823 746.021 701.829 749.026 705.538 749.026H788.33C792.038 749.026 795.044 746.021 795.044 742.314V701.482C795.044 697.775 792.038 694.77 788.33 694.77Z" stroke="#145A6C" stroke-width="6" stroke-miterlimit="10" stroke-linecap="round"/>
<path d="M1101.03 745.729C1105.09 752.543 1112.86 756.984 1120.79 757.025C1128.72 757.065 1136.53 752.703 1140.66 745.93" stroke="#145A6C" stroke-width="6" stroke-miterlimit="10" stroke-linecap="round"/>
<path d="M1087.13 716.372C1083.83 725.484 1082.01 736.428 1084.7 745.73C1087.39 755.031 1092.84 763.184 1101.31 768.173C1111.36 774.095 1125.65 774.833 1136.56 770.593C1147.46 766.353 1154.06 759.175 1158.4 748.515C1162.73 737.855 1162.47 723.867 1158.69 713.008" stroke="#145A6C" stroke-width="6" stroke-miterlimit="10" stroke-linecap="round"/>
<path d="M1090.66 699.494C1089.64 699.124 1088.46 699.586 1087.69 700.352C1086.91 701.117 1086.45 702.139 1086.01 703.135C1085.2 704.972 1084.39 706.833 1084.04 708.811C1083.7 710.788 1083.87 712.927 1084.93 714.635C1086.23 716.744 1088.65 717.877 1091 718.651C1097.43 720.763 1104.3 721.043 1111.07 721.213C1125.27 721.57 1139.99 721.422 1152.92 715.548C1156.64 713.858 1162.3 710.472 1163.04 706.454C1163.56 703.661 1162.7 702.715 1161.59 700.102C1160.88 698.439 1159.36 695.22 1157.7 694.505C1155.81 693.693 1152.26 694.931 1150.39 695.778C1131.65 704.246 1110.41 705.226 1090.66 699.494Z" stroke="#145A6C" stroke-width="6" stroke-miterlimit="10" stroke-linecap="round"/>
<path d="M1089.32 699.322C1091.65 692.257 1096.98 686.35 1103.48 682.725C1109.98 679.099 1117.58 677.669 1125.01 678.027C1132.45 678.386 1139.73 680.473 1146.53 683.504C1149.06 684.635 1151.57 685.916 1153.68 687.724C1155.79 689.532 1157.49 691.921 1158.05 694.642" stroke="#145A6C" stroke-width="6" stroke-miterlimit="10" stroke-linecap="round"/>
<path d="M1099.54 701.114C1100.35 694.495 1102.28 688.014 1105.21 682.024" stroke="#145A6C" stroke-width="6" stroke-miterlimit="10" stroke-linecap="round"/>
<path d="M1114.92 702.603C1115.08 694.773 1115.24 686.942 1115.41 679.111" stroke="#145A6C" stroke-width="6" stroke-miterlimit="10" stroke-linecap="round"/>
<path d="M1131.79 700.989C1131.14 693.697 1130.17 686.434 1128.87 679.228" stroke="#145A6C" stroke-width="6" stroke-miterlimit="10" stroke-linecap="round"/>
<path d="M1103.17 732.661C1104.66 732.661 1105.87 731.452 1105.87 729.96C1105.87 728.467 1104.66 727.258 1103.17 727.258C1101.67 727.258 1100.46 728.467 1100.46 729.96C1100.46 731.452 1101.67 732.661 1103.17 732.661Z" fill="#145A6C"/>
<path d="M1141.03 733.595C1142.52 733.595 1143.73 732.386 1143.73 730.894C1143.73 729.402 1142.52 728.192 1141.03 728.192C1139.54 728.192 1138.33 729.402 1138.33 730.894C1138.33 732.386 1139.54 733.595 1141.03 733.595Z" fill="#145A6C"/>
<path d="M1140.14 680.469C1141.36 684.328 1144.05 693.144 1145.02 697.531" stroke="#145A6C" stroke-width="6"/>
</g>
</g>
<path d="M1313.84 820.016C1311.01 834.305 1317.49 849.562 1328.61 858.974C1339.72 868.386 1354.83 872.3 1369.37 871.5C1383.62 870.715 1397.82 865.446 1408.19 855.635C1418.56 845.824 1424.7 831.302 1423.14 817.11" stroke="#145A6C" stroke-width="6" stroke-miterlimit="10" stroke-linecap="round"/>
<path d="M1313.32 835.664C1310.55 840.87 1307.78 846.074 1305 851.28C1303.92 853.305 1302.48 855.583 1300.2 855.789C1296.5 856.123 1294.98 851.184 1294.84 847.472C1294.38 834.885 1294.81 822.143 1297.99 809.955C1301.17 797.768 1307.27 786.095 1316.75 777.808C1326.27 769.49 1338.65 765.022 1351.14 763.098C1363.64 761.174 1376.35 761.626 1388.98 762.1C1400.57 762.536 1413 763.274 1422.18 770.364C1430.05 776.434 1434.12 786.143 1437.07 795.63C1442.27 812.32 1445.02 829.766 1445.23 847.244C1445.28 851.455 1444.37 856.774 1440.29 857.813C1436.59 858.758 1433.31 855.287 1431.32 852.022C1427.16 845.197 1424.34 837.554 1423.07 829.66" stroke="#145A6C" stroke-width="6" stroke-miterlimit="10" stroke-linecap="round"/>
<path d="M1485.76 950.68C1492.9 968.034 1494.29 987.697 1489.66 1005.88C1489.18 1007.78 1488.63 1009.74 1488.97 1011.66C1489.54 1014.83 1492.47 1017.17 1495.59 1017.95C1502.54 1019.7 1509.79 1014.87 1513.21 1008.58C1516.64 1002.28 1517.13 994.863 1517.55 987.709C1518.4 973.069 1519.26 958.43 1520.12 943.79" stroke="#145A6C" stroke-width="6" stroke-miterlimit="10" stroke-linecap="round"/>
<path d="M1389.35 940.383C1392.41 961.656 1392.34 983.377 1389.17 1004.63C1388.85 1006.75 1388.52 1009.02 1389.47 1010.94C1391.05 1014.15 1395.28 1014.82 1398.86 1014.93C1405.34 1015.12 1412.9 1014.21 1416.33 1008.7C1418.19 1005.7 1418.36 1002 1418.48 998.477C1419.11 979.623 1419.74 960.769 1420.38 941.914" stroke="#145A6C" stroke-width="6" stroke-miterlimit="10" stroke-linecap="round"/>
<path d="M1342.36 885.091C1346.06 898.226 1349.84 911.557 1357.02 923.158C1364.2 934.76 1375.37 944.61 1388.79 947.011" stroke="#145A6C" stroke-width="6" stroke-miterlimit="10" stroke-linecap="round"/>
<path d="M1530.81 895.393C1529.4 912.512 1537.41 928.825 1545.01 944.23C1552.6 959.634 1560.19 976.287 1557.86 993.304C1557.14 998.572 1555.58 1004.4 1558.48 1008.86C1562.26 1014.68 1571.7 1013.93 1576.69 1009.11C1581.68 1004.28 1583.32 997.029 1584.5 990.187C1591.54 949.328 1590.52 907.563 1589.48 866.114" stroke="#145A6C" stroke-width="6" stroke-miterlimit="10" stroke-linecap="round"/>
<path d="M1443.58 815.289C1469.08 812.74 1494.94 813.82 1520.14 818.486C1553.91 824.738 1586.8 837.418 1621.14 837.627C1623.51 837.642 1626.52 838.031 1627.2 840.311C1627.65 841.856 1626.71 843.44 1625.75 844.737C1616.99 856.628 1603.6 865.019 1589.09 867.728" stroke="#145A6C" stroke-width="6" stroke-miterlimit="10" stroke-linecap="round"/>
<path d="M1319.74 852.197C1323.98 884.371 1328.23 916.618 1329.04 949.061C1329.3 959.268 1329.2 969.68 1326.67 979.637C1325.45 984.432 1323.86 987.415 1321.08 990.827C1318.93 993.473 1316.72 995.519 1317.94 999.397C1319.19 1003.36 1323.31 1005.92 1327.43 1006.4C1331.56 1006.88 1335.7 1005.65 1339.55 1004.08C1343.39 1002.53 1347.25 1000.49 1349.61 997.087C1352.11 993.484 1352.57 988.891 1352.9 984.517C1354.61 961.478 1354.55 938.307 1352.72 915.276" stroke="#145A6C" stroke-width="6" stroke-miterlimit="10" stroke-linecap="round"/>
<path d="M1421.07 952.231C1450.55 955.43 1480.59 953.358 1509.35 946.139C1519.66 943.553 1530.31 939.993 1537.43 932.106" stroke="#145A6C" stroke-width="6" stroke-miterlimit="10" stroke-linecap="round"/>
<path d="M1327.55 799.274C1325.22 799.04 1322.97 801.165 1323.01 803.5C1323.04 805.834 1325.31 807.87 1327.64 807.715C1329.97 807.561 1331.93 805.302 1331.81 802.97C1331.7 800.637 1329.88 799.354 1327.55 799.273" fill="#145A6C"/>
<path d="M1327.55 797.695C1324.99 797.483 1322.67 799.29 1321.77 801.598C1320.81 804.047 1321.97 806.689 1324 808.178C1325.96 809.622 1328.7 809.662 1330.68 808.227C1332.71 806.752 1333.84 804.23 1333.22 801.74C1332.57 799.127 1330.07 797.807 1327.55 797.697C1326.72 797.661 1325.93 798.449 1325.97 799.275C1326.01 800.16 1326.66 800.814 1327.55 800.853C1327.67 800.858 1327.79 800.87 1327.91 800.876C1328.01 800.88 1328.19 800.853 1327.85 800.862C1328.02 800.858 1328.24 800.934 1328.41 800.977C1328.57 801.017 1328.73 801.103 1328.89 801.126C1329.1 801.158 1328.56 800.957 1328.87 801.114C1328.96 801.162 1329.06 801.207 1329.15 801.26C1329.24 801.309 1329.55 801.45 1329.59 801.546C1329.56 801.456 1329.37 801.35 1329.52 801.496C1329.59 801.569 1329.67 801.635 1329.74 801.711C1329.75 801.731 1329.88 801.859 1329.87 801.865C1329.87 801.866 1329.68 801.557 1329.84 801.834C1329.89 801.92 1330.14 802.232 1330.12 802.338C1330.13 802.277 1330.02 802.046 1330.08 802.261C1330.11 802.369 1330.15 802.472 1330.18 802.58C1330.19 802.654 1330.21 802.729 1330.22 802.802C1330.31 803.166 1330.22 802.551 1330.22 802.791C1330.23 802.974 1330.25 803.156 1330.24 803.34C1330.23 803.449 1330.29 803.789 1330.24 803.405C1330.26 803.511 1330.2 803.663 1330.17 803.763C1330.13 803.941 1330.06 804.111 1330.01 804.285C1329.93 804.514 1330.18 803.955 1329.99 804.299C1329.95 804.371 1329.92 804.445 1329.88 804.516C1329.78 804.695 1329.67 804.862 1329.55 805.031C1329.74 804.749 1329.59 804.976 1329.53 805.045C1329.43 805.153 1329.33 805.257 1329.23 805.356C1329.17 805.412 1329.11 805.465 1329.05 805.521C1328.77 805.786 1329.24 805.408 1329.03 805.539C1328.88 805.639 1328.73 805.744 1328.57 805.833C1328.48 805.883 1328.39 805.923 1328.3 805.971C1328.09 806.086 1328.66 805.857 1328.29 805.973C1328.07 806.041 1327.86 806.09 1327.64 806.144C1327.41 806.2 1328.03 806.13 1327.64 806.139C1327.55 806.142 1327.47 806.148 1327.39 806.148C1327.31 806.148 1327.1 806.173 1327.03 806.131C1327.05 806.144 1327.4 806.206 1327.09 806.137C1326.89 806.093 1326.69 806.049 1326.5 805.983C1326.42 805.956 1326.35 805.927 1326.27 805.897C1326.63 806.036 1326.29 805.892 1326.21 805.85C1326.02 805.753 1325.86 805.638 1325.69 805.527C1325.97 805.709 1325.74 805.572 1325.67 805.509C1325.59 805.443 1325.52 805.374 1325.44 805.303C1325.37 805.227 1324.98 804.757 1325.21 805.072C1325.09 804.909 1324.98 804.738 1324.88 804.561C1324.83 804.473 1324.79 804.38 1324.74 804.291C1324.63 804.081 1324.85 804.644 1324.74 804.275C1324.7 804.135 1324.54 803.825 1324.59 803.69C1324.58 803.71 1324.61 804.073 1324.6 803.748C1324.59 803.646 1324.58 803.545 1324.58 803.442C1324.58 803.369 1324.56 803.196 1324.6 803.137C1324.56 803.335 1324.56 803.374 1324.58 803.255C1324.59 803.195 1324.6 803.135 1324.61 803.076C1324.63 802.977 1324.66 802.879 1324.69 802.782C1324.71 802.694 1324.89 802.291 1324.72 802.649C1324.81 802.466 1324.9 802.286 1325.01 802.114C1325.02 802.107 1325.24 801.771 1325.1 801.974C1324.98 802.152 1325.26 801.794 1325.29 801.759C1325.43 801.609 1325.58 801.473 1325.74 801.341C1325.44 801.59 1325.75 801.339 1325.81 801.299C1325.91 801.233 1326.02 801.169 1326.12 801.112C1326.19 801.073 1326.27 801.04 1326.34 801.002C1326.01 801.177 1326.32 801.012 1326.41 800.98C1326.53 800.942 1326.64 800.909 1326.76 800.88L1326.88 800.854C1327.06 800.822 1327.04 800.823 1326.82 800.855C1326.81 800.829 1327.51 800.85 1327.55 800.853C1328.37 800.921 1329.16 800.078 1329.12 799.275C1329.08 798.361 1328.43 797.77 1327.55 797.697L1327.55 797.695Z" fill="#145A6C"/>
<path d="M1404.73 799.61C1402.59 799.938 1401.03 802.27 1401.43 804.395C1401.83 806.52 1404 808.112 1406.16 807.972C1408.7 807.808 1410.83 805.267 1410.54 802.738C1410.26 800.209 1407.62 798.201 1405.11 798.603" fill="#145A6C"/>
<path d="M1404.31 798.088C1401.82 798.517 1400.07 800.845 1399.82 803.262C1399.55 805.864 1401.37 808.167 1403.68 809.118C1406 810.069 1408.67 809.371 1410.35 807.554C1412.12 805.644 1412.64 802.965 1411.52 800.593C1410.97 799.438 1409.97 798.443 1408.87 797.819C1407.56 797.082 1406.16 796.87 1404.69 797.081C1403.87 797.199 1403.35 798.283 1403.59 799.022C1403.88 799.92 1404.65 800.251 1405.53 800.125C1405.13 800.182 1405.78 800.129 1405.88 800.131C1406.02 800.135 1406.43 800.212 1406.09 800.138C1406.3 800.184 1406.51 800.226 1406.71 800.291C1406.79 800.317 1406.87 800.351 1406.95 800.375C1406.62 800.277 1406.97 800.386 1407.05 800.422C1407.22 800.509 1407.39 800.605 1407.55 800.711C1407.64 800.77 1407.73 800.831 1407.81 800.894C1407.76 800.858 1407.58 800.694 1407.8 800.889C1407.94 801.019 1408.08 801.148 1408.21 801.291C1408.28 801.37 1408.35 801.451 1408.42 801.533C1408.25 801.326 1408.41 801.519 1408.48 801.628C1408.57 801.771 1408.66 801.918 1408.74 802.07C1408.74 802.081 1408.89 802.456 1408.81 802.231C1408.73 802 1408.86 802.398 1408.86 802.402C1408.91 802.567 1408.95 802.733 1408.98 802.9C1408.91 802.554 1408.97 802.831 1408.98 802.932C1408.99 803.062 1408.99 803.193 1408.99 803.323C1408.98 803.431 1408.97 803.539 1408.96 803.647C1408.97 803.585 1409.03 803.323 1408.96 803.612C1408.92 803.803 1408.87 803.991 1408.81 804.177C1408.78 804.258 1408.67 804.531 1408.81 804.226C1408.77 804.306 1408.73 804.385 1408.69 804.461C1408.6 804.657 1408.47 804.837 1408.36 805.024C1408.15 805.375 1408.5 804.887 1408.33 805.073C1408.26 805.155 1408.19 805.24 1408.12 805.32C1408 805.448 1407.88 805.57 1407.74 805.686C1407.74 805.688 1407.41 805.941 1407.6 805.809C1407.79 805.675 1407.44 805.911 1407.44 805.91C1407.25 806.027 1407.06 806.126 1406.87 806.22C1407.16 806.075 1406.91 806.2 1406.82 806.229C1406.72 806.264 1406.62 806.295 1406.51 806.322C1406.38 806.356 1405.95 806.403 1406.29 806.38C1406.07 806.395 1405.85 806.39 1405.63 806.391C1405.55 806.391 1405.33 806.347 1405.66 806.405C1405.53 806.381 1405.4 806.358 1405.27 806.327C1405.08 806.279 1404.89 806.212 1404.71 806.147C1404.47 806.066 1405.01 806.327 1404.66 806.118C1404.58 806.074 1404.5 806.036 1404.43 805.993C1404.35 805.95 1404.28 805.904 1404.2 805.855C1404.21 805.856 1403.85 805.607 1404.04 805.749C1404.22 805.891 1403.89 805.619 1403.9 805.62C1403.8 805.531 1403.7 805.439 1403.62 805.342C1403.56 805.278 1403.5 805.209 1403.44 805.145C1403.64 805.36 1403.49 805.217 1403.45 805.152C1403.33 804.965 1403.23 804.782 1403.12 804.589C1403.08 804.51 1403.05 804.331 1403.13 804.605C1403.1 804.522 1403.07 804.44 1403.04 804.357C1403.01 804.253 1403 804.14 1402.97 804.038C1402.94 803.918 1402.94 803.952 1402.97 804.143C1402.96 804.079 1402.96 804.016 1402.95 803.953C1402.94 803.722 1402.95 803.491 1402.97 803.261C1402.97 803.323 1402.91 803.588 1402.98 803.307C1403.01 803.184 1403.04 803.062 1403.07 802.94C1403.1 802.859 1403.13 802.781 1403.16 802.7C1403.04 803.044 1403.16 802.695 1403.2 802.614C1403.31 802.405 1403.44 802.215 1403.57 802.021C1403.7 801.823 1403.31 802.269 1403.6 801.995C1403.69 801.908 1403.77 801.811 1403.86 801.724C1403.92 801.666 1403.99 801.614 1404.05 801.557C1403.8 801.794 1404.06 801.552 1404.13 801.507C1404.2 801.462 1404.27 801.419 1404.35 801.379C1404.48 801.305 1404.67 801.233 1404.42 801.326C1404.66 801.238 1404.9 801.174 1405.15 801.13C1405.96 800.99 1406.49 799.945 1406.25 799.189C1405.97 798.311 1405.18 797.936 1404.31 798.087L1404.31 798.088Z" fill="#145A6C"/>
<path d="M1342.9 835.456C1345.73 832.8 1347.9 829.459 1349.21 825.804C1349.38 825.321 1350.06 825.367 1350.17 825.867C1350.6 827.825 1351.2 829.746 1352.15 831.506C1353.41 833.845 1355.36 835.897 1357.84 836.854" stroke="#145A6C" stroke-width="6" stroke-miterlimit="10" stroke-linecap="round"/>
<path d="M1342.5 809.181C1340.85 809.64 1339.72 811.319 1339.61 813.023C1339.49 814.728 1340.25 816.407 1341.36 817.705C1342.47 819.003 1343.91 819.97 1345.37 820.849C1347.19 821.941 1349.22 822.954 1351.33 822.761C1353.96 822.522 1356.05 820.49 1357.75 818.46C1359.06 816.892 1360.36 814.911 1359.8 812.944C1359.18 810.795 1356.69 809.851 1354.49 809.448C1350.16 808.653 1346.79 808.187 1342.5 809.181Z" fill="#145A6C"/>
<path d="M1342.08 807.659C1337.74 809.067 1337.1 814.286 1339.41 817.732C1340.61 819.519 1342.33 820.825 1344.14 821.944C1346.01 823.102 1348.05 824.173 1350.28 824.34C1354.56 824.66 1358.28 820.96 1360.35 817.567C1361.48 815.713 1361.97 813.409 1360.86 811.426C1359.97 809.845 1358.31 808.917 1356.65 808.364C1354.44 807.632 1351.97 807.362 1349.67 807.15C1347.11 806.916 1344.58 807.101 1342.08 807.659C1340.1 808.1 1340.93 811.145 1342.92 810.703C1346.14 809.985 1349.35 810.157 1352.58 810.705C1354.47 811.025 1358.83 811.504 1358.31 814.368C1358.05 815.835 1356.86 817.127 1355.9 818.193C1354.94 819.246 1353.86 820.304 1352.52 820.857C1349.62 822.061 1346.15 819.761 1343.94 818.005C1342.68 817 1341.51 815.671 1341.23 814.029C1341 812.708 1341.55 811.148 1342.92 810.704C1344.84 810.079 1344.02 807.031 1342.08 807.661V807.659Z" fill="#145A6C"/>
<path d="M255.618 249.487C252.862 367.245 252.476 485.058 254.459 602.832" stroke="#145A6C" stroke-width="6" stroke-miterlimit="10" stroke-linecap="round"/>
<path d="M250.276 246.455C162.288 248.502 74.263 248.925 -13.74 247.723" stroke="#145A6C" stroke-width="6" stroke-miterlimit="10" stroke-linecap="round"/>
<path d="M-27.394 632.186C-28.464 632.816 -29.921 632.182 -30.603 631.144C-31.285 630.106 -31.389 628.804 -31.448 627.564C-31.637 623.522 -31.552 619.466 -31.191 615.436C-31.016 613.483 -30.754 611.466 -29.73 609.794C-28.706 608.122 -26.716 606.887 -24.806 607.332L257.251 607.972C259.284 606.311 264.326 607.694 265.574 610.004C266.822 612.314 266.614 615.105 266.373 617.72C266.078 620.923 265.783 624.126 265.488 627.329C265.364 628.675 265.202 630.114 264.326 631.143C263.45 632.172 256.375 632.466 255.616 631.347L-27.395 632.187L-27.394 632.186Z" stroke="#145A6C" stroke-width="6" stroke-miterlimit="10" stroke-linecap="round"/>
<path d="M-15.973 444.299C73.212 443.934 162.397 443.568 251.582 443.203" stroke="#145A6C" stroke-width="6" stroke-miterlimit="10" stroke-linecap="round"/>
<path d="M-14.606 469.034C74.1 466.659 162.858 466.203 251.584 467.665" stroke="#145A6C" stroke-width="6" stroke-miterlimit="10" stroke-linecap="round"/>
<path d="M230.739 600.059C235.977 574.159 238.698 554.391 243.07 527.858C243.47 525.429 241.403 523.276 238.943 523.199C208.004 522.233 183.354 522.651 156.809 522.668C154.265 522.67 151.428 523.261 150.967 527.158C150.851 528.139 150.942 529.133 151.139 530.1C155.924 553.544 161.382 576.85 167.504 599.981C167.763 600.961 168.036 601.966 168.637 602.781C170.343 605.094 173.759 604.602 176.633 604.63C193.903 604.798 206.471 605.535 224.802 604.86C227.628 604.756 230.178 602.831 230.739 600.059Z" stroke="#145A6C" stroke-width="6" stroke-miterlimit="10" stroke-linecap="round"/>
<path d="M168.745 522.504C165.34 521.027 162.235 518.864 159.669 516.182C158.28 514.73 156.971 512.736 157.633 510.839C158.246 509.085 160.279 508.278 162.124 508.06C166.712 507.518 171.332 509.314 175.063 512.039C178.794 514.764 181.775 518.369 184.705 521.941" stroke="#145A6C" stroke-width="6" stroke-miterlimit="10" stroke-linecap="round"/>
<path d="M234.645 522.759C238.795 520.001 241.877 515.677 243.131 510.855C243.552 509.237 243.772 507.53 243.436 505.893C243.1 504.256 242.144 502.689 240.667 501.906C239.128 501.09 237.217 501.22 235.611 501.895C234.005 502.57 232.655 503.732 231.414 504.954C226.474 509.816 222.789 515.944 220.812 522.587" stroke="#145A6C" stroke-width="6" stroke-miterlimit="10" stroke-linecap="round"/>
<path d="M185.065 521.561C176.985 511.66 173.379 498.242 175.407 485.624C175.58 484.549 175.83 483.407 176.616 482.654C178.402 480.942 181.335 482.366 183.257 483.925C194.814 493.298 203.039 506.699 206.164 521.248" stroke="#145A6C" stroke-width="6" stroke-miterlimit="10" stroke-linecap="round"/>
<path d="M220.299 521.697C222.214 509.198 221.7 490.449 217.563 478.502C216.99 476.847 214.774 476.46 213.71 477.851C210.2 482.441 207.552 493.983 206.75 499.749C205.771 506.784 206.372 513.932 206.975 521.009" stroke="#145A6C" stroke-width="6" stroke-miterlimit="10" stroke-linecap="round"/>
<path d="M172.25 568.5C174.045 568.5 175.5 567.045 175.5 565.25C175.5 563.455 174.045 562 172.25 562C170.455 562 169 563.455 169 565.25C169 567.045 170.455 568.5 172.25 568.5Z" fill="#145A6C"/>
<path d="M183.805 569.528C185.6 569.528 187.055 568.073 187.055 566.278C187.055 564.483 185.6 563.028 183.805 563.028C182.01 563.028 180.555 564.483 180.555 566.278C180.555 568.073 182.01 569.528 183.805 569.528Z" fill="#145A6C"/>
<path d="M197.153 568.75C198.948 568.75 200.403 567.295 200.403 565.5C200.403 563.705 198.948 562.25 197.153 562.25C195.358 562.25 193.903 563.705 193.903 565.5C193.903 567.295 195.358 568.75 197.153 568.75Z" fill="#145A6C"/>
<path d="M210.361 569.528C212.156 569.528 213.611 568.073 213.611 566.278C213.611 564.483 212.156 563.028 210.361 563.028C208.566 563.028 207.111 564.483 207.111 566.278C207.111 568.073 208.566 569.528 210.361 569.528Z" fill="#145A6C"/>
<path d="M223.055 569C224.85 569 226.305 567.545 226.305 565.75C226.305 563.955 224.85 562.5 223.055 562.5C221.26 562.5 219.805 563.955 219.805 565.75C219.805 567.545 221.26 569 223.055 569Z" fill="#145A6C"/>
<path d="M1504.64 162.66C1502.92 162.949 1501.59 164.403 1500.95 166.022C1500.32 167.642 1500.26 169.422 1500.22 171.162C1500.06 178.915 1500.17 186.672 1500.53 194.418C1500.57 195.192 1500.62 195.993 1500.97 196.684C1501.32 197.376 1502.06 197.931 1502.83 197.814L1681.2 197.705C1682.74 197.749 1684.09 196.13 1683.77 194.623L1683.45 168.012C1683.61 165.236 1681.73 162.47 1679.09 161.601C1678.91 161.759 1647.24 161.317 1647.06 161.476L1504.64 162.661V162.66Z" stroke="#145A6C" stroke-width="6" stroke-miterlimit="10" stroke-linecap="round"/>
<path d="M1573.85 224.282H1611.99C1611.99 224.282 1615.28 214.63 1606.57 212.747C1597.86 210.864 1577.85 210.157 1574.79 215.572C1571.73 220.987 1573.85 224.282 1573.85 224.282Z" stroke="#145A6C" stroke-width="6" stroke-miterlimit="10" stroke-linecap="round"/>
<path d="M1505.34 197.828V272.17C1505.34 274.847 1507.51 277.017 1510.19 277.017H1676.31C1679 277.017 1681.18 274.82 1681.16 272.127L1680.49 197.703" stroke="#145A6C" stroke-width="6" stroke-miterlimit="10" stroke-linecap="round"/>
<path d="M1415.41 278.647L1836.34 277.705" stroke="#145A6C" stroke-width="6" stroke-miterlimit="10" stroke-linecap="round"/>
<path d="M1839.22 278.507C1843.3 280.01 1845.75 284.944 1844.49 289.105C1843.22 293.265 1838.44 296.003 1834.22 294.985L1835.09 294.969L1415.72 293.4C1404.31 293.4 1403.74 286.165 1404.33 283.457C1404.75 281.532 1406.28 279.976 1408.07 279.151C1409.86 278.326 1411.88 278.15 1413.85 278.231" stroke="#145A6C" stroke-width="6" stroke-miterlimit="10" stroke-linecap="round"/>
<path d="M1415.72 293.4L1420.43 333.892C1420.43 333.892 1421.69 343.623 1426.39 337.031L1430.16 295.198" stroke="#145A6C" stroke-width="6" stroke-miterlimit="10" stroke-linecap="round"/>
<path d="M1454.1 197.034H1445.07C1443.17 197.034 1441.62 198.58 1441.62 200.487V274.761C1441.62 276.668 1443.17 278.214 1445.07 278.214H1454.1C1456 278.214 1457.55 276.668 1457.55 274.761V200.487C1457.55 198.58 1456 197.034 1454.1 197.034Z" stroke="#145A6C" stroke-width="6" stroke-miterlimit="10" stroke-linecap="round"/>
<path d="M1470.03 197.034H1461C1459.09 197.034 1457.55 198.58 1457.55 200.487V274.761C1457.55 276.668 1459.09 278.214 1461 278.214H1470.03C1471.93 278.214 1473.48 276.668 1473.48 274.761V200.487C1473.48 198.58 1471.93 197.034 1470.03 197.034Z" stroke="#145A6C" stroke-width="6" stroke-miterlimit="10" stroke-linecap="round"/>
<path d="M1485.96 197.034H1476.93C1475.03 197.034 1473.48 198.58 1473.48 200.487V274.761C1473.48 276.668 1475.03 278.214 1476.93 278.214H1485.96C1487.86 278.214 1489.41 276.668 1489.41 274.761V200.487C1489.41 198.58 1487.86 197.034 1485.96 197.034Z" stroke="#145A6C" stroke-width="6" stroke-miterlimit="10" stroke-linecap="round"/>
<path d="M1501.89 197.034H1492.86C1490.95 197.034 1489.41 198.58 1489.41 200.487V274.761C1489.41 276.668 1490.95 278.214 1492.86 278.214H1501.89C1503.79 278.214 1505.34 276.668 1505.34 274.761V200.487C1505.34 198.58 1503.79 197.034 1501.89 197.034Z" stroke="#145A6C" stroke-width="6" stroke-miterlimit="10" stroke-linecap="round"/>
<g clip-path="url(#clip3_1_3)">
<path d="M1766.36 273.271C1766.59 274.651 1764.7 275.281 1763.3 275.355C1748.74 276.123 1734.17 276.663 1719.6 276.973C1718.16 277.004 1716.69 277.026 1715.34 276.542C1713.99 276.057 1712.77 274.948 1712.58 273.528L1705.6 231.652C1705.08 230.06 1707 228.815 1708.6 228.288C1724.01 223.198 1740.69 223.908 1756.85 225.412C1761.36 225.833 1766.64 226.825 1768.59 230.912L1766.36 273.271Z" stroke="#145A6C" stroke-width="6" stroke-miterlimit="10"/>
<path d="M1711.01 255.669C1712.83 258.366 1714.89 260.891 1717.18 263.203C1718.63 264.681 1721.07 264.541 1722.36 262.913L1727.76 256.096C1728.18 255.567 1728.66 255 1729.33 254.897C1730.17 254.767 1730.92 255.423 1731.52 256.03C1733.63 258.169 1735.74 260.307 1737.86 262.446C1739.28 263.878 1741.61 263.805 1742.94 262.289L1749.64 254.607C1751.07 252.968 1753.65 253.04 1754.99 254.756L1757.93 258.538C1759.22 260.191 1761.68 260.329 1763.14 258.831L1767.35 254.533" stroke="#145A6C" stroke-width="6" stroke-miterlimit="10"/>
<path d="M1714.89 226.539C1707 220.499 1699.81 209.974 1697.13 199.892C1696.52 197.596 1698.58 195.477 1700.91 195.992C1706.27 197.18 1711.24 200.166 1715.13 204.082C1720.14 209.115 1723.49 215.583 1725.79 222.293" stroke="#145A6C" stroke-width="6" stroke-miterlimit="10"/>
<path d="M1760.08 224.585C1765.1 221.341 1769.39 216.976 1772.54 211.905C1773.15 210.924 1773.73 209.891 1773.92 208.754C1774.11 207.617 1773.86 206.345 1773.01 205.56C1771.76 204.393 1769.76 204.677 1768.12 205.179C1759.23 207.905 1751.86 215.134 1748.97 223.956" stroke="#145A6C" stroke-width="6" stroke-miterlimit="10"/>
<path d="M1728.34 224.387C1718.61 210.474 1715.05 192.839 1716.46 175.931C1716.72 172.732 1717.75 168.847 1720.88 168.118C1722.53 167.735 1724.29 168.448 1725.54 169.584C1726.79 170.72 1727.63 172.233 1728.4 173.737C1736.35 189.232 1739.56 207.101 1737.52 224.386" stroke="#145A6C" stroke-width="6" stroke-miterlimit="10"/>
<path d="M1747.14 222.79C1755.88 209.824 1760.59 194.199 1760.48 178.575C1760.47 176.356 1760.19 173.806 1758.36 172.546C1756.22 171.073 1753.24 172.252 1751.23 173.891C1745.43 178.616 1743.16 186.381 1741.97 193.76C1740.44 203.222 1740.18 212.835 1739.92 222.416" stroke="#145A6C" stroke-width="6" stroke-miterlimit="10"/>
</g>
</g>
<defs>
<clipPath id="clip0_1_3">
<rect width="1799" height="962" rx="40" fill="white"/>
</clipPath>
<clipPath id="clip1_1_3">
<rect width="640" height="382" fill="white" transform="translate(580 580)"/>
</clipPath>
<clipPath id="clip2_1_3">
<rect width="655" height="312" fill="white" transform="translate(573 650)"/>
</clipPath>
<clipPath id="clip3_1_3">
<rect width="83" height="115" fill="white" transform="translate(1694 165)"/>
</clipPath>
</defs>
</svg>
