<svg width="1799" height="763" viewBox="0 0 1799 763" fill="none" xmlns="http://www.w3.org/2000/svg">
<path d="M1664.5 295.431C1664.92 311.939 1665.34 328.448 1665.76 344.956C1665.81 347.185 1665.92 349.571 1667.25 351.363C1669.36 354.217 1673.51 354.343 1677.06 354.198C1688.15 353.747 1699.24 353.295 1710.34 352.843C1712.37 349.589 1712.41 345.524 1712.4 341.689C1712.33 324.667 1712.27 307.645 1712.21 290.623C1712.19 287.414 1711.97 283.75 1709.47 281.745C1707.54 280.199 1704.84 280.157 1702.37 280.188C1692.55 280.31 1682.72 280.422 1672.9 280.553C1670.33 280.586 1666.85 280.019 1665.22 282.458C1663.26 285.4 1664.41 292.063 1664.5 295.43L1664.5 295.431Z" stroke="#145A6C" stroke-width="5" stroke-linecap="round" stroke-linejoin="round"/>
<path d="M1678.07 309.607C1677.26 312.364 1677.51 315.341 1678.25 318.118C1679.36 322.269 1681.81 326.357 1685.75 328.052C1689.47 329.65 1694.03 328.748 1697.14 326.165C1700.26 323.583 1701.98 319.52 1702.1 315.474C1702.26 310.656 1700.11 305.685 1696.12 302.968C1689.6 298.519 1680.29 302.075 1678.07 309.607Z" stroke="#145A6C" stroke-width="5" stroke-linecap="round" stroke-linejoin="round"/>
<path d="M1690.63 319.699C1690.57 322.638 1690.51 325.579 1690.44 328.519" stroke="#145A6C" stroke-width="5" stroke-linecap="round" stroke-linejoin="round"/>
<path d="M1281.87 506.392C1281.19 511.466 1284.18 516.803 1288.84 518.926C1293.5 521.05 1299.45 519.827 1302.93 516.075C1306.42 512.323 1307.21 506.338 1304.86 501.786C1299.31 490.994 1283.42 494.852 1281.87 506.392Z" stroke="#145A6C" stroke-width="5" stroke-linecap="round" stroke-linejoin="round"/>
<path d="M1208.76 441.728C1188.87 469.629 1182.03 505.694 1186.76 539.627C1189.21 557.175 1194.8 574.683 1205.76 588.606C1216.01 601.638 1230.55 610.914 1246.17 616.496C1261.78 622.079 1278.48 624.131 1295.06 624.399C1310.19 624.643 1325.55 623.387 1339.76 618.215C1359.72 610.954 1376.45 596.185 1388.2 578.498C1411.35 543.659 1414.98 496.43 1396.42 458.945C1383.48 432.804 1359.94 412.304 1332.64 402.236C1304.98 392.036 1273.57 394.288 1247.43 408.011C1232.16 416.029 1218.77 427.679 1208.76 441.728H1208.76Z" stroke="#145A6C" stroke-width="5" stroke-linecap="round" stroke-linejoin="round"/>
<path d="M1291.51 482.007C1291.05 459.778 1290.6 437.549 1290.14 415.32" stroke="#145A6C" stroke-width="5" stroke-linecap="round" stroke-linejoin="round"/>
<path d="M1314.03 488.613C1325.43 469.416 1336.27 449.879 1346.5 430.037" stroke="#145A6C" stroke-width="5" stroke-linecap="round" stroke-linejoin="round"/>
<path d="M1320.93 505.696C1343.27 500.947 1365.42 495.294 1387.31 488.757" stroke="#145A6C" stroke-width="5" stroke-linecap="round" stroke-linejoin="round"/>
<path d="M1226.12 442.614C1241.22 459.393 1256.32 476.173 1271.42 492.953" stroke="#145A6C" stroke-width="5" stroke-linecap="round" stroke-linejoin="round"/>
<path d="M1312.25 523.028C1338.03 533.575 1363.81 544.123 1389.59 554.672" stroke="#145A6C" stroke-width="5" stroke-linecap="round" stroke-linejoin="round"/>
<path d="M1299 532.135C1304.97 559.751 1310.3 587.501 1315 615.359" stroke="#145A6C" stroke-width="5" stroke-linecap="round" stroke-linejoin="round"/>
<path d="M1243.61 600.561C1255.91 576.581 1268.21 552.602 1280.51 528.623" stroke="#145A6C" stroke-width="5" stroke-linecap="round" stroke-linejoin="round"/>
<path d="M1199.42 524.061C1222.82 521.97 1246.16 519.084 1269.37 515.408" stroke="#145A6C" stroke-width="5" stroke-linecap="round" stroke-linejoin="round"/>
<path d="M1167.58 648.148C1168.18 648.916 1169.18 649.252 1170.15 649.186C1171.12 649.12 1172.07 648.65 1172.57 647.807C1175.51 642.832 1163.98 643.612 1167.58 648.148Z" stroke="#145A6C" stroke-width="5" stroke-linecap="round" stroke-linejoin="round"/>
<path d="M1423.06 377.029C1422.41 378.323 1422.77 380.02 1423.84 381C1424.9 381.981 1426.56 382.213 1427.89 381.639C1429.32 381.024 1430.32 379.431 1430.05 377.905C1429.51 374.954 1424.36 374.434 1423.06 377.029Z" stroke="#145A6C" stroke-width="5" stroke-linecap="round" stroke-linejoin="round"/>
<path d="M1421.97 647.521C1421.88 649.377 1423.47 651.151 1425.32 651.276C1427.18 651.401 1428.98 649.856 1429.15 648.005C1429.56 643.306 1422.19 642.787 1421.97 647.521Z" stroke="#145A6C" stroke-width="5" stroke-linecap="round" stroke-linejoin="round"/>
<path d="M1560.42 637.701C1560.14 640.456 1553.53 642.936 1552.43 643.212C1551.32 643.488 1458.18 641.008 1456.8 641.008C1455.42 641.008 1452.66 640.456 1449.91 638.803C1447.15 637.149 1447.15 635.771 1447.15 635.771L1446.33 632.74L1445.77 390.796L1446.88 387.764L1451.56 380.324L1454.04 379.772L1552.15 379.221" stroke="#145A6C" stroke-width="5" stroke-linecap="round" stroke-linejoin="round"/>
<path d="M1556.28 380.812C1558.08 380.794 1559.85 381.775 1560.79 383.304C1561.73 384.834 1561.8 386.858 1560.97 388.451" stroke="#145A6C" stroke-width="5" stroke-linecap="round" stroke-linejoin="round"/>
<path d="M1561.8 390.796L1561.52 635.772" stroke="#145A6C" stroke-width="5" stroke-linecap="round" stroke-linejoin="round"/>
<path d="M1467 462.674C1491.79 463.668 1516.6 464.074 1541.41 463.891" stroke="#145A6C" stroke-width="5" stroke-linecap="round" stroke-linejoin="round"/>
<path d="M1465.06 510.624C1492.07 510.366 1519.08 510.107 1546.09 509.849" stroke="#145A6C" stroke-width="5" stroke-linecap="round" stroke-linejoin="round"/>
<path d="M1466.17 557.507C1491.71 556.928 1517.26 557.234 1542.78 558.426" stroke="#145A6C" stroke-width="5" stroke-linecap="round" stroke-linejoin="round"/>
<path d="M1469.21 602.973C1494.47 603.306 1519.72 603.637 1544.98 603.969" stroke="#145A6C" stroke-width="5" stroke-linecap="round" stroke-linejoin="round"/>
<path d="M1158.5 361.289C1154.86 362.729 1152.21 366.397 1152 370.303" stroke="#145A6C" stroke-width="5" stroke-linecap="round" stroke-linejoin="round"/>
<path d="M1151.82 371.415V648.448" stroke="#145A6C" stroke-width="5" stroke-linecap="round" stroke-linejoin="round"/>
<path d="M1152.31 654.422C1151.64 657.923 1154.88 661.61 1158.44 661.389" stroke="#145A6C" stroke-width="5" stroke-linecap="round" stroke-linejoin="round"/>
<path d="M1159.53 660.205H1579.89C1579.89 660.205 1587.24 659.838 1588.34 657.265V364.066C1588.34 364.066 1588.34 360.393 1585.77 359.29H1572.54" stroke="#145A6C" stroke-width="5" stroke-linecap="round" stroke-linejoin="round"/>
<path d="M1162.11 359.658H1568.5" stroke="#145A6C" stroke-width="5" stroke-linecap="round" stroke-linejoin="round"/>
<path d="M1588.71 650.653L1606.09 633.743C1612.6 627.406 1616.27 618.705 1616.27 609.619V548.779C1616.27 539.039 1612.05 529.776 1604.7 523.382L1587.98 508.83" stroke="#145A6C" stroke-width="5" stroke-linecap="round" stroke-linejoin="round"/>
<path d="M1588.34 404.85H1603.12C1604.7 404.85 1605.98 403.57 1605.98 401.991V394.006C1605.98 393.191 1605.63 392.416 1605.03 391.873L1588.71 377.294" stroke="#145A6C" stroke-width="5" stroke-linecap="round" stroke-linejoin="round"/>
<path d="M1802.38 235.01H1374.68C1372.4 235.025 1370.4 232.705 1370.75 230.452L1370.31 219.105C1369.74 217.377 1371.2 215.302 1373.02 215.261H1802.38" stroke="#145A6C" stroke-width="5" stroke-linecap="round" stroke-linejoin="round"/>
<path d="M1382.39 214.712L1381.29 -49.2769" stroke="#145A6C" stroke-width="5" stroke-linecap="round" stroke-linejoin="round"/>
<path d="M1407.74 -49.2769L1411.05 186.054H1596.25V-49.2769" stroke="#145A6C" stroke-width="5" stroke-linecap="round" stroke-linejoin="round"/>
<path d="M1654.67 -49.2769V183.849L1802.38 185.503" stroke="#145A6C" stroke-width="5" stroke-linecap="round" stroke-linejoin="round"/>
<path d="M1623.25 214.161V-49.2769" stroke="#145A6C" stroke-width="5" stroke-linecap="round" stroke-linejoin="round"/>
<path fill-rule="evenodd" clip-rule="evenodd" d="M1599.55 641.834C1662.94 640.732 1743.2 641.566 1802.38 641.273Z" fill="black"/>
<path d="M1599.55 641.834C1662.94 640.732 1743.2 641.566 1802.38 641.273" stroke="#145A6C" stroke-width="5" stroke-miterlimit="10" stroke-linecap="round"/>
<path fill-rule="evenodd" clip-rule="evenodd" d="M1620.49 597.334C1675.61 596.643 1745.61 597.193 1802.38 596.091Z" fill="black"/>
<path d="M1620.49 597.334C1675.61 596.643 1745.61 597.193 1802.38 596.091" stroke="#145A6C" stroke-width="5" stroke-miterlimit="10" stroke-linecap="round"/>
<path fill-rule="evenodd" clip-rule="evenodd" d="M1622.7 580.456C1676.16 581.049 1748.92 579.515 1802.38 580.108Z" fill="black"/>
<path d="M1622.7 580.456C1676.16 581.049 1748.92 579.515 1802.38 580.108" stroke="#145A6C" stroke-width="5" stroke-miterlimit="10" stroke-linecap="round"/>
<path fill-rule="evenodd" clip-rule="evenodd" d="M1620.51 544.503C1672.86 543.735 1742.3 543.735 1802.38 544.836Z" fill="black"/>
<path d="M1620.51 544.503C1672.86 543.735 1742.3 543.735 1802.38 544.836" stroke="#145A6C" stroke-width="5" stroke-miterlimit="10" stroke-linecap="round"/>
<path fill-rule="evenodd" clip-rule="evenodd" d="M1594.04 506.16C1655.59 504.985 1740.83 507.433 1802.38 506.257Z" fill="black"/>
<path d="M1594.04 506.16C1655.59 504.985 1740.83 507.433 1802.38 506.257" stroke="#145A6C" stroke-width="5" stroke-miterlimit="10" stroke-linecap="round"/>
<path fill-rule="evenodd" clip-rule="evenodd" d="M1591.29 475.877C1655.77 474.843 1729.41 476.011 1802.38 474.813Z" fill="black"/>
<path d="M1591.29 475.877C1655.77 474.843 1729.41 476.011 1802.38 474.813" stroke="#145A6C" stroke-width="5" stroke-miterlimit="10" stroke-linecap="round"/>
<path fill-rule="evenodd" clip-rule="evenodd" d="M1590.73 458.238C1653.57 458.735 1734.59 457.758 1802.38 457.758Z" fill="black"/>
<path d="M1590.73 458.238C1653.57 458.735 1734.59 457.758 1802.38 457.758" stroke="#145A6C" stroke-width="5" stroke-miterlimit="10" stroke-linecap="round"/>
<path fill-rule="evenodd" clip-rule="evenodd" d="M1590.73 424.619C1653.57 425.116 1734.59 424.139 1802.38 424.139Z" fill="black"/>
<path d="M1590.73 424.619C1653.57 425.116 1734.59 424.139 1802.38 424.139" stroke="#145A6C" stroke-width="5" stroke-miterlimit="10" stroke-linecap="round"/>
<path d="M1184.52 661.675L1185.62 676.004" stroke="#145A6C" stroke-width="5" stroke-miterlimit="10" stroke-linecap="round"/>
<path d="M1220.16 661.308L1220.53 676.739" stroke="#145A6C" stroke-width="5" stroke-miterlimit="10" stroke-linecap="round"/>
<path d="M1527.72 662.777V677.106" stroke="#145A6C" stroke-width="5" stroke-miterlimit="10" stroke-linecap="round"/>
<path d="M1564.09 660.205V677.474" stroke="#145A6C" stroke-width="5" stroke-miterlimit="10" stroke-linecap="round"/>
<path fill-rule="evenodd" clip-rule="evenodd" d="M1238.64 741.423C1240.2 741.432 1241.54 740.186 1242.15 738.745C1242.75 737.304 1242.77 735.695 1242.77 734.133C1242.81 720.841 1242.85 707.548 1242.9 694.255C1242.91 690.367 1241.5 684.147 1240.04 680.548C1239.3 678.746 1237.4 677.258 1235.5 677.673L1165.8 678.293C1163.48 679.394 1162 681.8 1161.38 684.294C1160.77 686.787 1160.9 689.396 1161.04 691.96C1161.81 706.243 1162.58 720.527 1163.35 734.811C1163.52 738.116 1164.2 742.132 1167.3 743.275L1238.64 741.423Z" stroke="#145A6C" stroke-width="5" stroke-miterlimit="10" stroke-linecap="round"/>
<path fill-rule="evenodd" clip-rule="evenodd" d="M1579.52 742.038C1581.95 741.391 1583.71 739.168 1584.49 736.776C1585.27 734.384 1585.24 731.814 1585.2 729.299C1585.01 717.02 1584.81 704.74 1584.62 692.461C1584.53 686.92 1583.77 680.259 1578.78 677.841L1508.8 677.169C1506.7 680.685 1506.58 684.993 1506.52 689.088C1506.32 702.067 1506.11 715.046 1505.91 728.025C1505.85 732.333 1505.81 736.81 1507.61 740.726L1579.52 742.039L1579.52 742.038Z" stroke="#145A6C" stroke-width="5" stroke-miterlimit="10" stroke-linecap="round"/>
<path d="M1193.34 678.576L1195.04 699.716C1195.12 700.641 1195.89 701.355 1196.82 701.355H1203.9C1204.79 701.355 1205.55 700.689 1205.66 699.8L1208.4 678.575" stroke="#145A6C" stroke-width="5" stroke-miterlimit="10" stroke-linecap="round"/>
<path d="M1539.47 678.576L1539.81 697.832C1539.83 698.778 1540.58 699.546 1541.53 699.583L1547.69 699.82C1548.65 699.856 1549.46 699.137 1549.54 698.186L1551.23 677.841" stroke="#145A6C" stroke-width="5" stroke-miterlimit="10" stroke-linecap="round"/>
<path d="M1203.63 377.294H1177.54C1174.5 377.294 1172.03 379.762 1172.03 382.805C1172.03 385.849 1174.5 388.316 1177.54 388.316H1203.63C1206.67 388.316 1209.14 385.849 1209.14 382.805C1209.14 379.762 1206.67 377.294 1203.63 377.294Z" stroke="#145A6C" stroke-width="5" stroke-miterlimit="10" stroke-linecap="round"/>
<path d="M1081.88 -49.2769C1081.79 165.478 1079.88 528.486 1079.8 743.242" stroke="#145A6C" stroke-width="5" stroke-miterlimit="10" stroke-linecap="round"/>
<path d="M-251.28 743.445C-214.53 742.154 334.313 742.822 370.993 745.443" stroke="#145A6C" stroke-width="5" stroke-miterlimit="10" stroke-linecap="round"/>
<path d="M378.733 747.158L379.869 746.688" stroke="#145A6C" stroke-width="5" stroke-miterlimit="10" stroke-linecap="round"/>
<path d="M393.594 745.555L405.723 745.063" stroke="#145A6C" stroke-width="5" stroke-miterlimit="10" stroke-linecap="round"/>
<path d="M419.513 745.348C416.113 742.374 415.355 736.816 417.835 733.042C420.315 729.267 425.717 727.755 429.796 729.695C433.876 731.636 436.113 736.779 434.749 741.086C435.125 737.343 438.591 734.169 442.352 734.122C446.114 734.074 449.658 737.16 450.129 740.893C450.037 737.549 453.209 734.487 456.548 734.698C459.886 734.908 462.65 738.343 462.139 741.649C466.084 737.627 474.224 739.961 475.437 745.463C476.725 742.378 479.863 740.155 483.2 739.963C486.537 739.771 489.91 741.62 491.543 744.536C494.717 742.249 499.665 742.994 502.026 746.113" stroke="#145A6C" stroke-width="5" stroke-linecap="round" stroke-linejoin="round"/>
<path d="M516.501 746.548H515.399" stroke="#145A6C" stroke-width="5" stroke-miterlimit="10" stroke-linecap="round"/>
<path d="M530.932 748.623C561.584 747.344 592.235 746.064 622.887 744.784C653.736 743.496 684.758 742.215 715.387 746.107" stroke="#145A6C" stroke-width="5" stroke-miterlimit="10" stroke-linecap="round"/>
<path d="M720.992 745.141L730.906 744.864" stroke="#145A6C" stroke-width="5" stroke-miterlimit="10" stroke-linecap="round"/>
<path d="M739.703 745.401L740.801 744.843" stroke="#145A6C" stroke-width="5" stroke-miterlimit="10" stroke-linecap="round"/>
<path d="M752.917 743.663C821.135 743.663 889.369 743.663 957.59 743.663" stroke="#145A6C" stroke-width="5" stroke-miterlimit="10" stroke-linecap="round"/>
<path d="M1038.69 743.663C1081.48 743.663 1124.29 743.663 1167.09 743.663" stroke="#145A6C" stroke-width="5" stroke-miterlimit="10" stroke-linecap="round"/>
<path d="M1242.58 739.976C1243.68 734.967 1248.52 731.041 1253.65 731.007C1258.77 730.972 1263.67 734.833 1264.83 739.827C1265.38 736.508 1268.94 734.01 1272.25 734.616C1275.56 735.222 1278 738.82 1277.34 742.12C1279.72 739.187 1282.16 736.209 1285.29 734.097C1288.43 731.984 1292.43 730.828 1296.05 731.92C1299.67 733.012 1302.55 736.799 1301.81 740.505C1303.07 734.219 1315.92 741.584 1317.76 742.457C1324.28 745.555 1333.19 744.017 1340.97 743.816C1359.29 743.343 1377.61 742.963 1395.93 742.674C1432.56 742.097 1469.21 741.887 1505.85 742.044" stroke="#145A6C" stroke-width="5" stroke-linecap="round" stroke-linejoin="round"/>
<path d="M1583.58 741.186C1715.12 741.817 1670.84 742.448 1802.38 743.079" stroke="#145A6C" stroke-width="5" stroke-miterlimit="10" stroke-linecap="round"/>
<path d="M1082 700.804H1154.76" stroke="#145A6C" stroke-width="5" stroke-miterlimit="10" stroke-linecap="round"/>
<path d="M1244.6 699.151H1503.1" stroke="#145A6C" stroke-width="5" stroke-miterlimit="10" stroke-linecap="round"/>
<path d="M1586.87 700.804H1802.38" stroke="#145A6C" stroke-width="5" stroke-miterlimit="10" stroke-linecap="round"/>
<path d="M1501.44 182.471V-49.2769" stroke="#145A6C" stroke-width="5" stroke-linecap="round" stroke-linejoin="round"/>
<path d="M1744.51 182.471V-49.2769" stroke="#145A6C" stroke-width="5" stroke-linecap="round" stroke-linejoin="round"/>
<path d="M1414.63 78.5845H1593.21" stroke="#145A6C" stroke-width="5" stroke-linecap="round" stroke-linejoin="round"/>
<path d="M1657.7 78.5845H1836.28" stroke="#145A6C" stroke-width="5" stroke-linecap="round" stroke-linejoin="round"/>
<path d="M1437.98 22.5061L1447.07 9.27331" stroke="#145A6C" stroke-width="5" stroke-linecap="round" stroke-linejoin="round"/>
<path d="M1438.08 40.78C1446.83 29.151 1455.57 17.5228 1464.32 5.89381" stroke="#145A6C" stroke-width="5" stroke-linecap="round" stroke-linejoin="round"/>
<path d="M1678.37 32.29L1686.64 22.3697" stroke="#145A6C" stroke-width="5" stroke-linecap="round" stroke-linejoin="round"/>
<path d="M1675.93 51.3377C1685.56 39.2027 1695.2 27.0678 1704.83 14.9328" stroke="#145A6C" stroke-width="5" stroke-linecap="round" stroke-linejoin="round"/>
<path d="M-251.28 321.15C-243.773 319.907 -234.992 321.411 -228.462 325.315C-218.529 315.021 -200.666 313.757 -189.381 322.549C-183.508 320.562 -176.67 321.718 -171.777 325.525C-166.401 319.42 -158.332 315.778 -150.198 315.784C-142.063 315.791 -134 319.447 -128.635 325.561C-123.237 323.343 -116.862 323.645 -111.698 326.364C-106.462 317.56 -94.4563 313.513 -84.9577 317.347C-74.2735 308.771 -56.9596 310.171 -47.7925 320.352C-44.5359 315.423 -36.0559 315.442 -32.8216 320.386C-32.8216 320.386 -26.4027 308.128 -20.8907 311.435C-15.3787 314.742 2.25846 309.23 6.11693 311.435C9.9754 313.64 19.345 311.435 22.6521 316.395C25.9591 321.355 35.3287 304.27 41.3921 311.987C47.4556 319.703 58.4787 300.964 68.3998 306.475C78.3208 311.986 85.4863 311.435 88.7934 315.844C92.1004 320.253 99.8165 304.822 108.084 309.782C116.352 314.742 124.619 311.987 132.335 314.742C140.051 317.497 144.461 307.026 148.319 313.64C148.319 313.64 166.324 300.321 177.347 305.465C188.37 310.609 190.652 299.619 207.7 313.564C215.87 320.247 229.807 313.347 235.659 322.131C252.084 310.211 275.835 309.476 292.966 320.358C299.968 314.727 310.788 314.494 318.027 319.816C326.943 317.21 336.92 318.478 344.903 323.228C354.236 313.059 371.103 310.903 382.695 318.397C387.073 315.047 394.097 315.965 397.467 320.327C407.223 310.343 422.661 309.278 436.614 308.834C445.735 308.543 456.882 309.397 460.889 317.596C466.557 312.54 474.498 310.136 482.02 311.2C487.92 304.463 498.924 302.946 506.427 307.835C518.43 306.075 531.032 308.726 541.308 315.175C540.654 314.765 548.103 310.599 548.832 310.385C552.029 309.445 555.572 309.495 558.769 310.401C561.846 311.273 564.331 313.866 567.517 314.043C571.903 314.287 575.067 311.344 579.828 313.044C581.202 313.534 582.522 314.263 583.976 314.385C585.995 314.553 587.89 313.535 589.778 312.802C596.958 310.014 603.821 313.29 610.92 311.544C617.572 309.907 624.851 308.052 629.241 315.364C636.747 314.121 644.677 315.625 651.207 319.529C661.14 309.235 679.004 307.971 690.288 316.763C696.161 314.776 703 315.932 707.892 319.739C713.268 313.634 721.337 309.992 729.472 309.998C737.606 310.005 745.669 313.661 751.034 319.775C756.432 317.557 762.807 317.859 767.971 320.578C773.208 311.774 785.213 307.727 794.712 311.561C805.396 302.985 822.71 304.385 831.877 314.566C835.133 309.637 843.613 309.656 846.848 314.6C846.848 314.6 853.267 302.342 858.779 305.649C864.291 308.956 881.928 303.444 885.786 305.649C889.645 307.854 899.014 305.649 902.321 310.609C905.628 315.569 914.998 298.484 921.061 306.201C927.125 313.917 938.148 295.178 948.069 300.689C957.99 306.2 965.156 305.649 968.463 310.058C971.77 314.467 979.486 299.036 987.753 303.996C996.021 308.956 1004.29 306.201 1012 308.956C1019.72 311.711 1024.13 301.24 1027.99 307.854C1031.85 314.468 1047.28 302.894 1051.69 307.854C1056.1 312.814 1067.67 303.996 1073.18 310.059" stroke="#145A6C" stroke-width="5" stroke-linecap="round" stroke-linejoin="round"/>
<path d="M242.584 403.669C243.798 403.89 244.858 404.809 245.25 405.978" stroke="#145A6C" stroke-width="5" stroke-linecap="round" stroke-linejoin="round"/>
<path d="M293.148 485.914L294.819 490.317" stroke="#145A6C" stroke-width="5" stroke-linecap="round" stroke-linejoin="round"/>
<path d="M313.773 590.614L313.226 592.269" stroke="#145A6C" stroke-width="5" stroke-linecap="round" stroke-linejoin="round"/>
<path d="M324.749 408.669L327.506 412.525" stroke="#145A6C" stroke-width="5" stroke-linecap="round" stroke-linejoin="round"/>
<path d="M423.882 408.109C422.852 408.604 422.189 409.771 422.291 410.909" stroke="#145A6C" stroke-width="5" stroke-linecap="round" stroke-linejoin="round"/>
<path d="M417.182 561.987L420.494 567.494" stroke="#145A6C" stroke-width="5" stroke-linecap="round" stroke-linejoin="round"/>
<path d="M451.944 688.164L453.613 691.464" stroke="#145A6C" stroke-width="5" stroke-linecap="round" stroke-linejoin="round"/>
<path d="M558.39 654.51C557.655 656.163 556.92 657.817 556.185 659.47" stroke="#145A6C" stroke-width="5" stroke-linecap="round" stroke-linejoin="round"/>
<path d="M502.722 457.758L501.62 461.065" stroke="#145A6C" stroke-width="5" stroke-linecap="round" stroke-linejoin="round"/>
<path d="M157.138 461.616L156.036 464.923" stroke="#145A6C" stroke-width="5" stroke-linecap="round" stroke-linejoin="round"/>
<path d="M538.548 399.339L541.303 402.646" stroke="#145A6C" stroke-width="5" stroke-linecap="round" stroke-linejoin="round"/>
<path d="M599.728 475.395L602.483 479.803" stroke="#145A6C" stroke-width="5" stroke-linecap="round" stroke-linejoin="round"/>
<path d="M600.131 560.758L597.404 567.383" stroke="#145A6C" stroke-width="5" stroke-linecap="round" stroke-linejoin="round"/>
<path d="M662.561 425.242L665.317 428.549" stroke="#145A6C" stroke-width="5" stroke-linecap="round" stroke-linejoin="round"/>
<path d="M68.9503 654.51C68.2154 656.163 67.4803 657.817 66.7454 659.47" stroke="#145A6C" stroke-width="5" stroke-linecap="round" stroke-linejoin="round"/>
<path d="M13.2825 457.758L12.1804 461.065" stroke="#145A6C" stroke-width="5" stroke-linecap="round" stroke-linejoin="round"/>
<path d="M49.1083 399.339L51.8638 402.646" stroke="#145A6C" stroke-width="5" stroke-linecap="round" stroke-linejoin="round"/>
<path d="M115.249 559.717L118.004 564.126" stroke="#145A6C" stroke-width="5" stroke-linecap="round" stroke-linejoin="round"/>
<path d="M226.586 607.113L223.858 613.738" stroke="#145A6C" stroke-width="5" stroke-linecap="round" stroke-linejoin="round"/>
<path d="M699.49 624.749L697.285 628.607" stroke="#145A6C" stroke-width="5" stroke-linecap="round" stroke-linejoin="round"/>
<path d="M754.607 690.884L751.852 694.742" stroke="#145A6C" stroke-width="5" stroke-linecap="round" stroke-linejoin="round"/>
<path d="M844.451 662.773L848.09 665.293" stroke="#145A6C" stroke-width="5" stroke-linecap="round" stroke-linejoin="round"/>
<path d="M814.134 582.313C813.292 584.245 815.403 586.707 817.441 586.171" stroke="#145A6C" stroke-width="5" stroke-linecap="round" stroke-linejoin="round"/>
<path d="M775.551 509.013C774.633 511.033 773.714 513.054 772.796 515.075" stroke="#145A6C" stroke-width="5" stroke-linecap="round" stroke-linejoin="round"/>
<path d="M866.565 435.679C867.568 437.707 869.326 439.35 871.416 440.215" stroke="#145A6C" stroke-width="5" stroke-linecap="round" stroke-linejoin="round"/>
<path d="M859.882 365.726C857.759 366.243 855.989 368.007 855.465 370.128" stroke="#145A6C" stroke-width="5" stroke-linecap="round" stroke-linejoin="round"/>
<path d="M922.477 403.89L926.412 410.458" stroke="#145A6C" stroke-width="5" stroke-linecap="round" stroke-linejoin="round"/>
<path d="M943.402 476.386C942.622 473.377 942.354 470.014 943.884 467.306C945.414 464.598 949.275 463.076 951.801 464.895C951.169 463.197 950.637 461.424 950.68 459.613C950.722 457.802 951.414 455.933 952.851 454.825C954.287 453.717 956.522 453.589 957.862 454.811" stroke="#145A6C" stroke-width="5" stroke-linecap="round" stroke-linejoin="round"/>
<path d="M977.582 433.379C978.279 431.218 980.375 429.581 982.645 429.422C984.916 429.263 987.219 430.594 988.212 432.636" stroke="#145A6C" stroke-width="5" stroke-linecap="round" stroke-linejoin="round"/>
<path d="M1031.92 456.405C1034.03 456.72 1035.87 458.371 1036.42 460.429C1036.97 462.487 1036.18 464.833 1034.5 466.148" stroke="#145A6C" stroke-width="5" stroke-linecap="round" stroke-linejoin="round"/>
<path d="M945.982 511.802C945.151 514.166 945.739 516.967 947.451 518.8C949.162 520.633 951.923 521.414 954.344 520.753" stroke="#145A6C" stroke-width="5" stroke-linecap="round" stroke-linejoin="round"/>
<path d="M967.905 500.111C969.9 502.799 973.545 504.152 976.816 503.419C980.087 502.686 982.802 499.907 983.453 496.626C988.217 498.609 994.397 495.37 995.464 490.331C994.426 493.38 995.392 497.007 997.811 499.138C1000.23 501.269 1003.96 501.779 1006.86 500.374" stroke="#145A6C" stroke-width="5" stroke-linecap="round" stroke-linejoin="round"/>
<path d="M997.401 551.041C1001.98 553.535 1008.58 550.233 1009.31 545.085C1012.33 547.738 1016.99 548.344 1020.58 546.55C1024.18 544.757 1026.5 540.675 1026.18 536.675C1035.55 537.531 1044.69 529.099 1044.56 519.711C1048.92 520.324 1053.54 518.026 1055.66 514.188C1057.79 510.351 1057.29 505.226 1054.46 501.871C1057.73 498.409 1056.93 492.033 1052.92 489.474C1054.17 487.17 1054.16 484.228 1052.89 481.934C1057.65 480.716 1059.27 473.418 1055.46 470.312C1061.52 467.944 1063.1 459.535 1060.34 453.662C1057.58 447.791 1051.91 443.91 1046.5 440.318C1044.8 439.187 1043.1 438.058 1041.4 436.928C1039.67 428.208 1032.17 420.927 1023.39 419.437C1022.13 410.816 1013.1 404.128 1004.46 405.434C1003.39 401.807 1000.99 398.629 997.935 396.382C993.816 393.346 988.233 392.004 983.424 393.764C978.616 395.523 975.071 400.777 976.09 405.784C970.107 402.458 962.411 399.188 956.871 403.207C954.534 404.903 953.162 407.584 951.333 409.815C948.363 413.439 944.144 415.914 941.33 419.66C938.517 423.405 937.703 429.484 941.47 432.273C937.609 430.084 932.236 431.063 929.4 434.474C924.063 433.488 918.247 435.918 915.207 440.403C912.166 444.889 912.07 451.178 914.973 455.754C911.642 457.265 909.349 460.816 909.349 464.467C909.349 468.118 911.641 471.669 914.972 473.181C914.972 473.181 909.673 483.885 918.515 489.95C920.967 491.632 912.748 492.139 911.726 494.928C910.704 497.717 911.516 501.081 913.699 503.101C911.04 506.52 910.515 511.462 912.397 515.361C914.279 519.261 918.477 521.934 922.814 521.995C924.042 528.012 927.891 533.45 933.163 536.618C938.436 539.787 945.053 540.638 950.958 538.907C950.995 541.062 951.039 543.262 951.776 545.288C952.512 547.314 954.08 549.168 956.183 549.659C957.77 550.03 959.423 549.594 961.053 549.596C964.294 549.599 967.27 551.315 970.447 551.956C973.624 552.597 977.732 551.508 978.42 548.347" stroke="#145A6C" stroke-width="5" stroke-linecap="round" stroke-linejoin="round"/>
<path d="M980.678 660.86C969.397 660.457 958.053 661.805 947.182 664.842C945.112 665.419 942.999 666.091 941.359 667.477C939.72 668.863 938.659 671.142 939.304 673.187C940.193 676.002 944.903 678.243 947.817 678.749C966.724 682.029 986.325 682.704 1005.49 681.642C1017.79 680.96 1033.71 680.918 1045.44 677.141C1047.11 676.601 1050.66 674.545 1051.88 673.284C1053.11 672.023 1052.94 668.866 1052.01 667.374C1051.12 665.958 1049.29 665.527 1047.65 665.239C1033.79 662.809 1013.59 660.879 999.53 661.077" stroke="#145A6C" stroke-width="5" stroke-linecap="round" stroke-linejoin="round"/>
<path d="M939.937 668.63C938.306 669.481 937.939 671.614 937.84 673.447C937.576 678.346 937.867 683.274 938.704 688.109C939.01 689.873 939.74 691.982 941.511 692.268C941.511 692.268 981.893 707.735 1048.21 691.868C1053.33 690.644 1055.05 676.325 1052.2 668.305" stroke="#145A6C" stroke-width="5" stroke-linecap="round" stroke-linejoin="round"/>
<path d="M943.628 693.214C943.628 693.214 955.71 738.053 958.771 742.393C961.832 746.732 970.853 749.625 979.068 750.75C987.284 751.876 993.244 753 993.244 753C993.244 753 1023.53 752.679 1029.65 749.786C1035.77 746.893 1038.03 741.428 1038.03 741.428C1038.03 741.428 1045.76 700.928 1046.89 692.411" stroke="#145A6C" stroke-width="5" stroke-linecap="round" stroke-linejoin="round"/>
<path d="M980.478 502.605C981.371 562.231 982.264 621.856 983.157 681.482" stroke="#145A6C" stroke-width="5" stroke-linecap="round" stroke-linejoin="round"/>
<path d="M997.271 498.428C996.533 556.984 998.183 622.949 1000.01 681.482" stroke="#145A6C" stroke-width="5" stroke-linecap="round" stroke-linejoin="round"/>
<path d="M948.114 705.414C949.099 704.284 950.733 703.95 952.233 704.014C955.138 704.138 958.02 705.614 959.576 708.065C961.132 710.516 961.182 713.914 959.471 716.261C957.761 718.607 954.291 719.579 951.714 718.233" stroke="#145A6C" stroke-width="5" stroke-linecap="round" stroke-linejoin="round"/>
<path d="M988.514 715.845C989.4 720.001 993.916 723.023 998.107 722.264C1002.3 721.505 1005.46 717.094 1004.83 712.892C1004.2 708.752 999.385 704.89 995.088 705.667C990.792 706.444 987.641 711.751 988.514 715.845Z" stroke="#145A6C" stroke-width="5" stroke-linecap="round" stroke-linejoin="round"/>
<path d="M1044.6 706.643C1043.15 704.231 1039.94 703.158 1037.22 703.881C1034.49 704.604 1032.34 706.902 1031.43 709.565C1030.43 712.491 1030.92 715.972 1032.99 718.266C1035.07 720.56 1038.77 721.36 1041.44 719.803" stroke="#145A6C" stroke-width="5" stroke-linecap="round" stroke-linejoin="round"/>
</svg>
