<svg width="109" height="144" viewBox="0 0 109 144" fill="none" xmlns="http://www.w3.org/2000/svg">
<path d="M51.7507 81.751C57.8372 81.6579 63.9237 81.5648 70.0095 81.4717" stroke="#145A6C" stroke-width="5" stroke-linecap="round" stroke-linejoin="round"/>
<path d="M45.2049 71.8464C44.084 71.2016 43.447 69.9899 42.7278 68.9168C42.0086 67.8436 40.9965 66.7768 39.7028 66.7362C36.7087 66.6424 34.5778 71.0238 32.4118 72.6346C30.2928 74.2096 27.56 74.8012 25.2479 76.0416C19.3538 79.2036 14.7022 84.71 12.8108 91.132" stroke="#145A6C" stroke-width="5" stroke-linecap="round" stroke-linejoin="round"/>
<path d="M10.5161 91.6094C8.32271 91.6206 5.79217 91.7942 4.49846 93.5604C3.68234 94.6748 3.59665 96.1442 3.54116 97.5232L3.16541 106.851C3.13802 107.534 3.21458 108.226 3.46882 108.86C4.6607 111.832 7.8999 110.938 9.47315 113.304C11.4306 116.247 12.9673 119.335 15.3496 122C16.5612 123.354 17.9195 124.59 19.4253 125.614C20.9866 126.675 23.2461 127.009 24.6648 128.09C26.4094 129.419 25.2765 132.223 26.1116 133.795C26.566 134.65 26.7142 135.645 26.3413 136.538C25.6762 138.131 26.6897 139.695 28.1772 139.919C32.0106 140.496 35.9318 140.494 39.7645 139.908C40.2807 139.829 40.8362 139.718 41.1874 139.332C41.5758 138.905 41.5976 138.271 41.599 137.695C41.6018 136.124 41.6039 134.553 41.6046 132.982C41.6046 131.79 42.6799 130.882 43.8591 131.084C49.2594 132.011 63.3891 133.999 75.4729 131.91" stroke="#145A6C" stroke-width="5" stroke-linecap="round" stroke-linejoin="round"/>
<path d="M78.5688 131.296C78.8912 132.386 78.6068 133.548 78.54 134.682C78.4733 135.816 78.7353 137.13 79.7298 137.684C80.2502 137.975 80.8739 137.996 81.4702 138.001C85.0606 138.029 88.6545 137.67 92.1676 136.932C93.0378 136.75 93.9621 136.51 94.5485 135.843C95.9336 134.269 94.5064 131.676 95.3401 129.754" stroke="#145A6C" stroke-width="5" stroke-linecap="round" stroke-linejoin="round"/>
<path d="M46.1304 72.3399C55.2131 72.0746 64.3203 72.6297 73.3033 73.9961C78.783 74.8298 84.349 76.0157 89.0512 78.9404C94.9073 82.5833 98.8889 88.6042 101.754 94.8645C104.48 100.823 106.383 107.361 105.7 113.875C105.018 120.389 101.358 126.854 95.3891 129.592" stroke="#145A6C" stroke-width="5" stroke-linecap="round" stroke-linejoin="round"/>
<path d="M38.9512 93.3315V93.4869" stroke="#145A6C" stroke-width="5" stroke-linecap="round" stroke-linejoin="round"/>
<path d="M27.4019 89.5198V89.6752" stroke="#145A6C" stroke-width="5" stroke-linecap="round" stroke-linejoin="round"/>
<path d="M58.562 23.5371C64.0698 22.697 68.7158 26.2952 70.4751 30.727C72.2345 35.1589 70.8523 40.6372 67.2001 43.7131C63.5479 46.789 57.8969 47.2322 53.8072 44.7632C49.7174 42.2942 47.4924 37.0986 48.5347 32.447C49.5769 27.7953 53.8079 24.0362 58.5627 23.5364L58.562 23.5371Z" stroke="#145A6C" stroke-width="5" stroke-linecap="round" stroke-linejoin="round"/>
<path d="M51.5273 15.4049L51.4226 12.9261" stroke="#145A6C" stroke-width="5" stroke-linecap="round" stroke-linejoin="round"/>
<path d="M58.9412 14.5299L58.7832 3.65012" stroke="#145A6C" stroke-width="5" stroke-linecap="round" stroke-linejoin="round"/>
<path d="M66.4367 15.2593L66.3047 12.6027" stroke="#145A6C" stroke-width="5" stroke-linecap="round" stroke-linejoin="round"/>
</svg>
