<svg width="189" height="144" viewBox="0 0 189 144" fill="none" xmlns="http://www.w3.org/2000/svg">
<path d="M91.8617 140.083H84.4955C83.4325 140.083 82.5699 139.214 82.5699 138.142V123.798H78.1447C76.6869 123.798 76.0375 121.952 77.1691 121.027L95.1818 106.294C97.2106 104.634 100.104 104.593 102.179 106.194L121.318 120.965C122.522 121.893 121.82 123.825 120.306 123.761C118.226 123.675 116.304 123.709 116.304 124.136V138.141C116.304 139.213 115.442 140.082 114.378 140.082H103.497V128.987C103.497 128.218 102.878 127.595 102.116 127.595H94.9166C94.1535 127.595 93.5357 128.219 93.5357 128.987V132.067" stroke="#145A6C" stroke-width="5" stroke-linecap="round" stroke-linejoin="round"/>
<path d="M72.3582 109.624H44.6513C44.6513 109.624 36.0729 109.363 35.6947 100.343C35.4438 94.3528 38.2056 90.894 42.8938 90.0496" stroke="#145A6C" stroke-width="5" stroke-linecap="round" stroke-linejoin="round"/>
<path d="M123.336 110.299H142.756C142.756 110.299 153.805 108.864 153.805 100.005C153.805 91.1453 147.695 88.0236 147.695 88.0236C147.695 88.0236 155.601 61.14 126.266 49.1278C102.159 39.2561 88.4312 55.3712 88.4312 55.3712" stroke="#145A6C" stroke-width="5" stroke-linecap="round" stroke-linejoin="round"/>
<path d="M51.2644 88.0244H51.6072C52.5278 88.0244 53.3535 87.4533 53.6729 86.5831C55.5683 81.4195 63.4024 64.1464 83.4078 64.1464C106.929 64.1464 107.766 81.3587 107.766 81.3587" stroke="#145A6C" stroke-width="5" stroke-linecap="round" stroke-linejoin="round"/>
<path d="M23.0316 105.579L22.8613 104.821" stroke="#145A6C" stroke-width="5" stroke-linecap="round" stroke-linejoin="round"/>
<path d="M3.47452 104.643C3.36679 104.406 3.36152 104.124 3.46096 103.884" stroke="#145A6C" stroke-width="5" stroke-linecap="round" stroke-linejoin="round"/>
<path d="M15.1199 91.7338L15.2984 92.8288" stroke="#145A6C" stroke-width="5" stroke-linecap="round" stroke-linejoin="round"/>
<path d="M10.165 75.9589L10.2487 76.4654" stroke="#145A6C" stroke-width="5" stroke-linecap="round" stroke-linejoin="round"/>
<path d="M28.5649 83.3862L28.6342 83.8942" stroke="#145A6C" stroke-width="5" stroke-linecap="round" stroke-linejoin="round"/>
<path d="M43.5967 69.9608L43.6569 70.2197" stroke="#145A6C" stroke-width="5" stroke-linecap="round" stroke-linejoin="round"/>
<path d="M27.0139 64.3947L27.0742 64.6536" stroke="#145A6C" stroke-width="5" stroke-linecap="round" stroke-linejoin="round"/>
<path d="M23.8127 46.6811C23.8369 46.8899 23.9627 47.0836 24.142 47.1906" stroke="#145A6C" stroke-width="5" stroke-linecap="round" stroke-linejoin="round"/>
<path d="M40.9741 52.5001C40.9982 52.7089 41.124 52.9025 41.3033 53.0096" stroke="#145A6C" stroke-width="5" stroke-linecap="round" stroke-linejoin="round"/>
<path d="M41.4706 35.6287L41.387 36.5566" stroke="#145A6C" stroke-width="5" stroke-linecap="round" stroke-linejoin="round"/>
<path d="M57.9609 58.8316L58.1282 59.4224" stroke="#145A6C" stroke-width="5" stroke-linecap="round" stroke-linejoin="round"/>
<path d="M57.4441 39.7694L57.6159 40.1894" stroke="#145A6C" stroke-width="5" stroke-linecap="round" stroke-linejoin="round"/>
<path d="M76.2931 41.1127L76.0422 41.7878" stroke="#145A6C" stroke-width="5" stroke-linecap="round" stroke-linejoin="round"/>
<path d="M66.415 17.9948L66.6659 18.5856" stroke="#145A6C" stroke-width="5" stroke-linecap="round" stroke-linejoin="round"/>
<path d="M88.5975 23.0575L88.3467 23.6483" stroke="#145A6C" stroke-width="5" stroke-linecap="round" stroke-linejoin="round"/>
<path d="M92.2971 3.91711C92.2097 4.03709 92.2994 4.23908 92.4463 4.25199" stroke="#145A6C" stroke-width="5" stroke-linecap="round" stroke-linejoin="round"/>
<path d="M110.177 14.6119L109.931 15.1207" stroke="#145A6C" stroke-width="5" stroke-linecap="round" stroke-linejoin="round"/>
<path d="M114.128 35.0379V35.4601" stroke="#145A6C" stroke-width="5" stroke-linecap="round" stroke-linejoin="round"/>
<path d="M130.09 24.1411L129.763 24.8199" stroke="#145A6C" stroke-width="5" stroke-linecap="round" stroke-linejoin="round"/>
<path d="M131.493 5.00223L131.475 5.76083" stroke="#145A6C" stroke-width="5" stroke-linecap="round" stroke-linejoin="round"/>
<path d="M151.126 22.4667L150.624 23.0575" stroke="#145A6C" stroke-width="5" stroke-linecap="round" stroke-linejoin="round"/>
<path d="M139.401 43.1364L138.98 44.4015" stroke="#145A6C" stroke-width="5" stroke-linecap="round" stroke-linejoin="round"/>
<path d="M157.981 43.5647C157.875 43.3642 157.962 43.0833 158.162 42.9785" stroke="#145A6C" stroke-width="5" stroke-linecap="round" stroke-linejoin="round"/>
<path d="M156.567 65.3279L156.986 64.7371" stroke="#145A6C" stroke-width="5" stroke-linecap="round" stroke-linejoin="round"/>
<path d="M176.656 52.5874L177.159 52.0809" stroke="#145A6C" stroke-width="5" stroke-linecap="round" stroke-linejoin="round"/>
<path d="M175.063 72.2373L174.478 72.4074" stroke="#145A6C" stroke-width="5" stroke-linecap="round" stroke-linejoin="round"/>
<path d="M163.096 86.5899H163.598" stroke="#145A6C" stroke-width="5" stroke-linecap="round" stroke-linejoin="round"/>
<path d="M173.463 102.781C173.257 103.07 172.908 103.252 172.555 103.255" stroke="#145A6C" stroke-width="5" stroke-linecap="round" stroke-linejoin="round"/>
<path d="M185.61 88.4374L185.108 88.6075" stroke="#145A6C" stroke-width="5" stroke-linecap="round" stroke-linejoin="round"/>
</svg>
