<?xml version="1.0" encoding="utf-8"?>
<!-- Generator: Adobe Illustrator 27.5.0, SVG Export Plug-In . SVG Version: 6.00 Build 0)  -->
<svg version="1.1" id="Layer_1" xmlns="http://www.w3.org/2000/svg" xmlns:xlink="http://www.w3.org/1999/xlink" x="0px" y="0px"
	 viewBox="0 0 310 190" style="enable-background:new 0 0 310 190;" xml:space="preserve">
<style type="text/css">
	.st0{fill:none;stroke:#145A6C;stroke-width:5;stroke-linecap:round;stroke-miterlimit:10;}
</style>
<g>
	<g>
		<path class="st0" d="M8.2,155.8l-1-137.5c0,0-0.6-7.5,6.8-7.5"/>
		<path class="st0" d="M8.5,160.4c0,0-1,5.9,3.9,5.9c4.6,0,199.3,0.9,217.5,1c0.9,0,1.8,0.1,2.7,0.3c0.8,0.2,1.7,0.3,2.6,0.3
			l21.4,0.3"/>
		<path class="st0" d="M18.3,10.5l236.4,0.3"/>
		<path class="st0" d="M257.6,11.1c0,0,3.6,0.2,4.2,4.4"/>
		<path class="st0" d="M262.3,162.3l-0.2-141.3"/>
		<path class="st0" d="M16.5,2.5c0,0-6.2-0.8-6.2,8.5"/>
		<path class="st0" d="M20.5,2.2H255c0,0,5.5,0.5,5.5,8"/>
		<path class="st0" d="M10.9,167.4H9.2c-2.3,0-4.2,1.6-4.7,3.8l-2.1,9.6c-0.6,2.6,1.3,5.2,4,5.4l3.7,0.3c1.1,0.1,2.1-0.4,2.8-1.3
			l3.1-4.2c0.8-1.1,2.1-1.8,3.5-1.8l223.4-0.2"/>
		<path class="st0" d="M248.6,179.2l2.2,0.3c1.4,0.2,2.5,1.2,2.7,2.5l0.7,3.8c0.2,1.2,1.2,2,2.4,2h7.8c1.9,0,3.4-1.5,3.4-3.4
			l0.3-11.6c0.1-2.3-1.5-4.2-3.8-4.6l-2-0.4"/>
		<path class="st0" d="M262.4,100h55.1"/>
		<path class="st0" d="M262.4,150.5h55.1"/>
		<path class="st0" d="M262.4,121.9h57.6"/>
		<path class="st0" d="M266.7,132.5h55.1"/>
		<path class="st0" d="M31.3,26.2c-2.3-0.3-4.5,1.4-5.6,3.4c-1.1,2-1.4,4.4-1.6,6.7"/>
		<path class="st0" d="M25.3,150.3c0.1,1,0.2,2.1,0.7,3c0.5,0.9,1.4,1.6,2.4,1.5"/>
		<path class="st0" d="M147.8,27.8c3.2,0.8,6.5,2.5,7.7,5.5c0.5,1.4,0.5,2.8,0.5,4.3c0.3,37.9,0.1,75.8-0.6,113.6c0,1-0.1,2.1-0.5,3
			c-0.5,0.9-1.5,1.6-2.5,1.3"/>
		<path class="st0" d="M35.8,26.1h107.5"/>
		<path class="st0" d="M23.9,39.8l-0.6,107.7"/>
		<path class="st0" d="M35.1,156.6c12.8,0,25.7,0,38.5-0.1c5,0,10.1,0,15.1,0c13.1,0,26.3,0,39.4-0.1c6.9,0,13.8,0,20.7,0"/>
		<path class="st0" d="M81.6,38.1c-13.8,2.5-26,11.7-33.2,23.7c-9.5,16-10.1,37-1.6,53.5c8.6,16.5,24.2,25.4,45.6,26.7
			c41.5,2.6,52.1-42.5,47.3-66.1c-1.6-8.2-5.9-16.9-11.5-23.1c-5.8-6.4-13.6-10.7-21.9-12.9c-8.3-2.2-17.1-2.4-25.6-1.5"/>
		<path class="st0" d="M69.3,54.2c15.2,1.2,30.4,1.3,45.6,0.2"/>
		<path class="st0" d="M57.3,65.5c21.4-2.6,43.1,0.1,64.6-1.8"/>
		<path class="st0" d="M57,77.6c8.6-0.8,17.2-1,25.8-0.8c15.6,0.4,31.1,2.4,46.6,1"/>
		<path class="st0" d="M52.6,91c25.4-0.1,50.7,0.1,76.1,0.5"/>
		<path class="st0" d="M57.6,103.3c22.3-1.8,44.8-2,67.2-0.6"/>
		<path class="st0" d="M69.3,115.4c16.3-1.1,32.6-1.5,48.9-1.2"/>
		<path class="st0" d="M84.4,125.6c6.2,0.5,12.5,0.3,18.6-0.6"/>
	</g>
</g>
</svg>
