<svg width="151" height="144" viewBox="0 0 151 144" fill="none" xmlns="http://www.w3.org/2000/svg">
<path d="M60.3443 33.0946L13.624 34.3786C11.4853 33.9102 10.0678 31.9318 8.85833 30.1023C7.27182 27.7023 5.68462 25.3017 4.09811 22.9018C3.49854 21.9946 2.8708 20.931 3.1675 19.884C3.33988 19.2737 3.80073 18.7949 4.24509 18.3437L10.2718 12.2199C11.1316 11.3465 12.2971 10.8443 13.5203 10.8202L60.3457 9.90405" stroke="#145A6C" stroke-width="5" stroke-miterlimit="10" stroke-linecap="round"/>
<path d="M69.3043 14.0364C69.397 12.0519 69.1546 8.10412 69.3922 5.90189C69.542 4.51732 70.7583 3.50403 72.1429 3.60667L79.8975 4.45946C81.4009 4.57105 82.5589 5.83714 82.5397 7.34915L82.335 23.6802" stroke="#145A6C" stroke-width="5" stroke-miterlimit="10" stroke-linecap="round"/>
<path d="M67.8992 22.1406V24.5219" stroke="#145A6C" stroke-width="5" stroke-miterlimit="10" stroke-linecap="round"/>
<path d="M67.6705 28.3492L67.5173 112.464" stroke="#145A6C" stroke-width="5" stroke-miterlimit="10" stroke-linecap="round"/>
<path d="M83.4668 112.541L82.8562 30.9516" stroke="#145A6C" stroke-width="5" stroke-miterlimit="10" stroke-linecap="round"/>
<path d="M89.3425 33.4004L130.612 33.6932C131.801 33.7014 132.943 34.1519 133.82 34.9572L147.205 47.2634C148.141 48.1237 148.145 49.602 147.214 50.4678L136.586 60.3582C135.7 61.1835 134.534 61.6422 133.324 61.6422H91.9379" stroke="#145A6C" stroke-width="5" stroke-miterlimit="10" stroke-linecap="round"/>
<path d="M87.9571 124.369L55.9426 123.306C55.2152 123.282 54.4556 123.249 53.8217 122.891C52.4316 122.107 52.2531 120.208 52.24 118.609C52.229 117.234 52.3245 115.638 53.4398 114.839C54.0916 114.372 54.9384 114.308 55.7386 114.261C68.1168 113.548 80.5273 113.328 92.9172 113.803C93.5662 113.827 94.264 113.872 94.7715 114.279C95.424 114.802 95.5407 115.735 95.608 116.57C95.7461 118.275 95.8841 119.982 96.0222 121.687C96.0785 122.381 96.1279 123.114 95.823 123.741C95.5181 124.367 94.7241 124.809 94.1108 124.482" stroke="#145A6C" stroke-width="5" stroke-miterlimit="10" stroke-linecap="round"/>
<path d="M113.619 124.616C112.243 122.067 113.167 118.521 115.612 116.973C118.056 115.426 121.645 116.114 123.348 118.456C122.453 116.658 123 114.251 124.604 113.047C126.208 111.843 128.691 112.008 130.098 113.438C131.506 114.868 131.628 117.389 130.34 118.928C131.776 118.672 133.245 118.416 134.684 118.656C136.122 118.897 137.548 119.736 138.091 121.094C138.633 122.452 137.958 124.288 136.544 124.643" stroke="#145A6C" stroke-width="5" stroke-linecap="round" stroke-linejoin="round"/>
<path d="M9.51978 123.982C41.671 124.292 27.7351 123.252 59.8863 123.562" stroke="#145A6C" stroke-width="5" stroke-linecap="round" stroke-linejoin="round"/>
<path d="M138.941 125.16C146.34 125.569 140.004 125.289 147.403 125.699C147.025 125.676 146.648 125.652 146.271 125.629" stroke="#145A6C" stroke-width="5" stroke-linecap="round" stroke-linejoin="round"/>
<path d="M105.364 125.16C112.763 125.569 106.22 124.207 113.619 124.616" stroke="#145A6C" stroke-width="5" stroke-linecap="round" stroke-linejoin="round"/>
<path d="M88.8843 140.4C100.789 140.4 112.694 140.4 124.598 140.4" stroke="#145A6C" stroke-width="5" stroke-linecap="round" stroke-linejoin="round"/>
<path d="M74.8435 140.4C75.7198 140.093 76.6917 140.069 77.5817 140.332C76.4657 140.355 75.349 140.377 74.2329 140.4" stroke="#145A6C" stroke-width="5" stroke-linecap="round" stroke-linejoin="round"/>
</svg>
