<?xml version="1.0" encoding="utf-8"?>
<!-- Generator: Adobe Illustrator 27.5.0, SVG Export Plug-In . SVG Version: 6.00 Build 0)  -->
<svg version="1.1" id="Layer_1" xmlns="http://www.w3.org/2000/svg" xmlns:xlink="http://www.w3.org/1999/xlink" x="0px" y="0px"
	 viewBox="0 0 420 270.1" style="enable-background:new 0 0 420 270.1;" xml:space="preserve">
<style type="text/css">
	.st0{fill:none;stroke:#145A6C;stroke-width:5;stroke-linecap:round;stroke-linejoin:round;}
</style>
<g>
	<g>
		<g>
			<path class="st0" d="M84.7,160.8c-0.1,14.7-0.3,29.4-0.4,44.2"/>
			<path class="st0" d="M57,213.2c0-2.3,1.6-4.5,3.8-5.2c0.9-0.3,1.9-0.3,2.9-0.1c1.9,0.5,3.9,0,5.6-0.9c0.7-0.4,1.5-0.6,2.2-0.7
				c2.1-0.3,4.2,0.2,6.3,0c1.8-0.1,3.5-0.7,5.3-0.9c1.1-0.1,2.3,0,3.4,0.4c1.1,0.5,2.3,0.5,3.5,0.2c1.3-0.3,2.7-0.2,3.9,0.3
				c1.4,0.6,3,0.5,4.4-0.2c1.8-0.9,3.9-1,5.8-0.3c1.4,0.5,3,0.5,4.4-0.1c2.9-1.4,6.8-0.7,8.8,1.9"/>
			<path class="st0" d="M123.5,208.1c2.6-3.4,7.8-4.3,11.6-2.4c1.4,0.7,3.1,0.7,4.4-0.2c1.6-1.2,3.8-1.6,5.7-1.1
				c1.6,0.4,3.2,0,4.6-0.8c1.2-0.7,2.6-1,3.9-0.9c2.2,0.2,4.5-0.1,6.6-1c2.1-0.8,4.4-0.9,6.5,0c2.3,1,4.3,3,6.8,3.2
				c1.7,0.1,3.3-0.6,5-1c1-0.2,2.1-0.1,3,0.2c1.1,0.4,2.3,0.5,3.4-0.1c2.3-1.1,5.4-0.9,7.5,0.6c1.2,0.8,2.7,0.8,4,0.2
				c1.6-0.7,3.5-0.7,5-0.1c1.3,0.5,2.8,0.3,4-0.5c0.2-0.1,0.4-0.2,0.6-0.3c1.2-0.5,2.6-0.4,3.9-0.3l9.7,0.7h2.2c2,0,4,0.3,5.9,0.7
				c0.6,0.1,1.2,0.1,1.8,0c4-0.5,8.4,1.8,9.7,5.7c3.4,3.6,4.3,9.4,2.1,13.9c0.4,4.3,0.7,8.5,1.1,12.8c0.1,1,0.2,2.1,0.1,3.1
				c-0.2,2.2-0.3,4.3,0,6.5l0.3,2.2c0.3,2.5,0.3,5,0.1,7.6c0,0.3,0,0.7,0,1.1c0.1,1.3-0.3,2.7-1.2,3.7"/>
			<path class="st0" d="M56.6,214.2c-0.8,15.6-0.6,31.3,0.4,46.9c0.1,0.9,0.1,1.9,0.6,2.6c0.5,0.8,1.6,1.2,2.3,0.8"/>
			<path class="st0" d="M65.6,266.6c1.4-2.3,4.5-1.4,6.7-1.4c3.6,0,7.3,0.1,10.9,0.1c7.1,0.1,14.2,0.1,21.2,0.2l42.5,0.3"/>
			<path class="st0" d="M154.4,267c42.1-2.5,84.3-3.3,126.4-2.1"/>
			<path class="st0" d="M285.9,264.8c38.1,0.1,76.3,0.2,114.4,0.4c11.3,0,22.5,0.1,33.8,0.1l17.2,0.1c3.7,0,10.5,1.3,11.7-3.8V160.7
				"/>
			<path class="st0" d="M283.9,184.8c-9.8,0.4-20.9-0.3-30.7,0.1c0,0-1.2-3.9,0.8-6.9c4.1-6.2,13.9-11,22.5-7.1
				C287.3,175.7,283.9,184.8,283.9,184.8z"/>
			<path class="st0" d="M259.3,172.9l10,9.4l8.9-10.5"/>
			<path class="st0" d="M216.1,204.1v-43.4l-142.7,0.1l153.5-71.5h84.9l159,71.5L326.5,160l0.3,104.3"/>
			<path class="st0" d="M269.4,125c-8.1,4.8-37.3,21.8-51.8,30.2c-2.3,1.3-1.4,4.9,1.3,4.9l105.8,0.6c2.7,0,3.6-3.5,1.3-4.9
				L273.7,125C272.3,124.2,270.7,124.2,269.4,125z"/>
			<path class="st0" d="M241.1,160.7v51.8"/>
			<path class="st0" d="M298,160.7v103.6"/>
			<path class="st0" d="M260.7,220.2c0,0-0.2,7.4,0,7.4h15v-7.4H260.7z"/>
			<path class="st0" d="M234.1,147.7h58.6"/>
			<path class="st0" d="M290.1,134.7h-21.9"/>
			<path class="st0" d="M203.1,99.8l0.2-12.6c0-0.5,0-1.1-0.2-1.6s-0.7-0.9-1.2-0.9c-0.9-0.1-26.9,0.1-33.5,0.2
				c-0.8,0-1.5,0.7-1.5,1.5l-0.4,30.2"/>
			<path class="st0" d="M171.7,84.8l-0.1-6.6c0-0.6,0-1.2,0.3-1.6c0.5-0.6,1.3-0.7,2.1-0.7c2,0,4.4-0.3,6.5-0.2
				c0.8,0,1.4,0.7,1.4,1.5c0,2.3,0,5,0,7.2"/>
			<path class="st0" d="M190.1,84.3c-0.2-4.2-0.5-8.4-0.7-12.7c0-0.5,0-1.2,0.3-1.6c0.4-0.5,1.1-0.6,1.7-0.6c2-0.1,3.9-0.2,5.9-0.3
				c0.6,0,1.2,0,1.7,0.3c0.5,0.4,0.5,1.1,0.6,1.8c0.2,4.2,0.4,8.4,0.5,12.6"/>
			<path class="st0" d="M356.3,224c-0.9,0-1.8-0.5-2.1-1.4c-0.3-0.8-0.4-1.7-0.4-2.6c-0.1-12-0.2-24-0.2-36c0-0.8,0.1-1.7,0.3-2.4
				c0.3-0.9,1.2-1.5,2.1-1.4l75.5,0.5c0.3,0,0.7,0.1,1,0.2c0.6,0.3,1.1,1,1.3,1.6c0.3,0.9,0.3,1.8,0.3,2.7
				c-0.1,11.1-0.1,22.1-0.2,33.2c0,1,0,2-0.4,3c-0.3,0.9-0.9,1.6-1.8,1.9c-0.2,0.1-0.4,0.1-0.6,0.1L356.3,224z"/>
			<path class="st0" d="M378.8,180.4l-0.3,43.5"/>
			<path class="st0" d="M404.3,180.6l0.2,43.1"/>
			<path class="st0" d="M378.7,194h24.9"/>
			<path class="st0" d="M110.2,202.1c0.1-6.3,0.2-12.6,0.3-18.9c0-1.9-0.6-5.4,1-6.8c1.2-1.1,3.3-0.7,4.7-0.7l62.7,0.4
				c2.6,0.1,3.4,0.6,3.3,3.5c-0.1,7.7-0.1,15.4-0.2,23.1"/>
			<path class="st0" d="M134,176.8l-0.1,28.2"/>
			<path class="st0" d="M157.6,175.9l-0.4,26.6"/>
			<path class="st0" d="M133.9,189.2h23.4"/>
			<path class="st0" d="M327.3,253.7l134.6-0.9"/>
			<path class="st0" d="M77.7,226l1,0.6"/>
			<path class="st0" d="M98.8,218.8l0.3,0.7"/>
			<path class="st0" d="M95.1,244l0.2,0.6"/>
			<path class="st0" d="M128.3,231.3l-0.1,0.9"/>
			<path class="st0" d="M137.9,251.3l-0.1,0.9"/>
			<path class="st0" d="M162.9,219.7l0.3,0.6"/>
			<path class="st0" d="M176.8,232.3l-0.1,1"/>
			<path class="st0" d="M174.7,250.9l0.3,0.6"/>
			<path class="st0" d="M199.6,228l-0.2,0.7"/>
			<path class="st0" d="M219.5,248.4l0.1,0.6"/>
			<path class="st0" d="M226.8,225.1l-0.6,0.9"/>
		</g>
	</g>
</g>
<g>
	<g>
		<g>
			<path class="st0" d="M54.3,39.4c-4.5,0.7-8.7,3.1-11.4,6.8c-2.7,3.7-3.5,8.7-1.8,12.9s6.1,7.3,10.6,7c3.1-0.2,5.9-1.8,8-4.1
				c2-2.3,3.3-5.2,3.9-8.3c0.7-3.2,0.6-6.8-0.9-9.7c-1.6-2.9-4.9-5-8.1-4.4"/>
			<path class="st0" d="M75.9,59.8c-0.1,0-0.1,0.2,0,0.2"/>
			<path class="st0" d="M34.4,73.9v-0.2"/>
			<path class="st0" d="M30.1,52.8v-0.2"/>
			<path class="st0" d="M36.8,34.6L36.8,34.6"/>
			<path class="st0" d="M48.7,29.2L48.7,29.2"/>
			<path class="st0" d="M64,31.7L64,31.7"/>
			<path class="st0" d="M72.7,39.4L72.7,39.4"/>
			<path class="st0" d="M66.5,75.5L66.5,75.5"/>
			<path class="st0" d="M48.7,80.8L48.7,80.8"/>
		</g>
	</g>
</g>
</svg>
