<svg width="187" height="164" viewBox="0 0 187 164" fill="none" xmlns="http://www.w3.org/2000/svg">
<path d="M12.9102 120.257L12.6641 111.683C12.6445 111.006 12.6474 110.261 13.0854 109.743C13.7458 108.963 14.9767 109.129 15.961 109.408C18.5244 110.134 21.003 111.157 23.3341 112.446C24.2285 112.94 25.2618 113.912 26.2876 114.034C27.4787 114.177 29.2676 113.322 30.4518 113.071C35.5929 111.983 40.8561 111.514 46.109 111.657C48.7346 111.728 49.1017 110.746 50.834 108.848C52.5006 107.023 54.3136 105.331 56.2511 103.795C57.0839 103.134 58.1362 102.468 59.1395 102.818C60.2517 103.207 60.6027 104.587 60.7087 105.759C60.9421 108.343 60.7934 110.96 60.269 113.501" stroke="#145A6C" stroke-width="4" stroke-miterlimit="10" stroke-linecap="round"/>
<path d="M68.1389 143.116C58.6785 149.501 47.3896 153.15 35.9779 153.509C28.8948 153.733 21.7782 152.688 15.046 150.483C11.6384 149.367 8.32758 147.953 5.16952 146.255C3.58761 145.405 2.74219 145.036 2.2777 143.209C1.88006 141.644 1.96478 139.98 2.1878 138.396C3.20668 131.155 7.18192 124.374 13.0053 119.943" stroke="#145A6C" stroke-width="4" stroke-miterlimit="10" stroke-linecap="round"/>
<path d="M60.2748 113.86C64.9934 119.31 68.1463 126.097 69.2678 133.216C69.8158 136.696 69.8164 140.51 67.8541 143.437" stroke="#145A6C" stroke-width="4" stroke-miterlimit="10" stroke-linecap="round"/>
<path d="M9.85819 148.761C8.47394 148.775 7.12831 149.598 6.48575 150.823C5.84318 152.047 5.93136 153.621 6.70704 154.767C7.46889 155.892 8.76843 156.535 10.0674 156.939C14.2178 158.23 18.6927 157.547 23.0298 157.836" stroke="#145A6C" stroke-width="4" stroke-miterlimit="10" stroke-linecap="round"/>
<path d="M30.9745 153.478C27.1048 153.081 23.1255 154.284 23.0615 155.858C22.9976 157.432 24.2008 158.835 25.6295 159.501C27.0581 160.167 28.6798 160.25 30.2548 160.32C39.5659 160.74 49.0723 161.138 58.0307 158.567" stroke="#145A6C" stroke-width="4" stroke-miterlimit="10" stroke-linecap="round"/>
<path d="M34.521 111.87C49.8618 98.416 69.7541 89.5073 90.1657 89.8066C110.577 90.106 131.182 100.475 141.402 118.128C143.279 121.37 144.84 125.035 144.399 128.755C144.246 130.043 143.762 131.56 143.08 133.137C140.573 138.941 136.158 143.727 130.681 146.893C109.643 159.055 84.5722 164.195 60.4476 161.136C59.4161 161.005 58.2053 160.731 57.8918 159.686C57.7016 159.053 57.9494 158.376 58.4105 157.902C59.1435 157.148 60.1866 156.939 61.1853 156.748C70.4088 154.991 79.6323 153.233 88.8558 151.476C95.8594 150.142 102.938 148.784 109.439 145.859" stroke="#145A6C" stroke-width="4" stroke-miterlimit="10" stroke-linecap="round"/>
<path d="M121.809 116.942C117.608 115.874 113.341 114.799 109.008 114.922C103.515 115.078 98.0525 117.275 94.1844 121.174C90.3164 125.073 88.1513 130.677 88.678 136.14C89.2047 141.605 92.5097 146.789 97.3776 149.336" stroke="#145A6C" stroke-width="4" stroke-miterlimit="10" stroke-linecap="round"/>
<path d="M17.214 134.177C19.3399 134.145 21.4716 134.755 23.2564 135.909" stroke="#145A6C" stroke-width="4" stroke-miterlimit="10" stroke-linecap="round"/>
<path d="M45.1692 135.349C47.4519 134.114 50.1293 133.62 52.703 133.96" stroke="#145A6C" stroke-width="4" stroke-miterlimit="10" stroke-linecap="round"/>
<path d="M37.0313 137.399C36.187 137.185 35.3347 136.97 34.4547 136.912C33.5747 136.853 32.6509 136.964 31.9098 137.358C31.6528 137.495 31.4044 137.689 31.3773 137.94C31.3543 138.154 31.4995 138.354 31.6389 138.536C31.9766 138.976 32.3138 139.417 32.6515 139.857C32.9396 140.232 33.2906 140.644 33.8248 140.715C34.3948 140.79 34.9094 140.445 35.3151 140.108C35.8084 139.699 36.274 139.267 36.708 138.816C36.9443 138.57 37.1794 138.301 37.2186 137.99C37.2578 137.679 37.0198 137.323 36.6394 137.291" fill="#145A6C"/>
<path d="M59.4231 36.666C60.6103 30.5844 65.9519 25.5449 72.098 24.7084L166.617 23.2346" stroke="#145A6C" stroke-width="4" stroke-miterlimit="10" stroke-linecap="round"/>
<path d="M173 23.0151C175.869 22.8021 180 24.5 180 27.9999" stroke="#145A6C" stroke-width="4" stroke-miterlimit="10" stroke-linecap="round"/>
<path d="M71.7217 52.7866H168.538" stroke="#145A6C" stroke-width="4" stroke-miterlimit="10" stroke-linecap="round"/>
<path d="M59 43C59.4577 61.0892 59 70 57.4309 94.3961C57.4246 95.1819 57.4142 95.9683 57.401 96.7547" stroke="#145A6C" stroke-width="4" stroke-miterlimit="10" stroke-linecap="round"/>
<path d="M141.981 136.453L172.204 136.669C173.969 136.673 175.726 136.446 177.437 136.012C178.746 135.68 180.26 135.348 180.752 135.016C187.031 130.779 184.494 121.839 184.489 115.034C184.483 105.874 184.304 96.7142 183.95 87.5614C183.244 69.2557 183.09 52.2003 181 34" stroke="#145A6C" stroke-width="4" stroke-miterlimit="10" stroke-linecap="round"/>
<path d="M70.8756 37.4277C70.9775 39.0926 71.0794 40.7569 71.1819 42.4218" stroke="#145A6C" stroke-width="4" stroke-miterlimit="10" stroke-linecap="round"/>
<path d="M78.8292 36.8591V42.8077" stroke="#145A6C" stroke-width="4" stroke-miterlimit="10" stroke-linecap="round"/>
<path d="M87.7269 37.0474C87.8483 38.8366 87.8103 40.6362 87.614 42.4191" stroke="#145A6C" stroke-width="4" stroke-miterlimit="10" stroke-linecap="round"/>
<path d="M96.2617 37.8262L96.9486 42.415" stroke="#145A6C" stroke-width="4" stroke-miterlimit="10" stroke-linecap="round"/>
<path d="M109.78 37.8203C109.649 39.6285 109.785 41.4564 110.18 43.2254" stroke="#145A6C" stroke-width="4" stroke-miterlimit="10" stroke-linecap="round"/>
<path d="M117.698 36.6646C117.765 38.2661 117.832 39.8677 117.9 41.4698" stroke="#145A6C" stroke-width="4" stroke-miterlimit="10" stroke-linecap="round"/>
<path d="M128.356 37.0537C128.474 38.7174 128.591 40.3812 128.709 42.0455" stroke="#145A6C" stroke-width="4" stroke-miterlimit="10" stroke-linecap="round"/>
<path d="M135.432 38.7627L135.958 43.0141" stroke="#145A6C" stroke-width="4" stroke-miterlimit="10" stroke-linecap="round"/>
<path d="M146.088 38.3967C145.923 40.129 146.024 41.8865 146.388 43.5883" stroke="#145A6C" stroke-width="4" stroke-miterlimit="10" stroke-linecap="round"/>
<path d="M154.534 38.3955C154.434 39.8042 154.468 41.2221 154.637 42.6245" stroke="#145A6C" stroke-width="4" stroke-miterlimit="10" stroke-linecap="round"/>
<path d="M162.278 38.5693C162.567 39.9049 162.761 41.2607 162.858 42.6239" stroke="#145A6C" stroke-width="4" stroke-miterlimit="10" stroke-linecap="round"/>
<path d="M170.088 35.5159L170.28 40.2849C170.3 40.7915 170.326 41.3182 170.567 41.7644" stroke="#145A6C" stroke-width="4" stroke-miterlimit="10" stroke-linecap="round"/>
<path d="M85.3208 15.5569C85.1919 13.8489 85.2362 12.1281 85.4527 10.4287" stroke="#145A6C" stroke-width="4" stroke-miterlimit="10" stroke-linecap="round"/>
<path d="M105.301 11.9761L104.964 2" stroke="#145A6C" stroke-width="4" stroke-miterlimit="10" stroke-linecap="round"/>
<path d="M123.467 14.0245L123.424 10.9541" stroke="#145A6C" stroke-width="4" stroke-miterlimit="10" stroke-linecap="round"/>
<path d="M149.007 13.5092L149.308 6.85889" stroke="#145A6C" stroke-width="4" stroke-miterlimit="10" stroke-linecap="round"/>
<path d="M159.83 13.0004V11.9766" stroke="#145A6C" stroke-width="4" stroke-miterlimit="10" stroke-linecap="round"/>
</svg>
