<svg width="1254" height="23" viewBox="0 0 1254 23" fill="none" xmlns="http://www.w3.org/2000/svg">
<path d="M2 15.481C35.9052 14.2891 722.273 14.9053 756.114 17.3265" stroke="#F2F2F0" stroke-width="4" stroke-miterlimit="10" stroke-linecap="round"/>
<path d="M763.255 18.91L764.303 18.4763" stroke="#145A6C" stroke-width="4" stroke-miterlimit="10" stroke-linecap="round"/>
<path d="M776.966 17.4297L788.156 16.9753" stroke="#145A6C" stroke-width="4" stroke-miterlimit="10" stroke-linecap="round"/>
<path d="M800.879 17.2387C797.742 14.4923 797.043 9.3589 799.331 5.87254C801.619 2.38619 806.603 0.989681 810.367 2.78173C814.13 4.57377 816.194 9.32457 814.936 13.3019C815.283 9.84531 818.48 6.91328 821.951 6.86976C825.422 6.82624 828.692 9.67654 829.126 13.124C829.041 10.0354 831.968 7.20722 835.048 7.40192C838.128 7.59662 840.678 10.7692 840.206 13.8226C843.846 10.1072 851.356 12.2634 852.475 17.3449C853.663 14.4961 856.559 12.4421 859.637 12.265C862.716 12.0878 865.828 13.7951 867.335 16.4889C870.263 14.3769 874.828 15.0649 877.006 17.945" stroke="#145A6C" stroke-width="4" stroke-linecap="round" stroke-linejoin="round"/>
<path d="M890.362 18.3477H889.345" stroke="#145A6C" stroke-width="4" stroke-miterlimit="10" stroke-linecap="round"/>
<path d="M903.675 20.2639C931.955 19.0819 1069.72 17.9 1098 16.718C1126.46 15.5284 1223.74 14.3449 1252 17.9396" stroke="#F2F2F0" stroke-width="4" stroke-miterlimit="10" stroke-linecap="round"/>
</svg>
