<svg width="1440" height="208" viewBox="0 0 1440 208" fill="none" xmlns="http://www.w3.org/2000/svg">
<path d="M538.992 94.6469C538.858 109.535 538.725 124.422 538.591 139.309" stroke="#145A6C" stroke-width="4" stroke-linecap="round" stroke-linejoin="round"/>
<path d="M510.931 147.685C510.922 145.363 512.551 143.126 514.762 142.425C515.703 142.126 516.718 142.116 517.676 142.349C519.59 142.815 521.577 142.356 523.328 141.455C524.024 141.097 524.8 140.863 525.56 140.767C527.687 140.497 529.846 140.963 531.982 140.789C533.804 140.641 535.562 140.033 537.382 139.855C538.524 139.744 539.75 139.843 540.796 140.279C541.917 140.746 543.167 140.821 544.343 140.522C545.636 140.194 547.048 140.3 548.286 140.806C549.744 141.402 551.361 141.287 552.774 140.591C554.567 139.707 556.758 139.575 558.64 140.243C560.095 140.76 561.704 140.783 563.099 140.122C566.041 138.73 570.027 139.419 572.003 142.086" stroke="#145A6C" stroke-width="4" stroke-linecap="round" stroke-linejoin="round"/>
<path d="M578.242 142.441C580.875 138.969 586.135 138.141 589.958 140.046C591.394 140.762 593.132 140.752 594.421 139.794C596.019 138.608 598.238 138.182 600.161 138.692C601.742 139.111 603.401 138.703 604.803 137.858C605.974 137.152 607.409 136.838 608.774 136.979C611.046 137.213 613.311 136.836 615.431 135.985C617.511 135.149 619.91 135.082 621.984 135.946C624.352 136.932 626.342 138.992 628.901 139.166C630.62 139.283 632.262 138.511 633.955 138.191C634.932 138.006 636.044 138.043 636.952 138.408C638.065 138.855 639.31 138.868 640.39 138.345C642.761 137.197 645.842 137.472 648.002 138.985C649.196 139.821 650.747 139.812 652.077 139.215C653.647 138.511 655.573 138.501 657.175 139.161C658.505 139.708 659.987 139.443 661.188 138.651C661.377 138.526 661.577 138.42 661.783 138.336C663.017 137.829 664.403 137.916 665.734 138.011L675.605 138.714L677.847 138.727C679.87 138.739 681.869 139.057 683.862 139.405C684.46 139.51 685.082 139.509 685.694 139.428C689.723 138.891 694.151 141.286 695.532 145.181C698.98 148.853 699.855 154.713 697.629 159.233C697.992 163.545 698.354 167.858 698.717 172.171C698.805 173.217 698.886 174.303 698.768 175.342C698.523 177.527 698.451 179.728 698.744 181.908L699.041 184.121C699.381 186.654 699.304 189.211 699.1 191.759C699.071 192.111 699.071 192.465 699.106 192.82C699.239 194.167 698.815 195.577 697.872 196.552" stroke="#145A6C" stroke-width="4" stroke-linecap="round" stroke-linejoin="round"/>
<path d="M510.496 148.615C509.728 164.412 509.852 180.253 510.868 196.036C510.927 196.956 511.004 197.921 511.503 198.695C512.002 199.47 513.074 199.958 513.876 199.503" stroke="#145A6C" stroke-width="4" stroke-linecap="round" stroke-linejoin="round"/>
<path d="M519.612 201.649C521.013 199.358 524.141 200.222 526.355 200.232C530.034 200.248 533.713 200.288 537.392 200.316C544.557 200.37 551.722 200.425 558.886 200.479L601.876 200.806" stroke="#145A6C" stroke-width="4" stroke-linecap="round" stroke-linejoin="round"/>
<path d="M609.582 202C652.184 199.428 694.898 198.71 737.563 199.848" stroke="#145A6C" stroke-width="4" stroke-linecap="round" stroke-linejoin="round"/>
<path d="M742.705 199.837C781.333 199.96 819.961 200.084 858.588 200.208C869.983 200.244 881.378 200.281 892.774 200.318L910.156 200.373C913.894 200.385 920.792 201.685 921.958 196.554V94.6029" stroke="#145A6C" stroke-width="4" stroke-linecap="round" stroke-linejoin="round"/>
<path d="M740.645 118.915C730.726 119.286 719.527 118.651 709.609 119.022C709.609 119.022 708.382 115.124 710.4 112.095C714.583 105.814 724.435 100.976 733.173 104.884C744.096 109.769 740.645 118.915 740.645 118.915Z" stroke="#145A6C" stroke-width="4" stroke-linecap="round" stroke-linejoin="round"/>
<path d="M715.776 106.852L725.854 116.398L734.871 105.741" stroke="#145A6C" stroke-width="4" stroke-linecap="round" stroke-linejoin="round"/>
<path d="M672.035 138.461V94.5708L527.517 94.6469L682.979 22.3051H768.96L930 94.6469L783.833 93.8339L784.182 199.325" stroke="#145A6C" stroke-width="4" stroke-linecap="round" stroke-linejoin="round"/>
<path d="M725.966 58.4783C717.772 63.306 688.191 80.5162 673.494 89.0626C671.16 90.4192 672.115 93.9894 674.813 94.0041L781.965 94.593C784.672 94.6077 785.655 91.0278 783.321 89.6558L730.287 58.4783C728.952 57.694 727.3 57.6926 725.966 58.4783Z" stroke="#145A6C" stroke-width="4" stroke-linecap="round" stroke-linejoin="round"/>
<path d="M697.31 94.593V146.986" stroke="#145A6C" stroke-width="4" stroke-linecap="round" stroke-linejoin="round"/>
<path d="M754.94 94.593V199.324" stroke="#145A6C" stroke-width="4" stroke-linecap="round" stroke-linejoin="round"/>
<path d="M717.14 154.74C717.14 154.74 716.985 162.184 717.14 162.184H732.322V154.74H717.14Z" stroke="#145A6C" stroke-width="4" stroke-linecap="round" stroke-linejoin="round"/>
<path d="M690.183 81.3892H749.517" stroke="#145A6C" stroke-width="4" stroke-linecap="round" stroke-linejoin="round"/>
<path d="M746.892 68.2404H724.697" stroke="#145A6C" stroke-width="4" stroke-linecap="round" stroke-linejoin="round"/>
<path d="M658.838 33.0037L659.048 20.2806C659.057 19.737 659.063 19.176 658.858 18.6728C658.653 18.1697 658.177 17.7984 657.636 17.7496C656.701 17.6651 630.37 17.8919 623.723 17.9506C622.882 17.9582 622.203 18.6372 622.193 19.4795L621.837 50.0638" stroke="#145A6C" stroke-width="4" stroke-linecap="round" stroke-linejoin="round"/>
<path d="M627.057 17.8026L626.958 11.0942C626.95 10.5206 626.956 9.89952 627.302 9.44243C627.773 8.81995 628.667 8.75017 629.447 8.75645C631.47 8.7725 633.905 8.46266 636.058 8.59037C636.853 8.63782 637.476 9.28611 637.472 10.083C637.46 12.4438 637.483 15.1305 637.483 17.3218" stroke="#145A6C" stroke-width="4" stroke-linecap="round" stroke-linejoin="round"/>
<path d="M645.722 17.3378C645.488 13.0712 645.254 8.80462 645.02 4.53732C644.99 3.98184 644.976 3.37053 645.323 2.93717C645.724 2.43751 646.443 2.36424 647.082 2.33005C649.057 2.22467 651.032 2.1193 653.007 2.01392C653.599 1.98252 654.255 1.97135 654.706 2.35587C655.193 2.77178 655.256 3.48986 655.284 4.12978C655.468 8.37824 655.652 12.6267 655.835 16.8752" stroke="#145A6C" stroke-width="4" stroke-linecap="round" stroke-linejoin="round"/>
<path d="M813.941 158.594C813.004 158.6 812.145 158.048 811.789 157.18C811.469 156.403 811.369 155.436 811.363 154.592C811.282 142.465 811.2 130.338 811.119 118.212C811.113 117.426 811.186 116.533 811.456 115.793C811.784 114.893 812.672 114.321 813.628 114.327L890.101 114.822C890.437 114.824 890.778 114.879 891.072 115.042C891.692 115.387 892.153 116.027 892.389 116.71C892.693 117.588 892.691 118.539 892.685 119.468C892.616 130.66 892.547 141.852 892.477 153.044C892.471 154.058 892.461 155.095 892.119 156.05C891.811 156.909 891.179 157.702 890.333 158.008C890.145 158.076 889.942 158.092 889.742 158.093L813.941 158.594Z" stroke="#145A6C" stroke-width="4" stroke-linecap="round" stroke-linejoin="round"/>
<path d="M836.739 114.476L836.432 158.445" stroke="#145A6C" stroke-width="4" stroke-linecap="round" stroke-linejoin="round"/>
<path d="M862.614 114.644L862.768 158.271" stroke="#145A6C" stroke-width="4" stroke-linecap="round" stroke-linejoin="round"/>
<path d="M836.643 128.221L861.835 128.222" stroke="#145A6C" stroke-width="4" stroke-linecap="round" stroke-linejoin="round"/>
<path d="M564.826 136.441C564.917 130.062 565.008 123.682 565.098 117.303C565.125 115.387 564.468 111.877 566.072 110.398C567.261 109.302 569.378 109.662 570.841 109.653L634.281 110.101C636.864 110.181 637.674 110.745 637.649 113.673C637.583 121.468 637.518 129.263 637.451 137.058" stroke="#145A6C" stroke-width="4" stroke-linecap="round" stroke-linejoin="round"/>
<path d="M588.859 110.815L588.71 139.309" stroke="#145A6C" stroke-width="4" stroke-linecap="round" stroke-linejoin="round"/>
<path d="M612.724 109.948L612.279 136.868" stroke="#145A6C" stroke-width="4" stroke-linecap="round" stroke-linejoin="round"/>
<path d="M588.794 123.33H612.502" stroke="#145A6C" stroke-width="4" stroke-linecap="round" stroke-linejoin="round"/>
<path d="M784.633 188.624L920.937 187.694" stroke="#145A6C" stroke-width="4" stroke-linecap="round" stroke-linejoin="round"/>
<path d="M531.832 160.565L532.875 161.152" stroke="#145A6C" stroke-width="4" stroke-linecap="round" stroke-linejoin="round"/>
<path d="M553.194 153.267L553.543 153.965" stroke="#145A6C" stroke-width="4" stroke-linecap="round" stroke-linejoin="round"/>
<path d="M549.477 178.738L549.709 179.32" stroke="#145A6C" stroke-width="4" stroke-linecap="round" stroke-linejoin="round"/>
<path d="M583.153 165.942L583.036 166.872" stroke="#145A6C" stroke-width="4" stroke-linecap="round" stroke-linejoin="round"/>
<path d="M592.799 186.179L592.662 187.107" stroke="#145A6C" stroke-width="4" stroke-linecap="round" stroke-linejoin="round"/>
<path d="M618.156 154.191L618.504 154.773" stroke="#145A6C" stroke-width="4" stroke-linecap="round" stroke-linejoin="round"/>
<path d="M632.182 166.989L632.067 168.035" stroke="#145A6C" stroke-width="4" stroke-linecap="round" stroke-linejoin="round"/>
<path d="M630.103 185.721L630.452 186.303" stroke="#145A6C" stroke-width="4" stroke-linecap="round" stroke-linejoin="round"/>
<path d="M655.338 162.575L655.104 163.272" stroke="#145A6C" stroke-width="4" stroke-linecap="round" stroke-linejoin="round"/>
<path d="M675.415 183.277L675.532 183.858" stroke="#145A6C" stroke-width="4" stroke-linecap="round" stroke-linejoin="round"/>
<path d="M682.862 159.664L682.282 160.594" stroke="#145A6C" stroke-width="4" stroke-linecap="round" stroke-linejoin="round"/>
<path d="M907.753 94.4397H894.948C893.698 94.4397 892.686 95.4535 892.686 96.7042V102.968C892.686 104.219 893.698 105.232 894.948 105.232H907.753C909.002 105.232 910.015 104.219 910.015 102.968V96.7042C910.015 95.4535 909.002 94.4397 907.753 94.4397Z" stroke="#145A6C" stroke-width="4" stroke-linecap="round" stroke-linejoin="round"/>
<path d="M-413 200.481C-379.095 199.289 127.273 199.905 161.114 202.326" stroke="#145A6C" stroke-width="4" stroke-miterlimit="10" stroke-linecap="round"/>
<path d="M168.255 203.91L169.303 203.476" stroke="#145A6C" stroke-width="4" stroke-miterlimit="10" stroke-linecap="round"/>
<path d="M181.966 202.43L193.156 201.975" stroke="#145A6C" stroke-width="4" stroke-miterlimit="10" stroke-linecap="round"/>
<path d="M205.879 202.239C202.742 199.492 202.043 194.359 204.331 190.873C206.619 187.386 211.603 185.99 215.367 187.782C219.13 189.574 221.194 194.325 219.936 198.302C220.283 194.845 223.48 191.913 226.951 191.87C230.422 191.826 233.692 194.677 234.126 198.124C234.041 195.035 236.968 192.207 240.048 192.402C243.128 192.597 245.678 195.769 245.206 198.823C248.846 195.107 256.356 197.263 257.475 202.345C258.663 199.496 261.559 197.442 264.637 197.265C267.716 197.088 270.828 198.795 272.335 201.489C275.263 199.377 279.828 200.065 282.006 202.945" stroke="#145A6C" stroke-width="4" stroke-linecap="round" stroke-linejoin="round"/>
<path d="M295.362 203.348H294.345" stroke="#145A6C" stroke-width="4" stroke-miterlimit="10" stroke-linecap="round"/>
<path d="M308.675 205.264C336.955 204.082 365.234 202.9 393.513 201.718C421.975 200.528 450.596 199.345 478.855 202.94" stroke="#145A6C" stroke-width="4" stroke-miterlimit="10" stroke-linecap="round"/>
<path d="M484.026 202.048L493.173 201.792" stroke="#145A6C" stroke-width="4" stroke-miterlimit="10" stroke-linecap="round"/>
<path d="M501.289 202.288L502.302 201.772" stroke="#145A6C" stroke-width="4" stroke-miterlimit="10" stroke-linecap="round"/>
<path d="M935 200.589C968.905 199.397 1475.27 200.014 1509.11 202.435" stroke="#145A6C" stroke-width="4" stroke-miterlimit="10" stroke-linecap="round"/>
</svg>
