<svg width="1254" height="144" viewBox="0 0 1254 144" fill="none" xmlns="http://www.w3.org/2000/svg">
<path d="M2 124.481C35.9052 123.289 722.273 123.905 756.114 126.326" stroke="#F2F2F0" stroke-width="4" stroke-miterlimit="10" stroke-linecap="round"/>
<path d="M244.345 33.0946L197.624 34.3786C195.486 33.9102 194.068 31.9318 192.859 30.1023C191.272 27.7023 189.685 25.3017 188.098 22.9018C187.499 21.9946 186.871 20.931 187.168 19.884C187.34 19.2737 187.801 18.7949 188.245 18.3437L194.272 12.2199C195.132 11.3465 196.297 10.8443 197.521 10.8202L244.346 9.90405" stroke="#145A6C" stroke-width="4" stroke-miterlimit="10" stroke-linecap="round"/>
<path d="M253.304 14.0364C253.397 12.0519 253.155 8.10409 253.392 5.90186C253.542 4.51729 254.758 3.504 256.143 3.60664L263.898 4.45943C265.401 4.57102 266.559 5.83711 266.54 7.34912L266.335 23.6802" stroke="#145A6C" stroke-width="4" stroke-miterlimit="10" stroke-linecap="round"/>
<path d="M251.899 22.1406V24.5219" stroke="#145A6C" stroke-width="4" stroke-miterlimit="10" stroke-linecap="round"/>
<path d="M251.67 28.3492L251.517 112.464" stroke="#145A6C" stroke-width="4" stroke-miterlimit="10" stroke-linecap="round"/>
<path d="M267.467 112.541L266.856 30.9516" stroke="#145A6C" stroke-width="4" stroke-miterlimit="10" stroke-linecap="round"/>
<path d="M273.342 33.4004L314.612 33.6932C315.801 33.7014 316.943 34.1519 317.82 34.9572L331.205 47.2634C332.141 48.1237 332.145 49.602 331.214 50.4678L320.586 60.3582C319.7 61.1835 318.534 61.6422 317.324 61.6422H275.938" stroke="#145A6C" stroke-width="4" stroke-miterlimit="10" stroke-linecap="round"/>
<path d="M271.957 124.369L239.943 123.306C239.215 123.282 238.456 123.249 237.822 122.891C236.432 122.107 236.253 120.208 236.24 118.609C236.229 117.234 236.325 115.638 237.44 114.839C238.092 114.372 238.938 114.308 239.739 114.261C252.117 113.548 264.527 113.328 276.917 113.803C277.566 113.827 278.264 113.872 278.772 114.279C279.424 114.802 279.541 115.735 279.608 116.57C279.746 118.275 279.884 119.982 280.022 121.687C280.079 122.381 280.128 123.114 279.823 123.741C279.518 124.367 278.724 124.809 278.111 124.482" stroke="#145A6C" stroke-width="4" stroke-miterlimit="10" stroke-linecap="round"/>
<path d="M297.619 124.616C296.243 122.067 297.167 118.521 299.612 116.973C302.056 115.426 305.645 116.114 307.348 118.456C306.453 116.658 307 114.251 308.604 113.047C310.208 111.843 312.691 112.008 314.098 113.438C315.506 114.868 315.628 117.389 314.34 118.928C315.776 118.672 317.245 118.416 318.684 118.656C320.122 118.897 321.548 119.736 322.091 121.094C322.633 122.452 321.958 124.288 320.544 124.643" stroke="#145A6C" stroke-width="4" stroke-linecap="round" stroke-linejoin="round"/>
<path d="M193.52 123.982C225.671 124.292 211.735 123.252 243.887 123.562" stroke="#145A6C" stroke-width="4" stroke-linecap="round" stroke-linejoin="round"/>
<path d="M322.941 125.16C330.34 125.569 324.004 125.289 331.403 125.699C331.025 125.676 330.648 125.652 330.271 125.629" stroke="#145A6C" stroke-width="4" stroke-linecap="round" stroke-linejoin="round"/>
<path d="M289.364 125.16C296.763 125.569 290.22 124.207 297.619 124.616" stroke="#145A6C" stroke-width="4" stroke-linecap="round" stroke-linejoin="round"/>
<path d="M272.884 140.4C284.789 140.4 296.694 140.4 308.598 140.4" stroke="#145A6C" stroke-width="4" stroke-linecap="round" stroke-linejoin="round"/>
<path d="M258.844 140.4C259.72 140.093 260.692 140.069 261.582 140.332C260.466 140.355 259.349 140.377 258.233 140.4" stroke="#145A6C" stroke-width="4" stroke-linecap="round" stroke-linejoin="round"/>
<path d="M763.255 127.91L764.303 127.476" stroke="#145A6C" stroke-width="4" stroke-miterlimit="10" stroke-linecap="round"/>
<path d="M776.966 126.43L788.156 125.975" stroke="#145A6C" stroke-width="4" stroke-miterlimit="10" stroke-linecap="round"/>
<path d="M800.879 126.239C797.742 123.492 797.043 118.359 799.331 114.873C801.619 111.386 806.603 109.99 810.367 111.782C814.13 113.574 816.194 118.325 814.936 122.302C815.283 118.845 818.48 115.913 821.951 115.87C825.422 115.826 828.692 118.677 829.126 122.124C829.041 119.035 831.968 116.207 835.048 116.402C838.128 116.597 840.678 119.769 840.206 122.823C843.846 119.107 851.356 121.263 852.475 126.345C853.663 123.496 856.559 121.442 859.637 121.265C862.716 121.088 865.828 122.795 867.335 125.489C870.263 123.377 874.828 124.065 877.006 126.945" stroke="#145A6C" stroke-width="4" stroke-linecap="round" stroke-linejoin="round"/>
<path d="M890.362 127.348H889.345" stroke="#145A6C" stroke-width="4" stroke-miterlimit="10" stroke-linecap="round"/>
<path d="M903.675 129.264C931.955 128.082 1069.72 126.9 1098 125.718C1126.46 124.528 1223.74 123.345 1252 126.94" stroke="#F2F2F0" stroke-width="4" stroke-miterlimit="10" stroke-linecap="round"/>
</svg>
