<svg width="251" height="251" viewBox="0 0 251 251" fill="none" xmlns="http://www.w3.org/2000/svg">
<path d="M25.9768 72.7782C22.5859 89.8712 30.3592 108.123 43.6883 119.383C57.0173 130.642 75.1426 135.325 92.5816 134.368C109.675 133.429 126.715 127.126 139.153 115.389C151.588 103.652 158.962 86.2792 157.086 69.302" stroke="#145A6C" stroke-width="6" stroke-miterlimit="10" stroke-linecap="round"/>
<path d="M25.3561 91.4974C22.0283 97.7249 18.7017 103.951 15.3738 110.179C14.0795 112.602 12.3525 115.326 9.6113 115.573C5.17585 115.972 3.34919 110.064 3.18646 105.624C2.63266 90.566 3.15114 75.322 6.96466 60.7424C10.7782 46.1628 18.0936 32.1987 29.4674 22.2848C40.8827 12.3343 55.742 6.98909 70.7248 4.68712C85.7077 2.38515 100.964 2.92635 116.112 3.49398C130.018 4.01503 144.92 4.89731 155.938 13.379C165.37 20.6411 170.257 32.2554 173.799 43.6054C180.028 63.5717 183.335 84.4417 183.588 105.351C183.648 110.388 182.553 116.751 177.661 117.995C173.217 119.125 169.285 114.973 166.897 111.066C161.904 102.902 158.524 93.7591 157.008 84.3146" stroke="#145A6C" stroke-width="6" stroke-miterlimit="10" stroke-linecap="round"/>
<path d="M232.201 229.09C240.76 249.851 242.428 273.373 236.884 295.129C236.306 297.397 235.646 299.74 236.056 302.045C236.731 305.837 240.253 308.629 243.997 309.567C252.331 311.658 261.028 305.886 265.134 298.355C269.24 290.823 269.829 281.946 270.331 273.388C271.359 255.875 272.386 238.361 273.414 220.848" stroke="#145A6C" stroke-width="6" stroke-miterlimit="10" stroke-linecap="round"/>
<path d="M116.549 216.773C120.219 242.222 120.146 268.206 116.332 293.633C115.952 296.164 115.562 298.88 116.695 301.176C118.594 305.022 123.663 305.826 127.958 305.951C135.735 306.177 144.807 305.087 148.918 298.496C151.151 294.917 151.356 290.484 151.498 286.27C152.256 263.715 153.013 241.16 153.771 218.604" stroke="#145A6C" stroke-width="6" stroke-miterlimit="10" stroke-linecap="round"/>
<path d="M60.1837 150.626C64.6217 166.34 69.1606 182.287 77.7754 196.166C86.3902 210.046 99.7798 221.829 115.887 224.701" stroke="#145A6C" stroke-width="6" stroke-miterlimit="10" stroke-linecap="round"/>
<path d="M181.609 67.1236C212.196 64.0741 243.215 65.3654 273.442 70.9472C313.944 78.4271 353.401 93.5956 394.589 93.8461C397.442 93.8637 401.047 94.3294 401.858 97.0568C402.407 98.9056 401.27 100.8 400.124 102.352C389.61 116.576 373.559 126.615 356.145 129.856" stroke="#145A6C" stroke-width="6" stroke-miterlimit="10" stroke-linecap="round"/>
<path d="M33.0501 111.276C38.1416 149.765 43.2406 188.342 44.2107 227.154C44.5159 239.365 44.3986 251.82 41.366 263.731C39.9051 269.468 37.9977 273.036 34.6649 277.119C32.08 280.284 29.4258 282.731 30.8955 287.37C32.3992 292.113 37.3304 295.169 42.2831 295.748C47.2357 296.327 52.201 294.85 56.8219 292.978C61.4251 291.113 66.0485 288.68 68.8806 284.607C71.8792 280.297 72.4368 274.802 72.8266 269.57C74.8778 242.008 74.8046 214.288 72.6109 186.736" stroke="#145A6C" stroke-width="6" stroke-miterlimit="10" stroke-linecap="round"/>
<path d="M154.602 230.946C189.963 234.773 226.001 232.293 260.5 223.658C272.859 220.565 285.642 216.306 294.181 206.87" stroke="#145A6C" stroke-width="6" stroke-miterlimit="10" stroke-linecap="round"/>
<path d="M42.4168 47.9635C39.6302 47.684 36.9243 50.2264 36.9709 53.0192C37.0176 55.8121 39.7336 58.2474 42.5279 58.0624C45.3221 57.8774 47.6748 55.1752 47.5373 52.3849C47.3998 49.5946 45.2161 48.0591 42.4181 47.9622" fill="#145A6C"/>
<path d="M42.4166 46.0758C39.3461 45.8215 36.5645 47.9838 35.4847 50.7439C34.338 53.6739 35.7345 56.8342 38.1591 58.6164C40.5093 60.3432 43.803 60.391 46.1721 58.6743C48.6081 56.9097 49.9655 53.8929 49.2212 50.9138C48.4403 47.7887 45.448 46.2092 42.4179 46.077C41.4276 46.0342 40.4815 46.9769 40.5257 47.9649C40.5736 49.0246 41.357 49.8062 42.4179 49.8528C42.5642 49.8591 42.7093 49.8729 42.8544 49.8805C42.9704 49.8855 43.195 49.8528 42.7762 49.8641C42.9843 49.8591 43.2555 49.9497 43.4561 50.0013C43.6441 50.0491 43.8434 50.1523 44.0326 50.18C44.2875 50.2178 43.6353 49.9774 44.0036 50.1649C44.1184 50.2228 44.2345 50.2769 44.3467 50.3399C44.4515 50.399 44.8249 50.5677 44.8741 50.6822C44.8274 50.574 44.6091 50.4481 44.7794 50.6218C44.8665 50.7099 44.9598 50.7892 45.0444 50.8798C45.0671 50.9037 45.2134 51.056 45.2084 51.0636C45.2084 51.0648 44.9737 50.6948 45.1718 51.0271C45.2323 51.129 45.5338 51.5028 45.5073 51.6299C45.5225 51.5569 45.3887 51.28 45.4594 51.5381C45.4947 51.6664 45.5401 51.7898 45.5729 51.9194C45.5944 52.0075 45.6095 52.0969 45.631 52.185C45.7369 52.6204 45.6247 51.8842 45.631 52.1711C45.636 52.3901 45.6575 52.6079 45.6474 52.8281C45.6423 52.959 45.7041 53.3655 45.6549 52.9061C45.6688 53.0333 45.5969 53.2145 45.5666 53.3341C45.5124 53.5468 45.4367 53.7507 45.3673 53.9583C45.2765 54.2327 45.5755 53.5644 45.3534 53.9759C45.3068 54.0615 45.2651 54.1496 45.2172 54.2352C45.0973 54.4492 44.9598 54.6493 44.8198 54.8507C45.0532 54.5134 44.8665 54.7852 44.7933 54.8683C44.6798 54.9967 44.5625 55.1213 44.4388 55.2396C44.3682 55.3075 44.2938 55.3705 44.2219 55.4372C43.88 55.7543 44.4439 55.3025 44.2029 55.4586C44.0188 55.5781 43.8421 55.704 43.6491 55.811C43.5432 55.8701 43.4309 55.918 43.3249 55.9759C43.0739 56.113 43.7488 55.8399 43.306 55.9784C43.0487 56.0589 42.7938 56.1181 42.5327 56.1823C42.2514 56.2502 42.9957 56.1659 42.5264 56.1772C42.428 56.1797 42.3309 56.1873 42.2325 56.1873C42.1328 56.1873 41.8818 56.2175 41.7947 56.1672C41.8212 56.1823 42.24 56.2565 41.8654 56.1747C41.6269 56.1219 41.3936 56.069 41.1615 55.9897C41.0694 55.9582 40.9785 55.923 40.8877 55.8878C41.3154 56.0539 40.9054 55.8815 40.8095 55.8311C40.5925 55.7153 40.3932 55.5769 40.1876 55.4447C40.5269 55.6625 40.2557 55.4988 40.1661 55.4233C40.0728 55.344 39.9832 55.261 39.8949 55.1766C39.8028 55.086 39.3335 54.5234 39.6123 54.8998C39.4673 54.7047 39.3348 54.5008 39.2162 54.2893C39.1569 54.1836 39.109 54.0729 39.0522 53.9659C38.9185 53.7142 39.1859 54.3888 39.0522 53.947C39.0018 53.7796 38.8151 53.4083 38.868 53.2472C38.8605 53.2711 38.8971 53.7053 38.8781 53.3164C38.8718 53.1944 38.863 53.0735 38.863 52.9502C38.863 52.8634 38.8327 52.6557 38.8781 52.5852C38.8403 52.8218 38.8327 52.8684 38.8567 52.7262C38.868 52.6544 38.8819 52.5827 38.8971 52.5122C38.9223 52.3939 38.9538 52.2768 38.9891 52.1611C39.0207 52.0553 39.2326 51.5733 39.0282 52.0012C39.133 51.7822 39.2452 51.567 39.3764 51.3618C39.3827 51.353 39.6464 50.9515 39.4811 51.1945C39.3361 51.4072 39.6704 50.9792 39.7095 50.9364C39.8772 50.7577 40.0589 50.5954 40.2456 50.4368C39.8962 50.7351 40.262 50.4343 40.3352 50.3864C40.4575 50.3071 40.5824 50.2316 40.7111 50.1624C40.7969 50.1158 40.8852 50.0768 40.971 50.0315C40.5711 50.2404 40.947 50.0428 41.058 50.0051C41.1955 49.9598 41.3343 49.9195 41.4756 49.8855L41.6169 49.8541C41.8313 49.8163 41.8061 49.8176 41.5424 49.8553C41.5386 49.8238 42.3712 49.849 42.4179 49.8528C43.4069 49.9346 44.3518 48.9265 44.3089 47.9649C44.2597 46.8724 43.4776 46.1651 42.4179 46.077L42.4166 46.0758Z" fill="#145A6C"/>
<path d="M135 48.3663C132.439 48.759 130.569 51.5481 131.045 54.0904C131.52 56.6328 134.129 58.537 136.715 58.3697C139.761 58.1733 142.314 55.1338 141.975 52.1081C141.635 49.0825 138.47 46.6811 135.458 47.1619" fill="#145A6C"/>
<path d="M134.496 46.5451C131.515 47.0586 129.41 49.8439 129.111 52.7349C128.789 55.8474 130.969 58.6025 133.747 59.7402C136.525 60.878 139.725 60.0436 141.745 57.87C143.869 55.5844 144.491 52.38 143.144 49.5418C142.488 48.1599 141.292 46.9705 139.965 46.2229C138.401 45.3419 136.717 45.0877 134.954 45.3407C133.972 45.4816 133.346 46.778 133.632 47.6628C133.98 48.7363 134.906 49.1328 135.96 48.9818C135.484 49.0497 136.264 48.9868 136.377 48.9893C136.548 48.9944 137.043 49.0862 136.636 48.9981C136.887 49.0522 137.134 49.1026 137.379 49.1806C137.476 49.2121 137.572 49.2524 137.669 49.2813C137.27 49.1643 137.693 49.2939 137.781 49.338C137.988 49.4412 138.189 49.5569 138.383 49.6828C138.492 49.7533 138.596 49.8263 138.701 49.9018C138.642 49.859 138.425 49.6627 138.68 49.8955C138.851 50.0516 139.021 50.2064 139.179 50.3775C139.266 50.4719 139.349 50.5689 139.433 50.667C139.224 50.4191 139.415 50.6494 139.499 50.7803C139.612 50.9515 139.714 51.1277 139.807 51.3089C139.814 51.3215 139.993 51.7708 139.901 51.5015C139.806 51.2246 139.96 51.7016 139.961 51.7066C140.022 51.903 140.062 52.1018 140.105 52.3019C140.017 51.8879 140.094 52.2189 140.101 52.3397C140.111 52.4958 140.114 52.6518 140.109 52.8079C140.105 52.9375 140.094 53.0659 140.082 53.1955C140.089 53.1213 140.159 52.8079 140.079 53.154C140.026 53.3818 139.973 53.6071 139.898 53.8299C139.865 53.9268 139.73 54.2528 139.892 53.8878C139.85 53.9834 139.805 54.0778 139.758 54.1697C139.64 54.4038 139.493 54.619 139.359 54.843C139.11 55.2622 139.52 54.6794 139.325 54.9009C139.24 54.9991 139.156 55.1011 139.068 55.1967C138.926 55.3503 138.775 55.4963 138.618 55.6347C138.615 55.6372 138.214 55.9393 138.444 55.782C138.677 55.6221 138.248 55.904 138.251 55.9028C138.03 56.0425 137.8 56.1608 137.566 56.2741C137.923 56.1004 137.614 56.2502 137.511 56.2841C137.389 56.3257 137.264 56.3634 137.138 56.3961C136.982 56.4364 136.461 56.4931 136.872 56.4654C136.606 56.483 136.348 56.4767 136.082 56.478C135.991 56.478 135.718 56.4251 136.115 56.4943C135.958 56.4666 135.805 56.4389 135.651 56.4012C135.419 56.3445 135.198 56.264 134.973 56.186C134.696 56.0891 135.34 56.4012 134.919 56.152C134.828 56.0991 134.731 56.0538 134.64 56.0022C134.549 55.9506 134.459 55.8952 134.37 55.8373C134.373 55.8386 133.953 55.5403 134.175 55.7102C134.397 55.8801 133.999 55.5542 134.002 55.5554C133.886 55.4497 133.772 55.3389 133.665 55.2231C133.593 55.1464 133.529 55.0646 133.457 54.9878C133.693 55.2445 133.517 55.0734 133.468 54.9953C133.328 54.7726 133.198 54.5536 133.073 54.322C133.023 54.2276 132.988 54.0136 133.08 54.3421C133.052 54.2427 133.01 54.1445 132.98 54.0451C132.943 53.9205 132.926 53.7858 132.885 53.6637C132.859 53.5203 132.86 53.5605 132.892 53.7883C132.883 53.7128 132.877 53.6373 132.873 53.5618C132.855 53.2849 132.864 53.0093 132.896 52.7336C132.887 52.8079 132.815 53.1251 132.902 52.789C132.94 52.6418 132.971 52.4958 133.017 52.3498C133.047 52.2529 133.082 52.1597 133.115 52.0628C132.979 52.4744 133.119 52.0565 133.169 51.9596C133.297 51.7091 133.451 51.4826 133.606 51.2498C133.763 51.0131 133.304 51.5468 133.642 51.2196C133.751 51.1151 133.848 50.9993 133.958 50.8948C134.031 50.8256 134.11 50.7639 134.184 50.6947C133.886 50.9792 134.199 50.6897 134.284 50.6356C134.368 50.5814 134.455 50.5298 134.542 50.482C134.701 50.3939 134.934 50.3071 134.631 50.4191C134.918 50.3134 135.203 50.2366 135.504 50.185C136.482 50.0163 137.119 48.7666 136.826 47.8629C136.486 46.812 135.546 46.3639 134.499 46.5439L134.496 46.5451Z" fill="#145A6C"/>
<path d="M60.832 91.2481C64.2255 88.0714 66.8368 84.0741 68.3985 79.7018C68.6054 79.1241 69.4229 79.1795 69.5553 79.7773C70.0738 82.1196 70.7903 84.4177 71.9295 86.5234C73.4433 89.3212 75.7771 91.7767 78.7517 92.9208" stroke="#145A6C" stroke-width="6" stroke-miterlimit="10" stroke-linecap="round"/>
<path d="M60.3515 59.816C58.3772 60.3647 57.0261 62.3734 56.8848 64.4124C56.7436 66.4513 57.6506 68.46 58.9827 70.0131C60.3149 71.5662 62.0457 72.7229 63.8029 73.7738C65.9853 75.0802 68.4125 76.2922 70.9456 76.0619C74.1056 75.7762 76.6084 73.3446 78.6445 70.9168C80.2189 69.0402 81.7768 66.6703 81.1019 64.318C80.3639 61.7467 77.378 60.6177 74.7414 60.1357C69.5415 59.1842 65.5022 58.6266 60.3515 59.816Z" fill="#145A6C"/>
<path d="M59.8482 57.9946C54.6483 59.6799 53.8762 65.9225 56.649 70.0457C58.0859 72.1828 60.1509 73.7459 62.322 75.0838C64.57 76.4695 67.0072 77.7508 69.6879 77.9509C74.8197 78.3335 79.2892 73.907 81.7655 69.8481C83.1179 67.6304 83.7108 64.8741 82.3774 62.5017C81.3139 60.61 79.3245 59.4999 77.3251 58.8379C74.6822 57.9632 71.7152 57.6397 68.9537 57.3867C65.8908 57.1061 62.8493 57.3276 59.8482 57.9946C57.4715 58.5232 58.4782 62.1656 60.8549 61.637C64.7226 60.7774 68.5664 60.9838 72.4481 61.6395C74.7137 62.0221 79.9389 62.5948 79.3233 66.0207C79.0079 67.7764 77.5849 69.322 76.4243 70.5969C75.2764 71.8568 73.9821 73.1217 72.38 73.7837C68.8932 75.2235 64.734 72.4722 62.0886 70.3717C60.5748 69.1697 59.1645 67.5801 58.8289 65.6154C58.5589 64.0346 59.2162 62.1694 60.8549 61.6383C63.1609 60.8907 62.1744 57.2433 59.8482 57.9972V57.9946Z" fill="#145A6C"/>
</svg>
