<svg width="164" height="156" viewBox="0 0 164 156" fill="none" xmlns="http://www.w3.org/2000/svg">
<path d="M65.5395 35.8525L14.7969 37.2435C12.4741 36.7361 10.9345 34.5928 9.62092 32.6108C7.89782 30.0108 6.17398 27.4102 4.45088 24.8103C3.79969 23.8275 3.11791 22.6753 3.44015 21.541C3.62737 20.8799 4.1279 20.3612 4.61051 19.8724L11.1561 13.2382C12.0899 12.2921 13.3557 11.748 14.6843 11.7219L65.541 10.7294" stroke="#145A6C" stroke-width="4" stroke-miterlimit="10" stroke-linecap="round"/>
<path d="M75.2709 15.2061C75.3716 13.0562 75.1083 8.77946 75.3664 6.39371C75.5291 4.89376 76.8501 3.79603 78.3539 3.90723L86.7761 4.83108C88.4089 4.95197 89.6666 6.32357 89.6458 7.96158L89.4234 25.6536" stroke="#145A6C" stroke-width="4" stroke-miterlimit="10" stroke-linecap="round"/>
<path d="M73.7449 23.9857V26.5654" stroke="#145A6C" stroke-width="4" stroke-miterlimit="10" stroke-linecap="round"/>
<path d="M73.4965 30.7116L73.3301 121.836" stroke="#145A6C" stroke-width="4" stroke-miterlimit="10" stroke-linecap="round"/>
<path d="M90.6527 121.919L89.9895 33.5309" stroke="#145A6C" stroke-width="4" stroke-miterlimit="10" stroke-linecap="round"/>
<path d="M97.0342 36.1838L141.857 36.501C143.148 36.5099 144.388 36.9979 145.341 37.8703L159.878 51.202C160.895 52.134 160.899 53.7355 159.888 54.6735L148.345 65.3881C147.383 66.2821 146.116 66.7791 144.802 66.7791H99.853" stroke="#145A6C" stroke-width="4" stroke-miterlimit="10" stroke-linecap="round"/>
<path d="M95.5295 134.733L60.7588 133.582C59.9687 133.556 59.1437 133.52 58.4553 133.132C56.9455 132.283 56.7516 130.225 56.7374 128.493C56.7254 127.004 56.8292 125.275 58.0405 124.409C58.7484 123.903 59.6681 123.834 60.5372 123.783C73.9811 123.01 87.46 122.772 100.917 123.287C101.621 123.313 102.379 123.361 102.931 123.802C103.639 124.369 103.766 125.38 103.839 126.284C103.989 128.131 104.139 129.981 104.289 131.828C104.35 132.579 104.404 133.374 104.073 134.053C103.741 134.731 102.879 135.21 102.213 134.856" stroke="#145A6C" stroke-width="4" stroke-miterlimit="10" stroke-linecap="round"/>
<path d="M123.401 135.001C121.906 132.239 122.91 128.398 125.565 126.721C128.22 125.045 132.118 125.79 133.967 128.327C132.995 126.38 133.589 123.772 135.331 122.468C137.074 121.163 139.77 121.342 141.298 122.891C142.828 124.44 142.96 127.171 141.561 128.839C143.121 128.561 144.716 128.284 146.279 128.544C147.841 128.805 149.39 129.714 149.98 131.185C150.568 132.656 149.835 134.645 148.299 135.03" stroke="#145A6C" stroke-width="4" stroke-linecap="round" stroke-linejoin="round"/>
<path d="M10.3394 134.314C45.2586 134.65 30.1229 133.523 65.0421 133.859" stroke="#145A6C" stroke-width="4" stroke-linecap="round" stroke-linejoin="round"/>
<path d="M150.903 135.59C158.939 136.033 152.057 135.73 160.093 136.174C159.683 136.149 159.273 136.123 158.864 136.098" stroke="#145A6C" stroke-width="4" stroke-linecap="round" stroke-linejoin="round"/>
<path d="M114.435 135.59C122.471 136.033 115.365 134.558 123.401 135.001" stroke="#145A6C" stroke-width="4" stroke-linecap="round" stroke-linejoin="round"/>
<path d="M96.5366 152.1C109.466 152.1 122.396 152.1 135.325 152.1" stroke="#145A6C" stroke-width="4" stroke-linecap="round" stroke-linejoin="round"/>
<path d="M81.2869 152.1C82.2387 151.767 83.2943 151.741 84.2609 152.026C83.0488 152.051 81.836 152.075 80.6238 152.1" stroke="#145A6C" stroke-width="4" stroke-linecap="round" stroke-linejoin="round"/>
</svg>
