<svg width="224" height="165" viewBox="0 0 224 165" fill="none" xmlns="http://www.w3.org/2000/svg">
<path d="M2.53592 42.3649C1.97262 38.526 5.027 34.53 8.88603 34.057L199.997 15.7744" stroke="#145A6C" stroke-width="4" stroke-miterlimit="10" stroke-linecap="round"/>
<path d="M204.92 15.3551C212.194 15.7745 209.954 18.0126 212.088 35.7823C212.633 40.3212 212.766 44.8747 213.2 49.4248L215.587 74.471C217.109 90.4449 219.286 106.425 220.064 122.436C220.283 126.947 221.607 132.749 221.329 136.7" stroke="#145A6C" stroke-width="4" stroke-miterlimit="10" stroke-linecap="round"/>
<path d="M16.4169 158.557C16.3278 160.971 19.156 162.569 21.1054 162.25" stroke="#145A6C" stroke-width="4" stroke-miterlimit="10" stroke-linecap="round"/>
<path d="M23.1416 161.868L217.3 143.86C220.008 143.847 222.251 138.781 221.535 136.87" stroke="#145A6C" stroke-width="4" stroke-miterlimit="10" stroke-linecap="round"/>
<path d="M2.69409 48.2528C6.21128 72.7345 8.23775 93.9152 11.3217 118.455C11.7787 122.09 12.2352 125.725 12.6922 129.36C13.744 137.731 14.7959 146.102 15.8482 154.472" stroke="#145A6C" stroke-width="4" stroke-miterlimit="10" stroke-linecap="round"/>
<path d="M14.0747 45.0505C14.0747 45.0505 12.5562 44.9451 12.6035 48.0784C12.6509 51.2118 25.919 149.611 25.842 150.121C25.7649 150.631 28.5223 154.509 31.8972 154.311C35.272 154.113 209.655 136.164 209.655 136.164C209.655 136.164 213.457 135.172 213.487 131.529C213.517 127.885 201.915 27.1923 201.915 27.1923C201.915 27.1923 201.038 23.2594 197.153 23.38C193.268 23.5006 17.6333 42.8265 17.6333 42.8265" stroke="#145A6C" stroke-width="4" stroke-miterlimit="10" stroke-linecap="round"/>
<path d="M67.7612 24.8307L95.3507 11.2886C96.6118 10.6698 98.046 10.4958 99.4178 10.796L146.396 21.0687" stroke="#145A6C" stroke-width="4" stroke-miterlimit="10" stroke-linecap="round"/>
<path d="M21.2807 69.3366C22.4419 61.2653 29.6575 54.47 37.7924 53.7878C39.9231 53.6093 42.2287 53.8653 43.8764 55.2255C45.5578 56.6135 46.2313 58.8742 46.5235 61.0336C47.1599 65.7371 46.3668 70.6238 44.2839 74.8911C44.2162 75.0298 44.3648 75.1647 44.4962 75.0832C47.1079 73.4588 49.9279 72.1674 52.8646 71.2519C54.3422 70.7912 55.8846 70.4221 57.4259 70.5644C58.9672 70.7066 60.5209 71.4357 61.3286 72.7543C62.1217 74.05 62.0878 75.6768 61.9188 77.1866C61.5386 80.5774 60.5982 83.905 59.147 86.995C60.0588 85.2203 62.1616 84.4456 64.1096 84.006C66.7764 83.405 69.9695 83.2631 71.5281 85.9802C71.9411 86.7005 72.1438 87.5273 72.1736 88.3572C72.2611 90.8079 71.0875 92.9296 69.9378 94.9858" stroke="#145A6C" stroke-width="4" stroke-miterlimit="10" stroke-linecap="round"/>
<path d="M112.019 62.3792C110.842 64.8363 109.982 67.5387 110.236 70.2491C110.491 72.9596 112.048 75.6673 114.571 76.6962C115.891 77.2348 117.361 77.2866 118.782 77.1653C119.758 77.0821 120.733 76.9186 121.651 76.5793C124.126 75.6645 126.043 73.4326 126.675 70.874C127.306 68.3155 126.674 65.4994 125.094 63.3904C124.059 62.0094 122.626 60.9157 120.992 60.3575C119.323 59.788 117.465 59.7908 115.797 60.3656" stroke="#145A6C" stroke-width="4" stroke-miterlimit="10" stroke-linecap="round"/>
<path d="M154.366 85.3349C152.079 82.9513 150.265 80.1163 149.06 77.041C148.045 74.447 147.448 71.4915 149.932 68.9657C151.211 67.6655 152.978 66.9189 154.802 66.8748C157.657 66.806 160.149 68.1723 162.053 70.1717C162.643 70.792 163.666 70.3144 163.587 69.4622C163.479 68.3032 163.478 67.1339 163.587 65.9745C163.752 64.2058 164.187 62.422 165.169 60.9405C166.152 59.4589 167.747 58.3137 169.52 58.1795C171.95 57.9949 174.197 59.7321 175.357 61.8717C176.518 64.0112 176.813 66.4973 177.088 68.9148" stroke="#145A6C" stroke-width="4" stroke-miterlimit="10" stroke-linecap="round"/>
<path d="M202.961 45.9471C202.229 44.596 200.34 44.2352 198.901 44.7797C198.171 45.0558 197.536 45.504 196.967 46.0386C196.144 46.8104 194.841 46.6669 194.249 45.7079C192.698 43.1966 190.881 40.8315 188.257 39.5768C185.303 38.1633 181.707 38.4465 178.762 39.8819C175.817 41.3173 173.478 43.8006 171.758 46.5868C169.956 49.5039 168.757 53.0592 169.691 56.3556" stroke="#145A6C" stroke-width="4" stroke-miterlimit="10" stroke-linecap="round"/>
<path d="M125.652 111.925C126.686 111.941 127.724 111.682 128.629 111.181" stroke="#145A6C" stroke-width="4" stroke-miterlimit="10" stroke-linecap="round"/>
<path d="M158.812 139.466C150.114 136.714 141.502 133.692 132.993 130.404C132.984 130.401 132.975 130.397 132.965 130.393C131.827 129.952 131.923 128.307 133.099 127.979C146.731 124.172 160.428 120.188 173.027 113.852C174.57 113.075 174.144 110.771 172.428 110.577C167.237 109.989 162.02 109.629 156.796 109.498C151.218 109.358 145.632 109.482 140.059 109.159C138.15 109.049 133.347 109.425 131.832 108.184C129.991 106.676 133.424 104.247 134.604 103.062C141.614 96.0196 149.849 90.2668 158.609 85.6105C168.813 80.1861 179.737 76.2202 190.827 72.9655C194.981 71.7464 199.256 70.614 203.577 70.8766" stroke="#145A6C" stroke-width="4" stroke-miterlimit="10" stroke-linecap="round"/>
<path d="M23.8795 104.357L24.066 104.339" stroke="#145A6C" stroke-width="4" stroke-miterlimit="10" stroke-linecap="round"/>
<path d="M29.3807 103.619C43.1095 97.8642 58.5977 98.5137 73.4142 99.9322C81.4972 100.706 89.5959 101.687 97.4297 103.818C105.264 105.948 112.864 109.274 119.187 114.358" stroke="#145A6C" stroke-width="4" stroke-miterlimit="10" stroke-linecap="round"/>
<path d="M117.197 116.125C120.003 116.373 122.795 116.772 125.558 117.321C126.183 117.445 126.317 118.284 125.754 118.583C112.188 125.799 97.3735 130.359 82.9083 135.587C82.0586 135.894 81.1963 136.211 80.371 136.59C78.7582 137.33 78.7611 139.629 80.3531 140.411C85.5943 142.985 91.1549 144.911 96.8679 146.126" stroke="#145A6C" stroke-width="4" stroke-miterlimit="10" stroke-linecap="round"/>
</svg>
