<svg width="136" height="186" viewBox="0 0 136 186" fill="none" xmlns="http://www.w3.org/2000/svg">
<path d="M114.961 175.863C122.308 139.48 126.125 111.712 132.257 74.4399C132.818 71.0278 129.919 68.0034 126.468 67.8952C83.0728 66.5383 48.4984 67.1254 11.266 67.1493C7.6977 67.1521 3.71847 67.9823 3.07187 73.4566C2.90916 74.8346 3.03682 76.2309 3.31313 77.5893C10.0246 110.522 17.6801 143.26 26.2669 175.753C26.6302 177.13 27.0131 178.542 27.8561 179.687C30.2489 182.936 35.0403 182.245 39.0714 182.284C63.2945 182.52 80.9226 183.555 106.634 182.607C110.598 182.461 114.174 179.757 114.961 175.863Z" stroke="#145A6C" stroke-width="6" stroke-miterlimit="10" stroke-linecap="round"/>
<path d="M28.0078 66.9189C23.2319 64.8441 18.8768 61.8056 15.2777 58.0382C13.3295 55.9985 11.4935 53.1974 12.422 50.5327C13.2818 48.0688 16.1333 46.9351 18.7211 46.6289C25.1563 45.8676 31.6364 48.3905 36.8696 52.2183C42.1027 56.0462 46.2839 61.1103 50.3936 66.128" stroke="#26B994" stroke-width="6" stroke-miterlimit="10" stroke-linecap="round"/>
<path d="M120.439 67.2772C126.26 63.403 130.583 57.3289 132.342 50.5553C132.933 48.2824 133.241 45.8846 132.77 43.585C132.299 41.2855 130.958 39.0843 128.886 37.9843C126.727 36.8381 124.047 37.0207 121.794 37.9689C119.542 38.9171 117.648 40.5494 115.908 42.266C108.979 49.0958 103.81 57.704 101.037 67.0356" stroke="#26B994" stroke-width="6" stroke-miterlimit="10" stroke-linecap="round"/>
<path d="M50.8985 65.5941C39.5654 51.6858 34.5075 32.8371 37.352 15.1122C37.5947 13.6021 37.9453 11.9979 39.0478 10.9402C41.5529 8.53528 45.6667 10.5356 48.3626 12.7256C64.5726 25.8921 76.1091 44.7169 80.4923 65.1544" stroke="#26B994" stroke-width="6" stroke-miterlimit="10" stroke-linecap="round"/>
<path d="M100.318 65.7853C103.004 48.2276 102.283 21.8903 96.4809 5.10794C95.6772 2.78311 92.569 2.23948 91.0766 4.19346C86.1534 10.6412 82.4393 26.8546 81.3144 34.9543C79.9412 44.8366 80.7842 54.8776 81.63 64.8189" stroke="#26B994" stroke-width="6" stroke-miterlimit="10" stroke-linecap="round"/>
<path d="M32.9245 131.531C35.4421 131.531 37.483 129.487 37.483 126.966C37.483 124.444 35.4421 122.4 32.9245 122.4C30.4069 122.4 28.366 124.444 28.366 126.966C28.366 129.487 30.4069 131.531 32.9245 131.531Z" fill="#145A6C"/>
<path d="M49.131 132.975C51.6486 132.975 53.6895 130.931 53.6895 128.409C53.6895 125.888 51.6486 123.844 49.131 123.844C46.6134 123.844 44.5725 125.888 44.5725 128.409C44.5725 130.931 46.6134 132.975 49.131 132.975Z" fill="#145A6C"/>
<path d="M67.8529 131.882C70.3705 131.882 72.4114 129.838 72.4114 127.317C72.4114 124.795 70.3705 122.751 67.8529 122.751C65.3353 122.751 63.2944 124.795 63.2944 127.317C63.2944 129.838 65.3353 131.882 67.8529 131.882Z" fill="#145A6C"/>
<path d="M86.3791 132.975C88.8966 132.975 90.9376 130.931 90.9376 128.409C90.9376 125.888 88.8966 123.844 86.3791 123.844C83.8615 123.844 81.8206 125.888 81.8206 128.409C81.8206 130.931 83.8615 132.975 86.3791 132.975Z" fill="#145A6C"/>
<path d="M104.183 132.234C106.701 132.234 108.742 130.19 108.742 127.668C108.742 125.147 106.701 123.103 104.183 123.103C101.666 123.103 99.625 125.147 99.625 127.668C99.625 130.19 101.666 132.234 104.183 132.234Z" fill="#145A6C"/>
</svg>
