<svg width="94" height="117" viewBox="0 0 94 117" fill="none" xmlns="http://www.w3.org/2000/svg">
<path d="M11.1533 27.4566C9.92099 33.6924 12.7459 40.3512 17.5898 44.4588C22.4337 48.5665 29.0206 50.275 35.358 49.9256C41.5699 49.5831 47.7625 47.2836 52.2823 43.0019C56.8016 38.7198 59.4812 32.382 58.7995 26.1884" stroke="#145A6C" stroke-width="4" stroke-miterlimit="10" stroke-linecap="round"/>
<path d="M10.9276 34.2857C9.71825 36.5576 8.50935 38.8291 7.29998 41.101C6.82962 41.9849 6.20201 42.979 5.20582 43.069C3.59394 43.2145 2.93012 41.0592 2.87098 39.4393C2.66973 33.9459 2.85815 28.3845 4.24401 23.0656C5.62988 17.7467 8.28838 12.6523 12.4217 9.03549C16.5701 5.40536 21.9701 3.4553 27.415 2.6155C32.8599 1.77569 38.4043 1.97313 43.9092 2.18021C48.9626 2.37031 54.3782 2.69218 58.3822 5.78646C61.8099 8.43582 63.586 12.673 64.8728 16.8137C67.1366 24.0978 68.3386 31.7116 68.4303 39.3397C68.4523 41.1772 68.0544 43.4987 66.2765 43.9524C64.6615 44.3647 63.2325 42.8499 62.3647 41.4247C60.5502 38.4461 59.322 35.1108 58.7709 31.6652" stroke="#145A6C" stroke-width="4" stroke-miterlimit="10" stroke-linecap="round"/>
<path d="M86.0969 84.4826C89.2074 92.0564 89.8135 100.638 87.7987 108.575C87.5887 109.402 87.3489 110.257 87.4979 111.098C87.7432 112.481 89.0231 113.5 90.3838 113.842C93.4123 114.605 96.5728 112.499 98.065 109.752C99.5572 107.004 99.7713 103.766 99.9538 100.643C100.327 94.254 100.701 87.8648 101.074 81.4755" stroke="#145A6C" stroke-width="4" stroke-miterlimit="10" stroke-linecap="round"/>
<path d="M44.0681 79.9887C45.4017 89.273 45.3751 98.7524 43.9892 108.029C43.8513 108.952 43.7096 109.943 44.1213 110.781C44.8112 112.184 46.6532 112.477 48.2142 112.523C51.0405 112.605 54.3372 112.208 55.8312 109.803C56.6427 108.497 56.7174 106.88 56.7687 105.343C57.0443 97.1141 57.3193 88.8854 57.5948 80.6568" stroke="#145A6C" stroke-width="4" stroke-miterlimit="10" stroke-linecap="round"/>
<path d="M23.5847 55.8571C25.1975 61.5897 26.847 67.4077 29.9777 72.4709C33.1084 77.5345 37.9743 81.8332 43.8276 82.881" stroke="#145A6C" stroke-width="4" stroke-miterlimit="10" stroke-linecap="round"/>
<path d="M67.7107 25.3936C78.8265 24.281 90.0991 24.7521 101.084 26.7885C115.802 29.5173 130.142 35.0511 145.11 35.1425C146.146 35.1489 147.456 35.3188 147.751 36.3138C147.951 36.9883 147.538 37.6793 147.121 38.2455C143.3 43.4349 137.467 47.0972 131.139 48.2795" stroke="#145A6C" stroke-width="4" stroke-miterlimit="10" stroke-linecap="round"/>
<path d="M13.7237 41.5014C15.5739 55.543 17.427 69.6168 17.7795 83.7759C17.8904 88.2307 17.8478 92.7745 16.7457 97.12C16.2148 99.2129 15.5217 100.515 14.3105 102.004C13.3711 103.159 12.4066 104.052 12.9407 105.744C13.4871 107.475 15.2792 108.589 17.079 108.801C18.8788 109.012 20.6833 108.473 22.3625 107.79C24.0354 107.11 25.7156 106.222 26.7448 104.736C27.8345 103.164 28.0371 101.159 28.1788 99.2501C28.9242 89.1949 28.8976 79.0824 28.1004 69.0309" stroke="#145A6C" stroke-width="4" stroke-miterlimit="10" stroke-linecap="round"/>
<path d="M57.8972 85.1593C70.7478 86.5556 83.844 85.6511 96.3815 82.5008C100.873 81.3722 105.518 79.8184 108.621 76.376" stroke="#145A6C" stroke-width="4" stroke-miterlimit="10" stroke-linecap="round"/>
<path d="M17.128 18.4037C16.1153 18.3018 15.1319 19.2293 15.1489 20.2482C15.1659 21.2671 16.1529 22.1556 17.1683 22.0881C18.1838 22.0206 19.0388 21.0347 18.9888 20.0168C18.9388 18.9988 18.1453 18.4386 17.1284 18.4033" fill="#145A6C"/>
<path d="M17.1275 17.715C16.0117 17.6222 15.0008 18.4111 14.6084 19.418C14.1917 20.487 14.6992 21.6399 15.5803 22.2901C16.4344 22.92 17.6314 22.9375 18.4923 22.3112C19.3776 21.6675 19.8709 20.5668 19.6004 19.48C19.3166 18.3399 18.2292 17.7637 17.128 17.7155C16.7681 17.6998 16.4243 18.0438 16.4403 18.4042C16.4578 18.7908 16.7425 19.076 17.128 19.0929C17.1812 19.0952 17.2339 19.1003 17.2866 19.103C17.3288 19.1049 17.4104 19.0929 17.2582 19.0971C17.3338 19.0952 17.4324 19.1283 17.5053 19.1471C17.5736 19.1646 17.646 19.2022 17.7148 19.2123C17.8074 19.2261 17.5704 19.1384 17.7043 19.2068C17.746 19.2279 17.7882 19.2477 17.829 19.2706C17.867 19.2922 18.0027 19.3537 18.0206 19.3955C18.0036 19.356 17.9243 19.3101 17.9862 19.3735C18.0178 19.4056 18.0518 19.4346 18.0825 19.4676C18.0907 19.4763 18.1439 19.5319 18.1421 19.5347C18.1421 19.5351 18.0568 19.4001 18.1288 19.5213C18.1508 19.5585 18.2604 19.6949 18.2507 19.7413C18.2562 19.7146 18.2076 19.6136 18.2333 19.7078C18.2461 19.7546 18.2626 19.7996 18.2746 19.8469C18.2824 19.879 18.2879 19.9116 18.2957 19.9438C18.3342 20.1026 18.2934 19.834 18.2957 19.9387C18.2975 20.0186 18.3053 20.098 18.3016 20.1784C18.2998 20.2262 18.3222 20.3745 18.3044 20.2069C18.3094 20.2532 18.2833 20.3194 18.2723 20.363C18.2526 20.4406 18.2251 20.515 18.1998 20.5907C18.1668 20.6908 18.2755 20.447 18.1948 20.5972C18.1778 20.6284 18.1627 20.6605 18.1453 20.6917C18.1017 20.7698 18.0518 20.8428 18.0009 20.9163C18.0857 20.7932 18.0178 20.8924 17.9913 20.9227C17.95 20.9695 17.9074 21.015 17.8624 21.0582C17.8368 21.0829 17.8097 21.1059 17.7836 21.1302C17.6593 21.2459 17.8643 21.0811 17.7767 21.138C17.7098 21.1817 17.6456 21.2276 17.5754 21.2666C17.5369 21.2882 17.4961 21.3056 17.4576 21.3268C17.3664 21.3768 17.6117 21.2772 17.4507 21.3277C17.3572 21.3571 17.2646 21.3786 17.1697 21.4021C17.0675 21.4269 17.338 21.3961 17.1674 21.4002C17.1317 21.4011 17.0964 21.4039 17.0606 21.4039C17.0244 21.4039 16.9332 21.4149 16.9015 21.3966C16.9112 21.4021 17.0634 21.4292 16.9272 21.3993C16.8406 21.38 16.7558 21.3607 16.6714 21.3318C16.6379 21.3203 16.6049 21.3075 16.5719 21.2946C16.7273 21.3552 16.5783 21.2923 16.5435 21.274C16.4646 21.2317 16.3922 21.1812 16.3175 21.133C16.4408 21.2124 16.3422 21.1527 16.3097 21.1252C16.2758 21.0963 16.2432 21.066 16.2111 21.0352C16.1777 21.0021 16.0071 20.7969 16.1084 20.9342C16.0557 20.863 16.0076 20.7886 15.9645 20.7115C15.9429 20.6729 15.9255 20.6325 15.9049 20.5935C15.8563 20.5016 15.9535 20.7478 15.9049 20.5866C15.8866 20.5255 15.8187 20.3901 15.838 20.3313C15.8352 20.34 15.8485 20.4984 15.8416 20.3566C15.8393 20.312 15.8361 20.2679 15.8361 20.2229C15.8361 20.1913 15.8251 20.1155 15.8416 20.0898C15.8279 20.1761 15.8251 20.1931 15.8338 20.1412C15.838 20.115 15.843 20.0889 15.8485 20.0631C15.8577 20.02 15.8691 19.9773 15.882 19.935C15.8934 19.8965 15.9704 19.7206 15.8962 19.8767C15.9342 19.7968 15.975 19.7183 16.0227 19.6435C16.025 19.6403 16.1208 19.4938 16.0608 19.5824C16.008 19.66 16.1295 19.5039 16.1437 19.4883C16.2047 19.4231 16.2707 19.3638 16.3386 19.306C16.2116 19.4148 16.3445 19.3051 16.3711 19.2876C16.4156 19.2587 16.461 19.2311 16.5077 19.2059C16.5389 19.1889 16.571 19.1747 16.6022 19.1581C16.4569 19.2344 16.5935 19.1623 16.6338 19.1485C16.6838 19.132 16.7342 19.1173 16.7856 19.1049L16.8369 19.0934C16.9148 19.0796 16.9057 19.0801 16.8099 19.0939C16.8085 19.0824 17.111 19.0916 17.128 19.0929C17.4874 19.1228 17.8308 18.755 17.8152 18.4042C17.7973 18.0056 17.5131 17.7476 17.128 17.7155L17.1275 17.715Z" fill="#145A6C"/>
<path d="M50.7735 18.5507C49.8429 18.694 49.1634 19.7115 49.3363 20.639C49.5091 21.5665 50.4572 22.2612 51.397 22.2001C52.5036 22.1285 53.4315 21.0196 53.3082 19.9158C53.1849 18.812 52.0347 17.9359 50.9399 18.1113" fill="#145A6C"/>
<path d="M50.5901 17.8863C49.5068 18.0736 48.7417 19.0897 48.633 20.1444C48.5161 21.2799 49.3083 22.285 50.3178 22.7001C51.3273 23.1152 52.4904 22.8108 53.2243 22.0178C53.9963 21.184 54.2224 20.015 53.7327 18.9795C53.4943 18.4754 53.0597 18.0415 52.5775 17.7687C52.009 17.4473 51.397 17.3546 50.7565 17.4469C50.3994 17.4983 50.172 17.9712 50.2761 18.294C50.4026 18.6857 50.7391 18.8303 51.1219 18.7752C50.9491 18.8 51.2324 18.7771 51.2737 18.778C51.3356 18.7798 51.5157 18.8133 51.3676 18.7812C51.4589 18.8009 51.5487 18.8193 51.6377 18.8478C51.673 18.8592 51.7078 18.8739 51.7431 18.8845C51.5982 18.8418 51.7518 18.8891 51.7839 18.9052C51.8591 18.9428 51.932 18.9851 52.0026 19.031C52.042 19.0567 52.0801 19.0833 52.1181 19.1109C52.0966 19.0953 52.0177 19.0236 52.1103 19.1086C52.1727 19.1655 52.2346 19.222 52.2919 19.2844C52.3235 19.3189 52.3538 19.3542 52.384 19.39C52.3084 19.2996 52.3776 19.3836 52.4083 19.4314C52.4491 19.4938 52.4862 19.5581 52.5202 19.6242C52.5225 19.6288 52.5876 19.7927 52.5541 19.6945C52.5197 19.5934 52.5756 19.7675 52.5761 19.7693C52.5981 19.8409 52.6128 19.9135 52.6284 19.9865C52.5963 19.8354 52.6242 19.9562 52.627 20.0003C52.6306 20.0572 52.6316 20.1141 52.6297 20.1711C52.6284 20.2184 52.6242 20.2652 52.6201 20.3125C52.6224 20.2854 52.6481 20.1711 52.6187 20.2973C52.5995 20.3804 52.5802 20.4626 52.5532 20.5439C52.5413 20.5793 52.4922 20.6982 52.5509 20.565C52.5358 20.5999 52.5192 20.6344 52.5023 20.6679C52.4592 20.7533 52.406 20.8318 52.3574 20.9135C52.2666 21.0664 52.4156 20.8538 52.345 20.9347C52.3139 20.9705 52.2836 21.0077 52.2515 21.0426C52.1997 21.0986 52.1452 21.1518 52.0879 21.2023C52.0869 21.2033 51.9412 21.3135 52.0246 21.2561C52.1094 21.1978 51.9535 21.3006 51.9544 21.3001C51.8742 21.3511 51.7908 21.3943 51.7055 21.4356C51.8353 21.3722 51.7229 21.4269 51.6858 21.4393C51.6413 21.4544 51.5959 21.4682 51.5501 21.4801C51.4933 21.4948 51.3039 21.5155 51.4534 21.5054C51.3566 21.5118 51.2631 21.5095 51.1664 21.51C51.1334 21.51 51.0339 21.4907 51.1783 21.516C51.1215 21.5059 51.0655 21.4958 51.0096 21.482C50.9253 21.4613 50.845 21.4319 50.7634 21.4035C50.6626 21.3681 50.8968 21.482 50.7437 21.3911C50.7107 21.3718 50.6754 21.3552 50.6424 21.3364C50.6094 21.3176 50.5764 21.2974 50.5443 21.2763C50.5452 21.2767 50.3925 21.1679 50.4732 21.2299C50.5539 21.2919 50.4095 21.173 50.4104 21.1734C50.3682 21.1349 50.327 21.0944 50.288 21.0522C50.2619 21.0242 50.2385 20.9943 50.2124 20.9663C50.2981 21.06 50.2344 20.9976 50.2165 20.9691C50.1656 20.8878 50.1184 20.8079 50.073 20.7234C50.0547 20.689 50.0418 20.6109 50.0753 20.7308C50.0652 20.6945 50.0501 20.6587 50.0391 20.6224C50.0258 20.577 50.0194 20.5278 50.0047 20.4833C49.9951 20.431 49.9955 20.4456 50.007 20.5288C50.0038 20.5012 50.0015 20.4737 50.0001 20.4461C49.9937 20.3451 49.9969 20.2445 50.0084 20.144C50.0052 20.1711 49.979 20.2868 50.0107 20.1642C50.0244 20.1105 50.0359 20.0572 50.0524 20.0039C50.0634 19.9686 50.0762 19.9346 50.0881 19.8992C50.0386 20.0494 50.0895 19.897 50.1078 19.8616C50.1542 19.7702 50.2101 19.6876 50.2665 19.6026C50.3238 19.5163 50.1569 19.711 50.2798 19.5916C50.3192 19.5535 50.3545 19.5113 50.3944 19.4731C50.421 19.4479 50.4498 19.4254 50.4764 19.4001C50.3682 19.5039 50.4819 19.3983 50.5131 19.3786C50.5434 19.3588 50.575 19.34 50.6066 19.3225C50.6644 19.2904 50.7492 19.2587 50.6392 19.2996C50.7433 19.261 50.8469 19.233 50.9564 19.2142C51.3117 19.1527 51.5432 18.6967 51.4369 18.367C51.3131 17.9836 50.9716 17.8202 50.591 17.8858L50.5901 17.8863Z" fill="#145A6C"/>
<path d="M23.8201 34.1948C25.0533 33.0358 26.0022 31.5775 26.5698 29.9824C26.645 29.7717 26.942 29.7919 26.9902 30.01C27.1786 30.8645 27.439 31.7029 27.853 32.4711C28.4031 33.4918 29.2512 34.3876 30.3322 34.805" stroke="#145A6C" stroke-width="4" stroke-miterlimit="10" stroke-linecap="round"/>
<path d="M23.6457 22.7277C22.9282 22.9279 22.4372 23.6607 22.3859 24.4045C22.3345 25.1484 22.6642 25.8812 23.1483 26.4478C23.6324 27.0144 24.2614 27.4364 24.9 27.8198C25.6931 28.2964 26.5751 28.7386 27.4957 28.6545C28.6441 28.5503 29.5536 27.6632 30.2935 26.7775C30.8657 26.0929 31.4318 25.2283 31.1866 24.3701C30.9184 23.432 29.8332 23.0202 28.8751 22.8443C26.9854 22.4972 25.5175 22.2938 23.6457 22.7277Z" fill="#145A6C"/>
<path d="M23.4629 22.0633C21.5732 22.6781 21.2926 24.9555 22.3003 26.4597C22.8224 27.2394 23.5729 27.8097 24.3619 28.2977C25.1788 28.8033 26.0645 29.2707 27.0387 29.3437C28.9037 29.4833 30.5279 27.8684 31.4278 26.3876C31.9193 25.5786 32.1347 24.573 31.6502 23.7075C31.2637 23.0174 30.5407 22.6124 29.8141 22.3709C28.8537 22.0518 27.7754 21.9338 26.7719 21.8415C25.6588 21.7391 24.5535 21.8199 23.4629 22.0633C22.5992 22.2561 22.965 23.5849 23.8287 23.3921C25.2343 23.0785 26.6312 23.1538 28.0418 23.393C28.8651 23.5326 30.764 23.7415 30.5403 24.9913C30.4257 25.6319 29.9086 26.1957 29.4868 26.6608C29.0696 27.1205 28.5993 27.5819 28.017 27.8234C26.7499 28.3487 25.2384 27.345 24.2771 26.5786C23.7269 26.1401 23.2144 25.5602 23.0925 24.8435C22.9944 24.2668 23.2332 23.5863 23.8287 23.3925C24.6667 23.1198 24.3082 21.7891 23.4629 22.0642V22.0633Z" fill="#145A6C"/>
</svg>
