<svg width="355" height="408" viewBox="0 0 355 408" fill="none" xmlns="http://www.w3.org/2000/svg">
<path d="M76.3275 266.362C75.9356 264.849 75.801 263.158 76.5699 261.796C77.3387 260.434 79.279 259.669 80.5482 260.584C80.2305 259.73 79.9634 258.838 79.9848 257.927C80.0061 257.016 80.3539 256.077 81.0756 255.519C81.7973 254.962 82.9207 254.898 83.5939 255.512" stroke="#145A6C" stroke-width="4" stroke-linecap="round" stroke-linejoin="round"/>
<path d="M93.5029 244.733C93.8536 243.647 94.9066 242.824 96.0475 242.744C97.1883 242.664 98.3457 243.333 98.8445 244.36" stroke="#145A6C" stroke-width="4" stroke-linecap="round" stroke-linejoin="round"/>
<path d="M120.807 256.314C121.867 256.472 122.795 257.303 123.07 258.337C123.344 259.372 122.949 260.552 122.106 261.214" stroke="#145A6C" stroke-width="4" stroke-linecap="round" stroke-linejoin="round"/>
<path d="M77.624 284.174C77.2063 285.363 77.5016 286.771 78.3617 287.693C79.2219 288.615 80.609 289.008 81.8256 288.675" stroke="#145A6C" stroke-width="4" stroke-linecap="round" stroke-linejoin="round"/>
<path d="M88.6399 278.294C89.6428 279.646 91.4744 280.326 93.1179 279.958C94.7615 279.589 96.1258 278.191 96.4532 276.542C98.8471 277.539 101.953 275.91 102.488 273.376C101.967 274.909 102.452 276.733 103.668 277.805C104.884 278.877 106.757 279.133 108.216 278.426" stroke="#145A6C" stroke-width="4" stroke-linecap="round" stroke-linejoin="round"/>
<path d="M103.463 303.907C105.762 305.161 109.078 303.501 109.447 300.912C110.963 302.246 113.305 302.551 115.113 301.649C116.921 300.747 118.083 298.694 117.925 296.682C122.633 297.113 127.226 292.872 127.162 288.151C129.35 288.459 131.671 287.303 132.741 285.373C133.811 283.444 133.559 280.866 132.137 279.179C133.777 277.438 133.377 274.232 131.36 272.944C131.99 271.786 131.984 270.306 131.345 269.153C133.737 268.54 134.55 264.87 132.64 263.308C135.681 262.117 136.476 257.888 135.089 254.934C133.703 251.981 130.856 250.03 128.137 248.223C127.282 247.655 126.427 247.087 125.572 246.518C124.702 242.133 120.934 238.471 116.521 237.722C115.892 233.386 111.349 230.023 107.012 230.68C106.472 228.855 105.264 227.258 103.731 226.127C101.661 224.601 98.856 223.925 96.4397 224.81C94.0234 225.696 92.2424 228.338 92.7543 230.856C89.7479 229.183 85.8804 227.538 83.0969 229.56C81.9225 230.413 81.2328 231.761 80.3139 232.883C78.8214 234.705 76.7013 235.95 75.2875 237.834C73.8737 239.717 73.4647 242.775 75.3579 244.178C73.4176 243.076 70.7177 243.569 69.2927 245.284C66.6107 244.789 63.6883 246.01 62.1603 248.266C60.6323 250.522 60.5843 253.685 62.0428 255.986C60.3691 256.746 59.217 258.532 59.217 260.368C59.217 262.204 60.3686 263.99 62.0423 264.75C62.0423 264.75 59.3797 270.134 63.8228 273.184C65.055 274.03 60.9247 274.285 60.4113 275.687C59.898 277.09 60.306 278.782 61.4026 279.797C60.0665 281.517 59.8028 284.002 60.7484 285.964C61.6941 287.925 63.8039 289.269 65.9832 289.3C66.6 292.326 68.534 295.06 71.1834 296.654C73.8329 298.247 77.1579 298.676 80.1254 297.805C80.1439 298.888 80.1662 299.995 80.5363 301.014C80.9064 302.033 81.6942 302.965 82.7511 303.212C83.5486 303.399 84.3791 303.179 85.198 303.18C86.827 303.182 88.3224 304.045 89.9189 304.367C91.5153 304.69 93.5795 304.142 93.9253 302.552" stroke="#145A6C" stroke-width="4" stroke-linecap="round" stroke-linejoin="round"/>
<path d="M95.0595 359.137C89.3906 358.934 83.6905 359.612 78.2275 361.139C77.1876 361.43 76.1254 361.768 75.3017 362.465C74.478 363.161 73.9447 364.308 74.2691 365.336C74.7155 366.752 77.0823 367.879 78.5466 368.133C88.0476 369.783 97.8969 370.122 107.526 369.588C113.709 369.245 121.709 369.224 127.601 367.325C128.443 367.053 130.223 366.019 130.839 365.385C131.456 364.751 131.371 363.163 130.903 362.413C130.459 361.701 129.538 361.484 128.711 361.339C121.751 360.117 111.599 359.146 104.532 359.246" stroke="#145A6C" stroke-width="4" stroke-linecap="round" stroke-linejoin="round"/>
<path d="M74.5862 363.044C73.7668 363.472 73.5822 364.545 73.5327 365.467C73.4001 367.93 73.5463 370.409 73.9669 372.841C74.1204 373.728 74.4876 374.788 75.3774 374.932C75.3774 374.932 95.6694 382.711 128.996 374.731C131.566 374.116 132.432 366.914 131 362.881" stroke="#145A6C" stroke-width="4" stroke-linecap="round" stroke-linejoin="round"/>
<path d="M76.4421 375.408C76.4421 375.408 82.5132 397.958 84.0514 400.14C85.5896 402.323 90.1225 403.778 94.2509 404.344C98.3792 404.909 101.374 405.475 101.374 405.475C101.374 405.475 116.593 405.313 119.669 403.859C122.745 402.404 123.878 399.656 123.878 399.656C123.878 399.656 127.764 379.287 128.331 375.004" stroke="#145A6C" stroke-width="4" stroke-linecap="round" stroke-linejoin="round"/>
<path d="M94.9592 279.548C95.408 309.535 95.8568 339.521 96.3051 369.507" stroke="#145A6C" stroke-width="4" stroke-linecap="round" stroke-linejoin="round"/>
<path d="M103.397 277.447C103.026 306.896 103.855 340.071 104.773 369.507" stroke="#145A6C" stroke-width="4" stroke-linecap="round" stroke-linejoin="round"/>
<path d="M78.6951 381.544C79.1905 380.975 80.0113 380.808 80.7651 380.84C82.2251 380.902 83.6729 381.644 84.4548 382.877C85.2368 384.11 85.2621 385.819 84.4024 386.998C83.5427 388.178 81.7991 388.667 80.5043 387.991" stroke="#145A6C" stroke-width="4" stroke-linecap="round" stroke-linejoin="round"/>
<path d="M98.9967 386.789C99.442 388.88 101.711 390.399 103.817 390.018C105.923 389.636 107.513 387.417 107.194 385.304C106.88 383.222 104.459 381.28 102.3 381.671C100.141 382.062 98.5581 384.73 98.9967 386.789Z" stroke="#145A6C" stroke-width="4" stroke-linecap="round" stroke-linejoin="round"/>
<path d="M127.182 382.161C126.452 380.949 124.841 380.409 123.471 380.773C122.102 381.136 121.018 382.292 120.561 383.631C120.06 385.103 120.305 386.853 121.348 388.007C122.391 389.161 124.248 389.563 125.593 388.78" stroke="#145A6C" stroke-width="4" stroke-linecap="round" stroke-linejoin="round"/>
<path d="M246.41 281.453C246.068 284.005 247.569 286.688 249.91 287.756C252.251 288.824 255.241 288.21 256.993 286.322C258.744 284.435 259.14 281.425 257.963 279.136C255.171 273.709 247.189 275.649 246.41 281.453Z" stroke="#145A6C" stroke-width="4" stroke-linecap="round" stroke-linejoin="round"/>
<path d="M209.669 248.932C199.677 262.964 196.238 281.101 198.617 298.167C199.847 306.992 202.655 315.797 208.162 322.799C213.316 329.353 220.621 334.018 228.468 336.825C236.315 339.633 244.705 340.665 253.038 340.8C260.639 340.923 268.357 340.291 275.5 337.69C285.528 334.038 293.934 326.611 299.839 317.716C311.47 300.195 313.297 276.442 303.971 257.591C297.467 244.444 285.636 234.135 271.92 229.071C258.023 223.941 242.238 225.074 229.103 231.976C221.428 236.008 214.7 241.867 209.669 248.932H209.669Z" stroke="#145A6C" stroke-width="4" stroke-linecap="round" stroke-linejoin="round"/>
<path d="M251.255 269.189C251.024 258.01 250.793 246.831 250.562 235.651" stroke="#145A6C" stroke-width="4" stroke-linecap="round" stroke-linejoin="round"/>
<path d="M262.571 272.512C268.3 262.857 273.742 253.032 278.887 243.053" stroke="#145A6C" stroke-width="4" stroke-linecap="round" stroke-linejoin="round"/>
<path d="M266.039 281.102C277.265 278.714 288.395 275.871 299.393 272.584" stroke="#145A6C" stroke-width="4" stroke-linecap="round" stroke-linejoin="round"/>
<path d="M218.394 249.378C225.981 257.816 233.568 266.255 241.155 274.694" stroke="#145A6C" stroke-width="4" stroke-linecap="round" stroke-linejoin="round"/>
<path d="M261.673 289.819C274.628 295.124 287.584 300.428 300.539 305.733" stroke="#145A6C" stroke-width="4" stroke-linecap="round" stroke-linejoin="round"/>
<path d="M255.019 294.399C258.014 308.288 260.694 322.244 263.056 336.254" stroke="#145A6C" stroke-width="4" stroke-linecap="round" stroke-linejoin="round"/>
<path d="M227.185 328.811C233.365 316.752 239.545 304.692 245.725 292.633" stroke="#145A6C" stroke-width="4" stroke-linecap="round" stroke-linejoin="round"/>
<path d="M204.976 290.339C216.737 289.287 228.463 287.836 240.126 285.987" stroke="#145A6C" stroke-width="4" stroke-linecap="round" stroke-linejoin="round"/>
<path d="M188.976 352.743C189.282 353.13 189.784 353.299 190.271 353.266C190.759 353.232 191.233 352.996 191.484 352.572C192.961 350.07 187.171 350.462 188.976 352.743Z" stroke="#145A6C" stroke-width="4" stroke-linecap="round" stroke-linejoin="round"/>
<path d="M317.357 216.394C317.031 217.045 317.212 217.898 317.747 218.392C318.282 218.885 319.117 219.001 319.785 218.713C320.501 218.404 321.007 217.602 320.868 216.835C320.6 215.351 318.013 215.089 317.357 216.394Z" stroke="#145A6C" stroke-width="4" stroke-linecap="round" stroke-linejoin="round"/>
<path d="M316.81 352.428C316.766 353.361 317.562 354.254 318.493 354.316C319.425 354.379 320.332 353.602 320.415 352.672C320.624 350.308 316.921 350.047 316.81 352.428Z" stroke="#145A6C" stroke-width="4" stroke-linecap="round" stroke-linejoin="round"/>
<path d="M386.379 347.489C386.241 348.875 382.917 350.122 382.363 350.261C381.809 350.4 335.002 349.152 334.31 349.152C333.617 349.152 332.232 348.875 330.848 348.044C329.463 347.212 329.463 346.519 329.463 346.519L329.048 344.994L328.771 223.318L329.324 221.793L331.679 218.051L332.925 217.774L382.225 217.497" stroke="#145A6C" stroke-width="4" stroke-linecap="round" stroke-linejoin="round"/>
<path d="M339.435 259.466C351.892 259.966 364.36 260.17 376.826 260.078" stroke="#145A6C" stroke-width="4" stroke-linecap="round" stroke-linejoin="round"/>
<path d="M338.463 283.581C352.035 283.451 365.607 283.321 379.179 283.191" stroke="#145A6C" stroke-width="4" stroke-linecap="round" stroke-linejoin="round"/>
<path d="M339.021 307.159C351.852 306.868 364.693 307.022 377.514 307.621" stroke="#145A6C" stroke-width="4" stroke-linecap="round" stroke-linejoin="round"/>
<path d="M340.545 330.025C353.238 330.192 365.93 330.358 378.623 330.526" stroke="#145A6C" stroke-width="4" stroke-linecap="round" stroke-linejoin="round"/>
<path d="M184.412 208.479C182.584 209.202 181.255 211.047 181.146 213.012" stroke="#145A6C" stroke-width="4" stroke-linecap="round" stroke-linejoin="round"/>
<path d="M181.057 213.571V352.894" stroke="#145A6C" stroke-width="4" stroke-linecap="round" stroke-linejoin="round"/>
<path d="M181.307 355.899C180.967 357.66 182.595 359.514 184.384 359.402" stroke="#145A6C" stroke-width="4" stroke-linecap="round" stroke-linejoin="round"/>
<path d="M184.935 358.807H396.165C396.165 358.807 399.858 358.622 400.412 357.329V209.875C400.412 209.875 400.412 208.028 399.12 207.473H392.472" stroke="#145A6C" stroke-width="4" stroke-linecap="round" stroke-linejoin="round"/>
<path d="M186.228 207.658H390.442" stroke="#145A6C" stroke-width="4" stroke-linecap="round" stroke-linejoin="round"/>
<path d="M507.966 144.972H293.043C291.897 144.979 290.893 143.812 291.07 142.679L290.851 136.973C290.562 136.104 291.296 135.06 292.211 135.039H507.966" stroke="#145A6C" stroke-width="4" stroke-linecap="round" stroke-linejoin="round"/>
<path d="M296.92 134.763L296.366 2" stroke="#145A6C" stroke-width="4" stroke-linecap="round" stroke-linejoin="round"/>
<path d="M309.661 2L311.322 120.351H404.382V2" stroke="#145A6C" stroke-width="4" stroke-linecap="round" stroke-linejoin="round"/>
<path d="M197.491 359.546L198.045 366.752" stroke="#145A6C" stroke-width="4" stroke-miterlimit="10" stroke-linecap="round"/>
<path d="M215.401 359.362L215.586 367.122" stroke="#145A6C" stroke-width="4" stroke-miterlimit="10" stroke-linecap="round"/>
<path fill-rule="evenodd" clip-rule="evenodd" d="M224.684 399.652C225.469 399.657 226.146 399.03 226.449 398.306C226.752 397.581 226.759 396.772 226.762 395.986C226.783 389.301 226.804 382.616 226.825 375.931C226.831 373.976 226.124 370.848 225.387 369.038C225.018 368.131 224.063 367.383 223.108 367.592L188.084 367.904C186.919 368.457 186.172 369.668 185.863 370.922C185.554 372.175 185.622 373.488 185.691 374.777C186.078 381.96 186.464 389.144 186.85 396.327C186.94 397.989 187.278 400.009 188.839 400.584L224.684 399.652Z" stroke="#145A6C" stroke-width="4" stroke-miterlimit="10" stroke-linecap="round"/>
<path d="M201.921 368.046L202.778 378.677C202.815 379.143 203.204 379.502 203.671 379.502H207.227C207.677 379.502 208.057 379.167 208.115 378.72L209.492 368.045" stroke="#145A6C" stroke-width="4" stroke-miterlimit="10" stroke-linecap="round"/>
<path d="M207.092 216.528H193.983C192.453 216.528 191.213 217.769 191.213 219.299C191.213 220.83 192.453 222.071 193.983 222.071H207.092C208.622 222.071 209.862 220.83 209.862 219.299C209.862 217.769 208.622 216.528 207.092 216.528Z" stroke="#145A6C" stroke-width="4" stroke-miterlimit="10" stroke-linecap="round"/>
<path d="M145.913 2C145.87 110.003 144.91 292.564 144.867 400.567" stroke="#145A6C" stroke-width="4" stroke-miterlimit="10" stroke-linecap="round"/>
<path d="M-19.3906 400.779C14.889 400.779 49.1765 400.779 83.4576 400.779" stroke="#145A6C" stroke-width="4" stroke-miterlimit="10" stroke-linecap="round"/>
<path d="M124.209 400.779C145.715 400.779 167.226 400.779 188.732 400.779" stroke="#145A6C" stroke-width="4" stroke-miterlimit="10" stroke-linecap="round"/>
<path d="M226.668 398.925C227.217 396.406 229.65 394.431 232.226 394.414C234.803 394.396 237.261 396.338 237.844 398.85C238.122 397.181 239.91 395.924 241.573 396.229C243.236 396.534 244.462 398.344 244.13 400.003C245.329 398.528 246.552 397.03 248.128 395.968C249.704 394.906 251.714 394.324 253.533 394.873C255.352 395.423 256.801 397.327 256.426 399.191C257.062 396.03 263.521 399.733 264.444 400.173C267.718 401.731 272.197 400.957 276.108 400.856C285.312 400.618 294.516 400.427 303.722 400.282C322.133 399.991 340.547 399.886 358.96 399.965" stroke="#145A6C" stroke-width="4" stroke-linecap="round" stroke-linejoin="round"/>
<path d="M145.976 379.225H182.535" stroke="#145A6C" stroke-width="4" stroke-miterlimit="10" stroke-linecap="round"/>
<path d="M227.678 378.394H357.574" stroke="#145A6C" stroke-width="4" stroke-miterlimit="10" stroke-linecap="round"/>
<path d="M356.744 118.549V2" stroke="#145A6C" stroke-width="4" stroke-linecap="round" stroke-linejoin="round"/>
<path d="M313.122 66.3032H402.859" stroke="#145A6C" stroke-width="4" stroke-linecap="round" stroke-linejoin="round"/>
<path d="M324.855 38.1006L329.421 31.4456" stroke="#145A6C" stroke-width="4" stroke-linecap="round" stroke-linejoin="round"/>
<path d="M324.904 47.2907C329.298 41.4424 333.693 35.5944 338.088 29.746" stroke="#145A6C" stroke-width="4" stroke-linecap="round" stroke-linejoin="round"/>
<path d="M-524 188.292C-520.228 187.667 -515.816 188.423 -512.534 190.387C-507.543 185.21 -498.566 184.574 -492.896 188.996C-489.945 187.996 -486.509 188.578 -484.05 190.493C-481.349 187.422 -477.294 185.59 -473.206 185.594C-469.119 185.597 -465.067 187.436 -462.371 190.51C-459.659 189.395 -456.455 189.547 -453.86 190.914C-451.229 186.487 -445.196 184.451 -440.423 186.38C-435.054 182.067 -426.354 182.771 -421.748 187.891C-420.111 185.412 -415.85 185.422 -414.225 187.908C-414.225 187.908 -410.999 181.744 -408.229 183.407C-405.46 185.07 -396.597 182.298 -394.658 183.407C-392.719 184.515 -388.011 183.407 -386.349 185.901C-384.687 188.396 -379.979 179.803 -376.932 183.684C-373.885 187.564 -368.346 178.141 -363.361 180.912C-358.376 183.683 -354.775 183.407 -353.113 185.624C-351.451 187.841 -347.574 180.081 -343.42 182.575C-339.265 185.07 -335.111 183.684 -331.233 185.07C-327.356 186.455 -325.14 181.189 -323.202 184.515C-323.202 184.515 -314.154 177.817 -308.615 180.404C-303.076 182.991 -301.929 177.464 -293.363 184.477C-289.257 187.838 -282.254 184.368 -279.313 188.786C-271.059 182.791 -259.124 182.421 -250.516 187.894C-246.998 185.062 -241.561 184.945 -237.923 187.621C-233.443 186.311 -228.429 186.948 -224.418 189.337C-219.728 184.223 -211.252 183.139 -205.427 186.908C-203.227 185.223 -199.698 185.685 -198.005 187.878C-193.102 182.857 -185.344 182.321 -178.333 182.098C-173.75 181.952 -168.149 182.382 -166.135 186.505C-163.287 183.962 -159.296 182.753 -155.516 183.288C-152.552 179.9 -147.022 179.137 -143.252 181.596C-137.22 180.711 -130.888 182.044 -125.724 185.287C-126.053 185.081 -122.31 182.986 -121.944 182.879C-120.337 182.405 -118.557 182.431 -116.95 182.886C-115.404 183.325 -114.155 184.629 -112.554 184.718C-110.351 184.841 -108.76 183.361 -106.368 184.216C-105.678 184.462 -105.014 184.829 -104.283 184.89C-103.269 184.975 -102.317 184.463 -101.368 184.094C-97.76 182.692 -94.3114 184.339 -90.7444 183.461C-87.4017 182.638 -83.7437 181.705 -81.5381 185.382C-77.7663 184.757 -73.7814 185.514 -70.4998 187.477C-65.5086 182.3 -56.5321 181.665 -50.8616 186.086C-47.9103 185.087 -44.4742 185.668 -42.0156 187.583C-39.3144 184.512 -35.2596 182.681 -31.172 182.684C-27.0844 182.687 -23.0326 184.526 -20.3368 187.601C-17.6244 186.485 -14.4208 186.637 -11.826 188.004C-9.19452 183.577 -3.16184 181.541 1.61121 183.47C6.98002 179.157 15.6803 179.861 20.2867 184.981C21.9232 182.502 26.1844 182.512 27.8096 184.998C27.8096 184.998 31.0351 178.834 33.8049 180.497C36.5747 182.16 45.4374 179.388 47.3762 180.497C49.3151 181.605 54.0234 180.497 55.6852 182.991C57.3469 185.486 62.0552 176.893 65.102 180.774C68.1489 184.655 73.6881 175.231 78.6734 178.002C83.6587 180.774 87.2594 180.497 88.9212 182.714C90.583 184.931 94.4603 177.171 98.6148 179.665C102.769 182.16 106.924 180.774 110.801 182.16C114.678 183.545 116.894 178.279 118.833 181.606C120.771 184.932 128.526 179.111 130.742 181.606C132.958 184.1 138.774 179.665 141.544 182.714" stroke="#145A6C" stroke-width="4" stroke-linecap="round" stroke-linejoin="round"/>
<path d="M26.6047 360.098L28.4335 361.366" stroke="#145A6C" stroke-width="4" stroke-linecap="round" stroke-linejoin="round"/>
<path d="M11.3705 319.634C10.9476 320.606 12.0082 321.844 13.0323 321.574" stroke="#145A6C" stroke-width="4" stroke-linecap="round" stroke-linejoin="round"/>
<path d="M37.7178 245.89C38.2217 246.91 39.1054 247.737 40.1556 248.172" stroke="#145A6C" stroke-width="4" stroke-linecap="round" stroke-linejoin="round"/>
<path d="M34.3588 210.71C33.292 210.97 32.4026 211.857 32.1392 212.924" stroke="#145A6C" stroke-width="4" stroke-linecap="round" stroke-linejoin="round"/>
<path d="M65.8125 229.903L67.7896 233.206" stroke="#145A6C" stroke-width="4" stroke-linecap="round" stroke-linejoin="round"/>
</svg>
