<svg width="355" height="640" viewBox="0 0 355 640" fill="none" xmlns="http://www.w3.org/2000/svg">
<g clip-path="url(#clip0_13_28)">
<path d="M64.666 612.359H294.715C296.25 612.359 297.628 611.716 298.603 610.692" stroke="#145A6C" stroke-width="4" stroke-miterlimit="10" stroke-linecap="round"/>
<path d="M292.53 463.296L292.151 456.091C292.031 453.797 290.133 451.999 287.831 452C258.879 452.011 85.5345 452.07 49.6674 452.01C45.9735 452.003 42.8847 454.804 42.5344 458.475L34.5913 541.728" stroke="#145A6C" stroke-width="4" stroke-miterlimit="10" stroke-linecap="round"/>
<path d="M298.269 572.51L295.15 513.154" stroke="#145A6C" stroke-width="4" stroke-miterlimit="10" stroke-linecap="round"/>
<path d="M278.15 522.105C276.487 523.49 276.146 526.199 277.414 527.951C278.682 529.703 281.367 530.231 283.206 529.089C285.045 527.949 285.759 525.312 284.746 523.402C283.733 521.491 281.147 520.598 279.168 521.474" stroke="#145A6C" stroke-width="4" stroke-miterlimit="10" stroke-linecap="round"/>
<path d="M336.478 594.769C329.188 605.189 314.471 610.59 307.388 610.241C304.565 610.102 300.697 609.97 298.256 608.523C296.11 607.251 294.241 604.574 292.712 602.66C285.76 593.961 278.194 581.618 277.673 570.172C277.546 567.398 277.919 564.233 280.147 562.568C282.689 560.667 286.354 561.675 289.094 563.278C292.569 565.309 296.191 570.464 298.34 573.863" stroke="#145A6C" stroke-width="4" stroke-miterlimit="10" stroke-linecap="round"/>
<path d="M296.814 529.694C329.853 557.279 319.21 572.427 336.478 594.769" stroke="#145A6C" stroke-width="4" stroke-miterlimit="10" stroke-linecap="round"/>
<path d="M282.368 567.792C280.743 568.921 280.458 571.526 281.768 573.008C283.077 574.489 285.66 574.554 287.073 573.17C288.486 571.787 288.493 569.25 287.119 567.827C285.745 566.405 283.246 566.3 281.728 567.568" stroke="#145A6C" stroke-width="4" stroke-miterlimit="10" stroke-linecap="round"/>
<path d="M297.494 609.039C299.821 619.419 303.536 629.488 308.511 638.894" stroke="#145A6C" stroke-width="4" stroke-miterlimit="10" stroke-linecap="round"/>
<path d="M336.478 594.768C343.586 601.677 349.824 609.475 355 617.923" stroke="#145A6C" stroke-width="4" stroke-miterlimit="10" stroke-linecap="round"/>
<path d="M59.2031 548.99C64.4106 540.917 68.5478 532.157 71.4734 523.011C72.2157 520.69 72.8982 518.305 74.2453 516.273C75.5923 514.242 77.7562 512.578 80.1965 512.514C82.8918 512.443 85.3378 514.366 86.5943 516.747C87.8509 519.128 88.122 521.897 88.1888 524.587C88.5184 537.84 84.4856 550.78 80.2344 563.34" stroke="#145A6C" stroke-width="4" stroke-miterlimit="10" stroke-linecap="round"/>
<path d="M44.2514 540.207C40.1941 538.84 35.5786 540.475 32.4285 543.371C29.2785 546.267 27.3504 550.236 25.7792 554.212C23.5322 559.899 21.8529 565.866 21.5293 571.97C21.2056 578.074 22.2942 584.341 25.2923 589.671C28.3988 595.193 33.4905 599.523 39.3416 601.974C45.1927 604.425 51.7629 605.028 58.019 603.967C69.4565 602.029 79.7674 594.35 84.8844 583.959C90.0014 573.567 89.7942 560.728 84.3446 550.507" stroke="#145A6C" stroke-width="4" stroke-miterlimit="10" stroke-linecap="round"/>
<path d="M40.6551 550.462C40.3351 546.753 42.2423 543.083 45.0587 540.643C47.8752 538.202 51.5005 536.864 55.1581 536.135C58.7731 535.415 62.6246 535.263 66.054 536.613" stroke="#145A6C" stroke-width="4" stroke-miterlimit="10" stroke-linecap="round"/>
<path d="M-11 638.582C-7.56957 612.907 3.60243 588.313 20.6907 568.817" stroke="#145A6C" stroke-width="4" stroke-miterlimit="10" stroke-linecap="round"/>
<path d="M63.153 646C62.7359 631.256 63.7813 616.472 66.2691 601.933" stroke="#145A6C" stroke-width="4" stroke-miterlimit="10" stroke-linecap="round"/>
<path d="M77.7574 518.01C76.2424 518.581 75.5622 520.624 76.3229 522.05C77.0835 523.477 79.0226 524.083 80.52 523.467C82.0173 522.852 82.9573 521.181 82.8505 519.568C82.7584 518.178 81.852 516.794 80.5057 516.429C79.1593 516.063 77.5229 517.014 77.4225 518.403" stroke="#145A6C" stroke-width="4" stroke-miterlimit="10" stroke-linecap="round"/>
<path d="M210.339 473.133H123.53C121.326 473.133 119.539 474.917 119.539 477.117V585.886C119.539 588.086 121.326 589.87 123.53 589.87H210.339C212.543 589.87 214.33 588.086 214.33 585.886V477.117C214.33 474.917 212.543 473.133 210.339 473.133Z" stroke="#145A6C" stroke-width="4" stroke-miterlimit="10" stroke-linecap="round"/>
<path d="M221.979 512.512H262.556C264.752 512.512 266.548 514.305 266.548 516.496V597.412C266.548 599.603 264.752 601.396 262.556 601.396H139.712C137.516 601.396 135.72 599.603 135.72 597.412" stroke="#145A6C" stroke-width="4" stroke-miterlimit="10" stroke-linecap="round"/>
<path d="M143.985 517.568C146.557 517.568 148.642 515.487 148.642 512.92C148.642 510.354 146.557 508.273 143.985 508.273C141.414 508.273 139.329 510.354 139.329 512.92C139.329 515.487 141.414 517.568 143.985 517.568Z" stroke="#145A6C" stroke-width="4" stroke-miterlimit="10" stroke-linecap="round"/>
<path d="M156.292 512.552H194.54" stroke="#145A6C" stroke-width="4" stroke-miterlimit="10" stroke-linecap="round"/>
<path d="M143.985 536.149C146.557 536.149 148.642 534.068 148.642 531.501C148.642 528.935 146.557 526.854 143.985 526.854C141.414 526.854 139.329 528.935 139.329 531.501C139.329 534.068 141.414 536.149 143.985 536.149Z" stroke="#145A6C" stroke-width="4" stroke-miterlimit="10" stroke-linecap="round"/>
<path d="M156.292 531.133H194.54" stroke="#145A6C" stroke-width="4" stroke-miterlimit="10" stroke-linecap="round"/>
<path d="M143.985 554.73C146.557 554.73 148.642 552.65 148.642 550.083C148.642 547.516 146.557 545.435 143.985 545.435C141.414 545.435 139.329 547.516 139.329 550.083C139.329 552.65 141.414 554.73 143.985 554.73Z" stroke="#145A6C" stroke-width="4" stroke-miterlimit="10" stroke-linecap="round"/>
<path d="M156.292 549.714H194.54" stroke="#145A6C" stroke-width="4" stroke-miterlimit="10" stroke-linecap="round"/>
<path d="M108.232 468.154H59.0195C56.8152 468.154 55.0283 469.937 55.0283 472.137V496.37C55.0283 498.57 56.8152 500.354 59.0195 500.354H108.232C110.436 500.354 112.223 498.57 112.223 496.37V472.137C112.223 469.937 110.436 468.154 108.232 468.154Z" stroke="#145A6C" stroke-width="4" stroke-miterlimit="10" stroke-linecap="round"/>
<path d="M294.104 498.398C296.515 502.441 301.132 505.077 305.847 505.101C310.562 505.125 315.206 502.536 317.657 498.517" stroke="#145A6C" stroke-width="4" stroke-miterlimit="10" stroke-linecap="round"/>
<path d="M285.837 480.974C283.876 486.382 282.799 492.877 284.398 498.398C285.997 503.918 289.234 508.756 294.267 511.718C300.24 515.232 308.739 515.67 315.219 513.154C321.699 510.638 325.624 506.377 328.2 500.051C330.776 493.724 330.624 485.422 328.375 478.978" stroke="#145A6C" stroke-width="4" stroke-miterlimit="10" stroke-linecap="round"/>
<path d="M287.939 470.958C287.33 470.738 286.631 471.012 286.17 471.466C285.71 471.921 285.438 472.527 285.177 473.119C284.695 474.209 284.21 475.313 284.006 476.487C283.801 477.66 283.902 478.93 284.53 479.943C285.305 481.195 286.742 481.868 288.143 482.327C291.964 483.58 296.047 483.746 300.069 483.847C308.509 484.059 317.258 483.971 324.945 480.485C327.157 479.482 330.523 477.473 330.963 475.088C331.268 473.43 330.759 472.869 330.098 471.318C329.677 470.331 328.771 468.421 327.784 467.996C326.662 467.514 324.554 468.249 323.44 468.752C312.306 473.778 299.675 474.359 287.939 470.958Z" stroke="#145A6C" stroke-width="4" stroke-miterlimit="10" stroke-linecap="round"/>
<path d="M287.142 470.856C288.529 466.662 291.692 463.157 295.556 461.005C299.419 458.853 303.937 458.004 308.356 458.217C312.776 458.43 317.104 459.669 321.145 461.467C322.653 462.139 324.143 462.899 325.397 463.972C326.651 465.045 327.663 466.463 327.994 468.078" stroke="#145A6C" stroke-width="4" stroke-miterlimit="10" stroke-linecap="round"/>
<path d="M293.217 471.919C293.699 467.991 294.842 464.144 296.585 460.589" stroke="#145A6C" stroke-width="4" stroke-miterlimit="10" stroke-linecap="round"/>
<path d="M302.356 472.803C302.453 468.155 302.55 463.508 302.647 458.861" stroke="#145A6C" stroke-width="4" stroke-miterlimit="10" stroke-linecap="round"/>
<path d="M312.385 471.844C311.999 467.517 311.42 463.207 310.652 458.93" stroke="#145A6C" stroke-width="4" stroke-miterlimit="10" stroke-linecap="round"/>
<path d="M295.371 490.642C296.258 490.642 296.977 489.924 296.977 489.038C296.977 488.153 296.258 487.435 295.371 487.435C294.484 487.435 293.764 488.153 293.764 489.038C293.764 489.924 294.484 490.642 295.371 490.642Z" fill="#145A6C"/>
<path d="M317.878 491.196C318.765 491.196 319.484 490.478 319.484 489.593C319.484 488.707 318.765 487.989 317.878 487.989C316.991 487.989 316.271 488.707 316.271 489.593C316.271 490.478 316.991 491.196 317.878 491.196Z" fill="#145A6C"/>
<path d="M317.352 459.666C318.076 461.957 319.671 467.189 320.251 469.793" stroke="#145A6C" stroke-width="4"/>
<path d="M192.437 109.147C192.095 111.725 194.965 113.728 197.087 113.586" stroke="#145A6C" stroke-width="4" stroke-miterlimit="10" stroke-linecap="round"/>
<path d="M199.311 113.385L409.375 113.99C412.28 114.255 415.204 109.051 414.632 106.927" stroke="#145A6C" stroke-width="4" stroke-miterlimit="10" stroke-linecap="round"/>
<path d="M189 -10.4511C190.267 16.142 190.274 39.0452 191.071 65.6564C191.19 69.5981 191.307 73.5398 191.426 77.4815C191.697 86.5588 191.969 95.636 192.241 104.713" stroke="#145A6C" stroke-width="4" stroke-miterlimit="10" stroke-linecap="round"/>
<path d="M201.535 -12.7383C201.535 -12.7383 199.918 -13.0071 199.648 -9.64419C199.379 -6.28123 203.557 100.537 203.422 101.075C203.288 101.614 205.848 106.053 209.488 106.187C213.127 106.322 401.962 104.977 401.962 104.977C401.962 104.977 406.14 104.304 406.545 100.402C406.95 96.5005 404.793 -12.6046 404.793 -12.6046C404.793 -12.6046 404.254 -16.9095 400.075 -17.1789C395.897 -17.4483 205.579 -14.7567 205.579 -14.7567" stroke="#145A6C" stroke-width="4" stroke-miterlimit="10" stroke-linecap="round"/>
<path d="M206.779 14.0413C208.849 5.51067 217.28 -1.0312 226.073 -0.927675C228.376 -0.900432 230.822 -0.389483 232.45 1.23721C234.112 2.89719 234.603 5.38899 234.696 7.73307C234.898 12.8389 233.548 17.9945 230.879 22.3539C230.792 22.4956 230.938 22.6554 231.087 22.5815C234.053 21.1086 237.209 20.0141 240.452 19.3342C242.083 18.9922 243.775 18.7548 245.413 19.0654C247.052 19.376 248.643 20.3168 249.375 21.8127C250.093 23.2826 249.89 25.0225 249.555 26.6231C248.801 30.2179 247.452 33.6874 245.581 36.85C246.74 35.0417 249.074 34.4272 251.208 34.156C254.129 33.7855 257.567 33.9611 258.961 37.0328C259.33 37.8471 259.463 38.754 259.41 39.6463C259.254 42.2816 257.779 44.435 256.336 46.5206" stroke="#145A6C" stroke-width="4" stroke-miterlimit="10" stroke-linecap="round"/>
<path d="M304.801 15.8865C303.288 18.3989 302.09 21.2067 302.086 24.1374C302.081 27.0681 303.475 30.1296 306.075 31.4911C307.435 32.2036 309.007 32.4101 310.543 32.4258C311.597 32.4367 312.66 32.3616 313.68 32.0922C316.426 31.3658 318.71 29.1706 319.649 26.4936C320.588 23.8165 320.197 20.7339 318.718 18.3117C317.75 16.7256 316.324 15.4064 314.629 14.6406C312.898 13.859 310.905 13.6714 309.058 14.1163" stroke="#145A6C" stroke-width="4" stroke-miterlimit="10" stroke-linecap="round"/>
<path d="M347.871 44.8254C345.662 42.0364 344.006 38.8121 343.029 35.3928C342.204 32.5087 341.866 29.2802 344.788 26.8283C346.292 25.5661 348.264 24.9474 350.224 25.0872C353.292 25.3064 355.825 27.0263 357.663 29.3643C358.232 30.0896 359.378 29.6828 359.38 28.7614C359.382 27.5082 359.501 26.255 359.736 25.0237C360.094 23.1451 360.742 21.2781 361.947 19.7913C363.152 18.3044 364.979 17.2407 366.895 17.2789C369.519 17.3303 371.751 19.4226 372.777 21.8345C373.802 24.2463 373.866 26.9409 373.913 29.5599" stroke="#145A6C" stroke-width="4" stroke-miterlimit="10" stroke-linecap="round"/>
<path d="M314.354 70.374C315.462 70.4983 316.602 70.3268 317.623 69.8814" stroke="#145A6C" stroke-width="4" stroke-miterlimit="10" stroke-linecap="round"/>
<path d="M347.106 103.286C338.06 99.4445 329.133 95.3224 320.345 90.926C320.335 90.9212 320.326 90.9164 320.316 90.9115C319.141 90.3213 319.411 88.5686 320.706 88.3374C335.713 85.6567 350.808 82.7926 364.965 77.2944C366.699 76.6206 366.478 74.1083 364.657 73.7238C359.15 72.5615 353.593 71.6401 348.005 70.9632C342.038 70.241 336.035 69.8009 330.092 68.8831C328.056 68.5689 322.867 68.4799 321.369 66.9943C319.549 65.189 323.479 62.9388 324.865 61.7897C333.101 54.9615 342.519 49.6413 352.388 45.5501C363.884 40.7838 376.004 37.6545 388.228 35.3044C392.808 34.4242 397.508 33.6493 402.114 34.3739" stroke="#145A6C" stroke-width="4" stroke-miterlimit="10" stroke-linecap="round"/>
<path d="M205.983 51.8365H206.185" stroke="#145A6C" stroke-width="4" stroke-miterlimit="10" stroke-linecap="round"/>
<path d="M211.959 51.601C227.27 46.8414 243.813 49.1268 259.557 52.1677C268.147 53.8264 276.731 55.7092 284.915 58.7967C293.098 61.8842 300.909 66.2297 307.171 72.3272" stroke="#145A6C" stroke-width="4" stroke-miterlimit="10" stroke-linecap="round"/>
<path d="M304.855 74.0071C307.838 74.5604 310.791 75.2748 313.698 76.146C314.356 76.3433 314.414 77.2563 313.779 77.519C298.494 83.8605 282.142 87.2283 266.096 91.3462C265.154 91.5883 264.197 91.8402 263.273 92.1616C261.468 92.7888 261.236 95.2528 262.863 96.2541C268.221 99.551 273.987 102.185 279.99 104.073" stroke="#145A6C" stroke-width="4" stroke-miterlimit="10" stroke-linecap="round"/>
</g>
<defs>
<clipPath id="clip0_13_28">
<rect width="355" height="640" rx="16" fill="white"/>
</clipPath>
</defs>
</svg>
