<svg width="355" height="190" viewBox="0 0 355 190" fill="none" xmlns="http://www.w3.org/2000/svg">
<path d="M64.666 162.359H294.715C296.25 162.359 297.628 161.716 298.603 160.692" stroke="#145A6C" stroke-width="4" stroke-miterlimit="10" stroke-linecap="round"/>
<path d="M292.53 13.2956L292.151 6.09106C292.031 3.79723 290.133 1.999 287.831 2C258.879 2.01062 85.5345 2.07038 49.6674 2.00963C45.9735 2.00333 42.8847 4.80439 42.5344 8.47452L34.5913 91.7285" stroke="#145A6C" stroke-width="4" stroke-miterlimit="10" stroke-linecap="round"/>
<path d="M298.269 122.51L295.15 63.1537" stroke="#145A6C" stroke-width="4" stroke-miterlimit="10" stroke-linecap="round"/>
<path d="M278.15 72.1054C276.487 73.4896 276.146 76.1994 277.414 77.9512C278.682 79.7029 281.367 80.2307 283.206 79.0895C285.045 77.9485 285.759 75.3121 284.746 73.4017C283.733 71.4913 281.147 70.5976 279.168 71.4737" stroke="#145A6C" stroke-width="4" stroke-miterlimit="10" stroke-linecap="round"/>
<path d="M336.478 144.769C329.188 155.189 314.471 160.59 307.388 160.241C304.565 160.102 300.697 159.97 298.256 158.523C296.11 157.251 294.241 154.574 292.712 152.66C285.76 143.961 278.194 131.618 277.673 120.172C277.546 117.398 277.919 114.233 280.147 112.568C282.689 110.667 286.354 111.675 289.094 113.278C292.569 115.309 296.191 120.464 298.34 123.863" stroke="#145A6C" stroke-width="4" stroke-miterlimit="10" stroke-linecap="round"/>
<path d="M296.814 79.6936C329.853 107.279 319.21 122.427 336.478 144.769" stroke="#145A6C" stroke-width="4" stroke-miterlimit="10" stroke-linecap="round"/>
<path d="M282.368 117.792C280.743 118.921 280.458 121.526 281.768 123.008C283.077 124.489 285.66 124.554 287.073 123.17C288.486 121.787 288.493 119.25 287.119 117.827C285.745 116.405 283.246 116.3 281.728 117.568" stroke="#145A6C" stroke-width="4" stroke-miterlimit="10" stroke-linecap="round"/>
<path d="M297.494 159.039C299.821 169.419 303.536 179.488 308.511 188.894" stroke="#145A6C" stroke-width="4" stroke-miterlimit="10" stroke-linecap="round"/>
<path d="M336.478 144.768C343.586 151.677 349.824 159.475 355 167.923" stroke="#145A6C" stroke-width="4" stroke-miterlimit="10" stroke-linecap="round"/>
<path d="M59.2031 98.9904C64.4106 90.9175 68.5478 82.1574 71.4734 73.0106C72.2157 70.6896 72.8982 68.3048 74.2453 66.2732C75.5923 64.2416 77.7562 62.5782 80.1965 62.5141C82.8918 62.4434 85.3378 64.3658 86.5943 66.7469C87.8509 69.128 88.122 71.8966 88.1888 74.5868C88.5184 87.8399 84.4856 100.78 80.2344 113.34" stroke="#145A6C" stroke-width="4" stroke-miterlimit="10" stroke-linecap="round"/>
<path d="M44.2514 90.2071C40.1941 88.8398 35.5786 90.4753 32.4285 93.371C29.2785 96.2667 27.3504 100.236 25.7792 104.212C23.5322 109.899 21.8529 115.866 21.5293 121.97C21.2056 128.074 22.2942 134.341 25.2923 139.671C28.3988 145.193 33.4905 149.523 39.3416 151.974C45.1927 154.425 51.7629 155.028 58.019 153.967C69.4565 152.029 79.7674 144.35 84.8844 133.959C90.0014 123.567 89.7942 110.728 84.3446 100.507" stroke="#145A6C" stroke-width="4" stroke-miterlimit="10" stroke-linecap="round"/>
<path d="M40.6551 100.462C40.3351 96.7533 42.2423 93.0832 45.0587 90.6426C47.8752 88.2021 51.5005 86.864 55.1581 86.135C58.7731 85.4146 62.6246 85.2632 66.054 86.6127" stroke="#145A6C" stroke-width="4" stroke-miterlimit="10" stroke-linecap="round"/>
<path d="M-11 188.582C-7.56957 162.907 3.60243 138.313 20.6907 118.817" stroke="#145A6C" stroke-width="4" stroke-miterlimit="10" stroke-linecap="round"/>
<path d="M63.153 196C62.7359 181.256 63.7813 166.472 66.2691 151.933" stroke="#145A6C" stroke-width="4" stroke-miterlimit="10" stroke-linecap="round"/>
<path d="M77.7574 68.0103C76.2424 68.5813 75.5622 70.6235 76.3229 72.0503C77.0835 73.477 79.0226 74.0825 80.52 73.4674C82.0173 72.8523 82.9573 71.1805 82.8505 69.5675C82.7584 68.178 81.852 66.7944 80.5057 66.4289C79.1593 66.0634 77.5229 67.0141 77.4225 68.403" stroke="#145A6C" stroke-width="4" stroke-miterlimit="10" stroke-linecap="round"/>
<path d="M210.339 23.1332H123.53C121.326 23.1332 119.539 24.9167 119.539 27.1167V135.886C119.539 138.086 121.326 139.87 123.53 139.87H210.339C212.543 139.87 214.33 138.086 214.33 135.886V27.1167C214.33 24.9167 212.543 23.1332 210.339 23.1332Z" stroke="#145A6C" stroke-width="4" stroke-miterlimit="10" stroke-linecap="round"/>
<path d="M221.979 62.5121H262.556C264.752 62.5121 266.548 64.3047 266.548 66.4956V147.412C266.548 149.603 264.752 151.396 262.556 151.396H139.712C137.516 151.396 135.72 149.603 135.72 147.412" stroke="#145A6C" stroke-width="4" stroke-miterlimit="10" stroke-linecap="round"/>
<path d="M143.985 67.5678C146.557 67.5678 148.642 65.4871 148.642 62.9204C148.642 60.3537 146.557 58.2729 143.985 58.2729C141.414 58.2729 139.329 60.3537 139.329 62.9204C139.329 65.4871 141.414 67.5678 143.985 67.5678Z" stroke="#145A6C" stroke-width="4" stroke-miterlimit="10" stroke-linecap="round"/>
<path d="M156.292 62.5516H194.54" stroke="#145A6C" stroke-width="4" stroke-miterlimit="10" stroke-linecap="round"/>
<path d="M143.985 86.1489C146.557 86.1489 148.642 84.0681 148.642 81.5014C148.642 78.9347 146.557 76.854 143.985 76.854C141.414 76.854 139.329 78.9347 139.329 81.5014C139.329 84.0681 141.414 86.1489 143.985 86.1489Z" stroke="#145A6C" stroke-width="4" stroke-miterlimit="10" stroke-linecap="round"/>
<path d="M156.292 81.1329H194.54" stroke="#145A6C" stroke-width="4" stroke-miterlimit="10" stroke-linecap="round"/>
<path d="M143.985 104.73C146.557 104.73 148.642 102.65 148.642 100.083C148.642 97.5161 146.557 95.4354 143.985 95.4354C141.414 95.4354 139.329 97.5161 139.329 100.083C139.329 102.65 141.414 104.73 143.985 104.73Z" stroke="#145A6C" stroke-width="4" stroke-miterlimit="10" stroke-linecap="round"/>
<path d="M156.292 99.7144H194.54" stroke="#145A6C" stroke-width="4" stroke-miterlimit="10" stroke-linecap="round"/>
<path d="M108.232 18.1537H59.0195C56.8152 18.1537 55.0283 19.9372 55.0283 22.1373V46.3703C55.0283 48.5703 56.8152 50.3538 59.0195 50.3538H108.232C110.436 50.3538 112.223 48.5703 112.223 46.3703V22.1373C112.223 19.9372 110.436 18.1537 108.232 18.1537Z" stroke="#145A6C" stroke-width="4" stroke-miterlimit="10" stroke-linecap="round"/>
<path d="M294.104 48.3976C296.515 52.4412 301.132 55.0773 305.847 55.1012C310.562 55.1251 315.206 52.5361 317.657 48.5168" stroke="#145A6C" stroke-width="4" stroke-miterlimit="10" stroke-linecap="round"/>
<path d="M285.837 30.9743C283.876 36.3823 282.799 42.8771 284.398 48.3975C285.997 53.918 289.234 58.7563 294.267 61.7177C300.24 65.2322 308.739 65.67 315.219 63.1538C321.699 60.6375 325.624 56.3775 328.2 50.0507C330.776 43.7239 330.624 35.4222 328.375 28.9776" stroke="#145A6C" stroke-width="4" stroke-miterlimit="10" stroke-linecap="round"/>
<path d="M287.939 20.9575C287.33 20.7381 286.631 21.012 286.17 21.4664C285.71 21.9209 285.438 22.5273 285.177 23.1186C284.695 24.2087 284.21 25.3128 284.006 26.4866C283.801 27.6604 283.902 28.9298 284.53 29.9433C285.305 31.1951 286.742 31.8677 288.143 32.3268C291.964 33.5803 296.047 33.7462 300.069 33.8471C308.509 34.0593 317.258 33.9713 324.945 30.4854C327.157 29.4822 330.523 27.4729 330.963 25.0881C331.268 23.4303 330.759 22.8693 330.098 21.3184C329.677 20.3314 328.771 18.4207 327.784 17.9964C326.662 17.5144 324.554 18.2494 323.44 18.752C312.306 23.7775 299.675 24.3591 287.939 20.9575Z" stroke="#145A6C" stroke-width="4" stroke-miterlimit="10" stroke-linecap="round"/>
<path d="M287.142 20.8556C288.529 16.6623 291.692 13.1568 295.556 11.005C299.419 8.85327 303.937 8.00445 308.356 8.21723C312.776 8.43002 317.104 9.6689 321.145 11.4674C322.653 12.139 324.143 12.8992 325.397 13.9721C326.651 15.045 327.663 16.4628 327.994 18.0777" stroke="#145A6C" stroke-width="4" stroke-miterlimit="10" stroke-linecap="round"/>
<path d="M293.217 21.9188C293.699 17.9908 294.842 14.144 296.585 10.5894" stroke="#145A6C" stroke-width="4" stroke-miterlimit="10" stroke-linecap="round"/>
<path d="M302.356 22.8028C302.453 18.1554 302.55 13.508 302.647 8.86053" stroke="#145A6C" stroke-width="4" stroke-miterlimit="10" stroke-linecap="round"/>
<path d="M312.385 21.8445C311.999 17.517 311.42 13.2066 310.652 8.92993" stroke="#145A6C" stroke-width="4" stroke-miterlimit="10" stroke-linecap="round"/>
<path d="M295.371 40.6417C296.258 40.6417 296.977 39.9238 296.977 39.0383C296.977 38.1528 296.258 37.4349 295.371 37.4349C294.484 37.4349 293.764 38.1528 293.764 39.0383C293.764 39.9238 294.484 40.6417 295.371 40.6417Z" fill="#145A6C"/>
<path d="M317.878 41.196C318.765 41.196 319.484 40.4782 319.484 39.5927C319.484 38.7072 318.765 37.9893 317.878 37.9893C316.991 37.9893 316.271 38.7072 316.271 39.5927C316.271 40.4782 316.991 41.196 317.878 41.196Z" fill="#145A6C"/>
<path d="M317.352 9.6662C318.076 11.9567 319.671 17.1886 320.251 19.7926" stroke="#145A6C" stroke-width="4"/>
</svg>
