<svg width="248" height="99" viewBox="0 0 248 99" fill="none" xmlns="http://www.w3.org/2000/svg">
<path d="M239.653 -53.6873C248.017 -52.3958 245.179 -50.0522 245.689 -29.2381C245.819 -23.9216 245.471 -18.6338 245.471 -13.3166V15.9519C245.471 34.6188 246.226 53.3648 245.361 71.9923C245.118 77.2402 246.009 84.106 245.252 88.6512" stroke="#145A6C" stroke-width="4" stroke-miterlimit="10" stroke-linecap="round"/>
<path d="M5.709 91.2682C5.33987 94.054 8.43627 96.2183 10.727 96.0659" stroke="#145A6C" stroke-width="4" stroke-miterlimit="10" stroke-linecap="round"/>
<path d="M13.1265 95.8481L239.798 96.5024C242.933 96.7883 246.088 91.1642 245.471 88.8691" stroke="#145A6C" stroke-width="4" stroke-miterlimit="10" stroke-linecap="round"/>
<path d="M2 -37.985C3.36723 -9.24511 3.37509 15.507 4.23509 44.2665C4.36271 48.5265 4.48968 52.7864 4.61731 57.0463C4.91052 66.8563 5.20373 76.6664 5.4976 86.4757" stroke="#145A6C" stroke-width="4" stroke-miterlimit="10" stroke-linecap="round"/>
<path d="M15.5264 -40.4569C15.5264 -40.4569 13.7809 -40.7473 13.4903 -37.1129C13.1997 -33.4785 17.7078 81.9632 17.5625 82.5449C17.4172 83.1265 20.1805 87.9242 24.1074 88.0695C28.0344 88.2147 231.799 86.761 231.799 86.761C231.799 86.761 236.308 86.0341 236.744 81.8173C237.181 77.6006 234.854 -40.3123 234.854 -40.3123C234.854 -40.3123 234.272 -44.9647 229.763 -45.2559C225.254 -45.547 19.8892 -42.6382 19.8892 -42.6382" stroke="#145A6C" stroke-width="4" stroke-miterlimit="10" stroke-linecap="round"/>
<path d="M21.1851 -11.5154C23.4182 -20.7346 32.5163 -27.8046 42.0044 -27.6927C44.4895 -27.6633 47.1291 -27.1111 48.8857 -25.3531C50.6784 -23.5591 51.2085 -20.8661 51.3087 -18.3328C51.5266 -12.8147 50.0704 -7.24303 47.1899 -2.53167C47.0964 -2.37857 47.2534 -2.20585 47.4144 -2.28567C50.6156 -3.87749 54.0209 -5.0604 57.5198 -5.79514C59.2804 -6.1648 61.1057 -6.42127 62.8735 -6.08563C64.6413 -5.75 66.3587 -4.73327 67.148 -3.11659C67.9229 -1.52803 67.7043 0.352324 67.3424 2.0822C66.5289 5.96722 65.0739 9.71681 63.0542 13.1347C64.3049 11.1804 66.8234 10.5163 69.1259 10.2232C72.2779 9.8228 75.9882 10.0125 77.4922 13.3323C77.8908 14.2123 78.0341 15.1924 77.9772 16.1567C77.8083 19.0047 76.2166 21.332 74.6596 23.5859" stroke="#145A6C" stroke-width="4" stroke-miterlimit="10" stroke-linecap="round"/>
<path d="M126.955 -9.52116C125.323 -6.80596 124.03 -3.77149 124.026 -0.604191C124.021 2.5631 125.525 5.87172 128.33 7.34316C129.798 8.11323 131.494 8.33634 133.151 8.35335C134.29 8.36512 135.436 8.28399 136.536 7.99284C139.5 7.20773 141.964 4.83536 142.977 1.94221C143.99 -0.950953 143.569 -4.28247 141.973 -6.90018C140.928 -8.61435 139.39 -10.04 137.561 -10.8676C135.693 -11.7123 133.542 -11.9151 131.549 -11.4342" stroke="#145A6C" stroke-width="4" stroke-miterlimit="10" stroke-linecap="round"/>
<path d="M173.431 21.754C171.047 18.7398 169.261 15.2552 168.206 11.5599C167.317 8.44295 166.951 4.95376 170.105 2.30399C171.728 0.939847 173.855 0.271189 175.97 0.422324C179.281 0.659168 182.014 2.51793 183.997 5.0447C184.611 5.82851 185.848 5.38885 185.85 4.39306C185.852 3.03873 185.981 1.6844 186.234 0.353624C186.62 -1.67656 187.32 -3.69431 188.62 -5.30118C189.921 -6.90806 191.892 -8.0576 193.959 -8.01638C196.791 -7.96077 199.199 -5.69963 200.306 -3.09304C201.413 -0.48645 201.481 2.42568 201.532 5.25603" stroke="#145A6C" stroke-width="4" stroke-miterlimit="10" stroke-linecap="round"/>
<path d="M137.265 49.3646C138.46 49.4987 139.69 49.3135 140.792 48.8326" stroke="#145A6C" stroke-width="4" stroke-miterlimit="10" stroke-linecap="round"/>
<path d="M172.606 84.9336C162.844 80.7823 153.212 76.3274 143.729 71.5762C143.718 71.5709 143.708 71.5657 143.698 71.5605C142.43 70.9226 142.721 69.0285 144.119 68.7785C160.312 65.8815 176.601 62.7861 191.876 56.8441C193.748 56.1159 193.509 53.4007 191.545 52.9853C185.602 51.7291 179.605 50.7333 173.576 50.0018C167.137 49.2213 160.659 48.7456 154.246 47.7538C152.049 47.4142 146.451 47.318 144.834 45.7124C142.87 43.7614 147.11 41.3295 148.607 40.0877C157.493 32.7083 167.656 26.9586 178.305 22.5371C190.711 17.3861 203.789 14.0042 216.979 11.4643C221.921 10.513 226.992 9.67555 231.963 10.4587" stroke="#145A6C" stroke-width="4" stroke-miterlimit="10" stroke-linecap="round"/>
<path d="M20.3257 29.3309H20.5436" stroke="#145A6C" stroke-width="4" stroke-miterlimit="10" stroke-linecap="round"/>
<path d="M26.7744 29.0765C43.2957 23.9327 61.147 26.4025 78.1363 29.6889C87.4045 31.4816 96.6682 33.5163 105.499 36.8531C114.329 40.1898 122.757 44.8862 129.514 51.4759" stroke="#145A6C" stroke-width="4" stroke-miterlimit="10" stroke-linecap="round"/>
<path d="M127.014 53.2914C130.234 53.8894 133.421 54.6614 136.557 55.6029C137.267 55.8162 137.329 56.8028 136.645 57.0868C120.151 63.9402 102.506 67.5799 85.1917 72.0302C84.1747 72.2919 83.1419 72.5641 82.1451 72.9115C80.1973 73.5893 79.9473 76.2521 81.7033 77.3343C87.4844 80.8974 93.7067 83.7441 100.184 85.7848" stroke="#145A6C" stroke-width="4" stroke-miterlimit="10" stroke-linecap="round"/>
</svg>
