<svg width="623" height="298" viewBox="0 0 623 298" fill="none" xmlns="http://www.w3.org/2000/svg">
<path d="M131.037 273.749H518.062C520.644 273.749 522.962 272.667 524.602 270.94" stroke="#145A6C" stroke-width="6" stroke-miterlimit="10" stroke-linecap="round"/>
<path d="M514.386 22.5841L513.749 10.4448C513.547 6.57983 510.354 3.5499 506.481 3.55158C457.773 3.56947 166.146 3.67017 105.805 3.56781C99.5905 3.55718 94.3939 8.27685 93.8047 14.4609L80.4415 154.74" stroke="#145A6C" stroke-width="6" stroke-miterlimit="10" stroke-linecap="round"/>
<path d="M524.041 206.606L518.794 106.593" stroke="#145A6C" stroke-width="6" stroke-miterlimit="10" stroke-linecap="round"/>
<path d="M490.193 121.676C487.396 124.009 486.822 128.575 488.956 131.526C491.089 134.478 495.606 135.367 498.7 133.444C501.793 131.522 502.994 127.079 501.29 123.86C499.587 120.641 495.237 119.136 491.906 120.612" stroke="#145A6C" stroke-width="6" stroke-miterlimit="10" stroke-linecap="round"/>
<path d="M588.322 244.111C576.057 261.669 551.298 270.769 539.382 270.182C534.633 269.947 528.125 269.724 524.018 267.287C520.408 265.144 517.265 260.632 514.693 257.408C502.997 242.749 490.267 221.953 489.391 202.667C489.178 197.992 489.805 192.659 493.552 189.854C497.829 186.652 503.995 188.35 508.606 191.05C514.451 194.473 520.545 203.158 524.16 208.886" stroke="#145A6C" stroke-width="6" stroke-miterlimit="10" stroke-linecap="round"/>
<path d="M521.593 134.462C577.177 180.942 559.272 206.467 588.322 244.111" stroke="#145A6C" stroke-width="6" stroke-miterlimit="10" stroke-linecap="round"/>
<path d="M497.289 198.655C494.556 200.558 494.076 204.948 496.279 207.444C498.483 209.941 502.827 210.05 505.205 207.718C507.582 205.387 507.594 201.113 505.282 198.716C502.971 196.319 498.767 196.142 496.213 198.278" stroke="#145A6C" stroke-width="6" stroke-miterlimit="10" stroke-linecap="round"/>
<path d="M522.737 268.156C526.652 285.646 532.903 302.611 541.271 318.46" stroke="#145A6C" stroke-width="6" stroke-miterlimit="10" stroke-linecap="round"/>
<path d="M588.322 244.11C600.279 255.751 610.774 268.891 619.482 283.124" stroke="#145A6C" stroke-width="6" stroke-miterlimit="10" stroke-linecap="round"/>
<path d="M121.847 166.976C130.608 153.374 137.568 138.613 142.49 123.201C143.739 119.291 144.887 115.272 147.153 111.849C149.42 108.426 153.06 105.623 157.165 105.515C161.7 105.396 165.815 108.635 167.929 112.647C170.043 116.659 170.499 121.324 170.611 125.857C171.166 148.188 164.381 169.992 157.229 191.155" stroke="#145A6C" stroke-width="6" stroke-miterlimit="10" stroke-linecap="round"/>
<path d="M96.6927 152.177C89.8668 149.873 82.1019 152.629 76.8024 157.508C71.5029 162.387 68.2592 169.075 65.6159 175.775C61.8356 185.356 59.0104 195.411 58.4659 205.696C57.9215 215.982 59.7529 226.541 64.7967 235.521C70.0229 244.827 78.5891 252.123 88.4327 256.252C98.2763 260.382 109.33 261.397 119.855 259.61C139.097 256.345 156.443 243.406 165.052 225.896C173.661 208.387 173.312 186.754 164.144 169.531" stroke="#145A6C" stroke-width="6" stroke-miterlimit="10" stroke-linecap="round"/>
<path d="M90.6421 169.456C90.1038 163.207 93.3123 157.023 98.0506 152.911C102.789 148.798 108.888 146.544 115.041 145.315C121.123 144.102 127.603 143.847 133.372 146.12" stroke="#145A6C" stroke-width="6" stroke-miterlimit="10" stroke-linecap="round"/>
<path d="M3.74011 317.935C9.51131 274.673 28.3066 233.233 57.0552 200.384" stroke="#145A6C" stroke-width="6" stroke-miterlimit="10" stroke-linecap="round"/>
<path d="M128.491 330.433C127.79 305.591 129.548 280.68 133.734 256.183" stroke="#145A6C" stroke-width="6" stroke-miterlimit="10" stroke-linecap="round"/>
<path d="M153.062 114.776C150.513 115.738 149.369 119.179 150.648 121.583C151.928 123.987 155.19 125.008 157.709 123.971C160.229 122.935 161.81 120.118 161.63 117.4C161.475 115.059 159.95 112.727 157.685 112.112C155.42 111.496 152.667 113.098 152.498 115.438" stroke="#145A6C" stroke-width="6" stroke-miterlimit="10" stroke-linecap="round"/>
<path d="M376.111 39.1601H230.069C226.36 39.1601 223.354 42.1652 223.354 45.8721V229.144C223.354 232.851 226.36 235.856 230.069 235.856H376.111C379.82 235.856 382.826 232.851 382.826 229.144V45.8721C382.826 42.1652 379.82 39.1601 376.111 39.1601Z" stroke="#145A6C" stroke-width="6" stroke-miterlimit="10" stroke-linecap="round"/>
<path d="M395.695 105.512H463.96C467.653 105.512 470.675 108.532 470.675 112.224V248.565C470.675 252.257 467.653 255.277 463.96 255.277H257.292C253.599 255.277 250.577 252.257 250.577 248.565" stroke="#145A6C" stroke-width="6" stroke-miterlimit="10" stroke-linecap="round"/>
<path d="M264.481 114.031C268.808 114.031 272.315 110.525 272.315 106.2C272.315 101.875 268.808 98.3691 264.481 98.3691C260.155 98.3691 256.647 101.875 256.647 106.2C256.647 110.525 260.155 114.031 264.481 114.031Z" stroke="#145A6C" stroke-width="6" stroke-miterlimit="10" stroke-linecap="round"/>
<path d="M285.184 105.578H349.533" stroke="#145A6C" stroke-width="6" stroke-miterlimit="10" stroke-linecap="round"/>
<path d="M264.481 145.339C268.808 145.339 272.315 141.833 272.315 137.508C272.315 133.183 268.808 129.677 264.481 129.677C260.155 129.677 256.647 133.183 256.647 137.508C256.647 141.833 260.155 145.339 264.481 145.339Z" stroke="#145A6C" stroke-width="6" stroke-miterlimit="10" stroke-linecap="round"/>
<path d="M285.184 136.887H349.533" stroke="#145A6C" stroke-width="6" stroke-miterlimit="10" stroke-linecap="round"/>
<path d="M264.481 176.648C268.808 176.648 272.315 173.142 272.315 168.817C272.315 164.492 268.808 160.986 264.481 160.986C260.155 160.986 256.647 164.492 256.647 168.817C256.647 173.142 260.155 176.648 264.481 176.648Z" stroke="#145A6C" stroke-width="6" stroke-miterlimit="10" stroke-linecap="round"/>
<path d="M285.184 168.196H349.533" stroke="#145A6C" stroke-width="6" stroke-miterlimit="10" stroke-linecap="round"/>
<path d="M204.33 30.77H121.538C117.829 30.77 114.823 33.7751 114.823 37.4821V78.3137C114.823 82.0206 117.829 85.0257 121.538 85.0257H204.33C208.038 85.0257 211.044 82.0206 211.044 78.3137V37.4821C211.044 33.7751 208.038 30.77 204.33 30.77Z" stroke="#145A6C" stroke-width="6" stroke-miterlimit="10" stroke-linecap="round"/>
<path d="M517.033 81.7295C521.089 88.5428 528.857 92.9845 536.789 93.0247C544.721 93.065 552.534 88.7027 556.658 81.9303" stroke="#145A6C" stroke-width="6" stroke-miterlimit="10" stroke-linecap="round"/>
<path d="M503.126 52.3722C499.827 61.4843 498.014 72.4277 500.705 81.7295C503.395 91.0313 508.841 99.1836 517.308 104.173C527.356 110.095 541.655 110.833 552.556 106.593C563.458 102.353 570.061 95.1754 574.396 84.515C578.729 73.8546 578.473 59.8667 574.689 49.0078" stroke="#145A6C" stroke-width="6" stroke-miterlimit="10" stroke-linecap="round"/>
<path d="M506.662 35.4942C505.637 35.1245 504.46 35.5859 503.686 36.3517C502.912 37.1174 502.454 38.1393 502.015 39.1355C501.204 40.9723 500.389 42.8327 500.045 44.8105C499.7 46.7883 499.87 48.9272 500.926 50.6349C502.23 52.7441 504.647 53.8774 507.004 54.6509C513.433 56.763 520.302 57.0426 527.068 57.2127C541.267 57.5701 555.987 57.4219 568.918 51.5483C572.64 49.858 578.303 46.4723 579.042 42.454C579.557 39.6607 578.7 38.7154 577.588 36.1022C576.88 34.4393 575.356 31.2198 573.695 30.5049C571.807 29.6928 568.261 30.9311 566.388 31.778C547.655 40.2458 526.406 41.2257 506.662 35.4942Z" stroke="#145A6C" stroke-width="6" stroke-miterlimit="10" stroke-linecap="round"/>
<path d="M505.321 35.3224C507.655 28.2569 512.977 22.3502 519.477 18.7246C525.977 15.099 533.577 13.6688 541.012 14.0273C548.447 14.3858 555.729 16.4733 562.527 19.5038C565.065 20.6353 567.57 21.9162 569.68 23.724C571.789 25.5318 573.492 27.9207 574.05 30.6419" stroke="#145A6C" stroke-width="6" stroke-miterlimit="10" stroke-linecap="round"/>
<path d="M515.542 37.114C516.353 30.4953 518.276 24.0137 521.208 18.0244" stroke="#145A6C" stroke-width="6" stroke-miterlimit="10" stroke-linecap="round"/>
<path d="M530.917 38.6035C531.08 30.7728 531.243 22.942 531.407 15.1113" stroke="#145A6C" stroke-width="6" stroke-miterlimit="10" stroke-linecap="round"/>
<path d="M547.789 36.9887C547.138 29.6972 546.165 22.4342 544.873 15.2283" stroke="#145A6C" stroke-width="6" stroke-miterlimit="10" stroke-linecap="round"/>
<path d="M519.165 68.6611C520.658 68.6611 521.868 67.4516 521.868 65.9595C521.868 64.4675 520.658 63.2579 519.165 63.2579C517.673 63.2579 516.463 64.4675 516.463 65.9595C516.463 67.4516 517.673 68.6611 519.165 68.6611Z" fill="#145A6C"/>
<path d="M557.03 69.5952C558.523 69.5952 559.733 68.3857 559.733 66.8936C559.733 65.4016 558.523 64.192 557.03 64.192C555.537 64.192 554.327 65.4016 554.327 66.8936C554.327 68.3857 555.537 69.5952 557.03 69.5952Z" fill="#145A6C"/>
<path d="M556.144 16.4688C557.363 20.3281 560.046 29.1438 561.022 33.5312" stroke="#145A6C" stroke-width="6"/>
</svg>
