<svg width="168" height="116" viewBox="0 0 168 116" fill="none" xmlns="http://www.w3.org/2000/svg">
<path d="M5.43714 109.147C5.09505 111.725 7.96458 113.728 10.0875 113.586" stroke="#145A6C" stroke-width="4" stroke-miterlimit="10" stroke-linecap="round"/>
<path d="M12.3113 113.385L222.375 113.99C225.28 114.255 228.204 109.051 227.632 106.927" stroke="#145A6C" stroke-width="4" stroke-miterlimit="10" stroke-linecap="round"/>
<path d="M2 -10.4511C3.26706 16.142 3.27433 39.0452 4.07132 65.6564C4.1896 69.5981 4.30727 73.5398 4.42554 77.4815C4.69727 86.5588 4.969 95.636 5.24134 104.713" stroke="#145A6C" stroke-width="4" stroke-miterlimit="10" stroke-linecap="round"/>
<path d="M14.5354 -12.7383C14.5354 -12.7383 12.9178 -13.0071 12.6485 -9.64419C12.3792 -6.28123 16.557 100.537 16.4223 101.075C16.2877 101.614 18.8485 106.053 22.4877 106.187C26.1269 106.322 214.962 104.977 214.962 104.977C214.962 104.977 219.14 104.304 219.545 100.402C219.95 96.5005 217.793 -12.6046 217.793 -12.6046C217.793 -12.6046 217.254 -16.9095 213.075 -17.1789C208.897 -17.4483 18.5786 -14.7567 18.5786 -14.7567" stroke="#145A6C" stroke-width="4" stroke-miterlimit="10" stroke-linecap="round"/>
<path d="M19.7793 14.0413C21.8488 5.51067 30.2803 -1.0312 39.0732 -0.927675C41.3763 -0.900432 43.8224 -0.389483 45.4504 1.23721C47.1117 2.89719 47.603 5.38899 47.6958 7.73307C47.8978 12.8389 46.5482 17.9945 43.8788 22.3539C43.7921 22.4956 43.9377 22.6554 44.0869 22.5815C47.0535 21.1086 50.2093 20.0141 53.4518 19.3342C55.0834 18.9922 56.775 18.7548 58.4133 19.0654C60.0516 19.376 61.6431 20.3168 62.3746 21.8127C63.0927 23.2826 62.8901 25.0225 62.5547 26.6231C61.8008 30.2179 60.4525 33.6874 58.5807 36.85C59.7398 35.0417 62.0737 34.4272 64.2075 34.156C67.1286 33.7855 70.5671 33.9611 71.9609 37.0328C72.3303 37.8471 72.4631 38.754 72.4103 39.6463C72.2539 42.2816 70.7788 44.435 69.3358 46.5206" stroke="#145A6C" stroke-width="4" stroke-miterlimit="10" stroke-linecap="round"/>
<path d="M117.801 15.8865C116.288 18.3989 115.09 21.2067 115.086 24.1374C115.081 27.0681 116.475 30.1296 119.075 31.4911C120.435 32.2036 122.007 32.4101 123.543 32.4258C124.597 32.4367 125.66 32.3616 126.68 32.0922C129.426 31.3658 131.71 29.1706 132.649 26.4936C133.588 23.8165 133.197 20.7339 131.718 18.3117C130.75 16.7256 129.324 15.4064 127.629 14.6406C125.898 13.859 123.905 13.6714 122.058 14.1163" stroke="#145A6C" stroke-width="4" stroke-miterlimit="10" stroke-linecap="round"/>
<path d="M160.871 44.8254C158.662 42.0364 157.006 38.8121 156.029 35.3928C155.204 32.5087 154.866 29.2802 157.788 26.8283C159.292 25.5661 161.264 24.9474 163.224 25.0872C166.292 25.3064 168.825 27.0263 170.663 29.3643C171.232 30.0896 172.378 29.6828 172.38 28.7614C172.382 27.5082 172.501 26.255 172.736 25.0237C173.094 23.1451 173.742 21.2781 174.947 19.7913C176.152 18.3044 177.979 17.2407 179.895 17.2789C182.519 17.3303 184.751 19.4226 185.777 21.8345C186.802 24.2463 186.866 26.9409 186.913 29.5599" stroke="#145A6C" stroke-width="4" stroke-miterlimit="10" stroke-linecap="round"/>
<path d="M127.354 70.374C128.462 70.4983 129.602 70.3268 130.623 69.8814" stroke="#145A6C" stroke-width="4" stroke-miterlimit="10" stroke-linecap="round"/>
<path d="M160.106 103.286C151.06 99.4445 142.133 95.3224 133.345 90.926C133.335 90.9212 133.326 90.9164 133.316 90.9115C132.141 90.3213 132.411 88.5686 133.706 88.3374C148.713 85.6567 163.808 82.7926 177.965 77.2944C179.699 76.6206 179.478 74.1083 177.657 73.7238C172.15 72.5615 166.593 71.6401 161.005 70.9632C155.038 70.241 149.035 69.8009 143.092 68.8831C141.056 68.5689 135.867 68.4799 134.369 66.9943C132.549 65.189 136.479 62.9388 137.865 61.7897C146.101 54.9615 155.519 49.6413 165.388 45.5501C176.884 40.7838 189.004 37.6545 201.228 35.3044C205.808 34.4242 210.508 33.6493 215.114 34.3739" stroke="#145A6C" stroke-width="4" stroke-miterlimit="10" stroke-linecap="round"/>
<path d="M18.9832 51.8365H19.1853" stroke="#145A6C" stroke-width="4" stroke-miterlimit="10" stroke-linecap="round"/>
<path d="M24.9587 51.601C40.2696 46.8414 56.8129 49.1268 72.5574 52.1677C81.1465 53.8264 89.7315 55.7092 97.9149 58.7967C106.098 61.8842 113.909 66.2297 120.171 72.3272" stroke="#145A6C" stroke-width="4" stroke-miterlimit="10" stroke-linecap="round"/>
<path d="M117.855 74.0071C120.838 74.5604 123.791 75.2748 126.698 76.146C127.356 76.3433 127.414 77.2563 126.779 77.519C111.494 83.8605 95.1422 87.2283 79.0963 91.3462C78.1537 91.5883 77.1966 91.8402 76.2728 92.1616C74.4678 92.7888 74.2361 95.2528 75.8634 96.2541C81.221 99.551 86.9873 102.185 92.9896 104.073" stroke="#145A6C" stroke-width="4" stroke-miterlimit="10" stroke-linecap="round"/>
</svg>
