<svg width="280" height="186" viewBox="0 0 280 186" fill="none" xmlns="http://www.w3.org/2000/svg">
<path d="M17.8502 50.2418C15.511 62.0592 20.8734 74.678 30.0683 82.4622C39.2632 90.2465 51.7667 93.4843 63.7968 92.8221C75.5885 92.173 87.3436 87.8153 95.9232 79.7013C104.502 71.5863 109.589 59.5758 108.294 47.8385" stroke="#145A6C" stroke-width="4" stroke-miterlimit="10" stroke-linecap="round"/>
<path d="M17.4221 63.1834C15.1264 67.4889 12.8316 71.7934 10.536 76.0989C9.6431 77.7739 8.45175 79.6578 6.56073 79.8283C3.50099 80.1042 2.24089 76.0197 2.12863 72.9499C1.7466 62.5395 2.10426 52.0004 4.73498 41.9207C7.36569 31.841 12.4122 22.1868 20.2582 15.3327C28.1329 8.45338 38.3834 4.75789 48.7192 3.16641C59.055 1.57492 69.5796 1.94908 80.0293 2.34151C89.6219 2.70175 99.902 3.31172 107.503 9.17559C114.009 14.1963 117.381 22.2259 119.823 30.0729C124.121 43.8768 126.402 58.3054 126.576 72.761C126.618 76.2433 125.863 80.6428 122.488 81.5025C119.422 82.2839 116.71 79.4133 115.062 76.7123C111.618 71.0678 109.287 64.7471 108.241 58.2175" stroke="#145A6C" stroke-width="4" stroke-miterlimit="10" stroke-linecap="round"/>
<path d="M160.112 158.31C166.016 172.663 167.167 188.925 163.342 203.966C162.943 205.534 162.488 207.154 162.771 208.747C163.237 211.369 165.666 213.299 168.249 213.948C173.998 215.393 179.997 211.403 182.83 206.196C185.663 200.989 186.069 194.852 186.415 188.935C187.125 176.827 187.833 164.719 188.542 152.611" stroke="#145A6C" stroke-width="4" stroke-miterlimit="10" stroke-linecap="round"/>
<path d="M80.3305 149.794C82.862 167.388 82.8115 185.352 80.1808 202.931C79.9188 204.681 79.6499 206.559 80.4314 208.146C81.7411 210.805 85.2377 211.361 88.2009 211.447C93.5659 211.604 99.8237 210.85 102.66 206.294C104.2 203.819 104.342 200.754 104.439 197.841C104.962 182.247 105.485 166.653 106.008 151.06" stroke="#145A6C" stroke-width="4" stroke-miterlimit="10" stroke-linecap="round"/>
<path d="M41.4475 104.063C44.509 114.926 47.6401 125.952 53.5829 135.547C59.5257 145.143 68.7624 153.289 79.8736 155.275" stroke="#145A6C" stroke-width="4" stroke-miterlimit="10" stroke-linecap="round"/>
<path d="M197.391 112.584C196.222 126.742 202.853 140.234 209.139 152.975C215.425 165.715 221.702 179.488 219.773 193.563C219.176 197.919 217.888 202.739 220.283 206.427C223.411 211.244 231.224 210.624 235.353 206.632C239.482 202.641 240.838 196.644 241.815 190.984C247.642 157.192 246.801 122.649 245.942 88.3679" stroke="#145A6C" stroke-width="4" stroke-miterlimit="10" stroke-linecap="round"/>
<path d="M125.211 46.3323C146.312 44.2239 167.71 45.1167 188.561 48.9758C216.501 54.147 243.72 64.6339 272.133 64.8071C274.101 64.8193 276.588 65.1412 277.148 67.0268C277.526 68.3051 276.742 69.6146 275.951 70.6875C268.699 80.5218 257.626 87.4621 245.613 89.7027" stroke="#145A6C" stroke-width="4" stroke-miterlimit="10" stroke-linecap="round"/>
<path d="M22.7297 76.8577C26.242 103.467 29.7594 130.138 30.4286 156.971C30.6392 165.413 30.5583 174.024 28.4663 182.259C27.4585 186.225 26.1427 188.691 23.8436 191.514C22.0605 193.703 20.2295 195.394 21.2433 198.602C22.2806 201.881 25.6824 203.994 29.0989 204.394C32.5155 204.794 35.9407 203.773 39.1284 202.479C42.3039 201.189 45.4933 199.507 47.4469 196.692C49.5155 193.711 49.9001 189.912 50.169 186.295C51.584 167.24 51.5336 148.076 50.0202 129.028" stroke="#145A6C" stroke-width="4" stroke-miterlimit="10" stroke-linecap="round"/>
<path d="M106.581 159.592C130.975 162.238 155.835 160.524 179.634 154.554C188.159 152.415 196.977 149.471 202.868 142.947" stroke="#145A6C" stroke-width="4" stroke-miterlimit="10" stroke-linecap="round"/>
<path d="M29.1912 33.0862C27.2688 32.893 25.4022 34.6507 25.4344 36.5815C25.4666 38.5124 27.3402 40.1961 29.2678 40.0682C31.1953 39.9403 32.8183 38.0721 32.7234 36.143C32.6286 34.2139 31.1222 33.1523 29.192 33.0853" fill="#145A6C"/>
<path d="M29.1911 31.781C27.073 31.6052 25.1541 33.1001 24.4092 35.0083C23.6181 37.034 24.5815 39.2189 26.2541 40.451C27.8753 41.6449 30.1475 41.6779 31.7818 40.4911C33.4622 39.2711 34.3986 37.1854 33.8852 35.1258C33.3465 32.9652 31.2823 31.8732 29.192 31.7818C28.5088 31.7522 27.8562 32.404 27.8866 33.087C27.9197 33.8197 28.4601 34.3601 29.192 34.3923C29.2929 34.3966 29.393 34.4062 29.4931 34.4114C29.5731 34.4149 29.728 34.3923 29.4391 34.4001C29.5827 34.3966 29.7698 34.4593 29.9082 34.4949C30.0379 34.528 30.1753 34.5993 30.3059 34.6185C30.4817 34.6446 30.0318 34.4784 30.2859 34.608C30.3651 34.6481 30.4451 34.6855 30.5226 34.729C30.5948 34.7699 30.8524 34.8865 30.8863 34.9657C30.8541 34.8908 30.7036 34.8038 30.8211 34.9239C30.8811 34.9848 30.9455 35.0396 31.0038 35.1023C31.0195 35.1188 31.1204 35.2241 31.1169 35.2293C31.1169 35.2302 30.9551 34.9744 31.0917 35.2041C31.1335 35.2746 31.3415 35.533 31.3232 35.6209C31.3336 35.5704 31.2414 35.379 31.2901 35.5574C31.3145 35.6461 31.3458 35.7314 31.3684 35.821C31.3832 35.8819 31.3937 35.9437 31.4085 36.0046C31.4816 36.3057 31.4041 35.7967 31.4085 35.995C31.4119 36.1465 31.4267 36.297 31.4198 36.4493C31.4163 36.5398 31.4589 36.8208 31.425 36.5032C31.4346 36.5911 31.385 36.7164 31.3641 36.7991C31.3267 36.9461 31.2745 37.0871 31.2266 37.2306C31.1639 37.4203 31.3702 36.9583 31.217 37.2428C31.1848 37.302 31.1561 37.3629 31.123 37.4221C31.0404 37.57 30.9455 37.7084 30.8489 37.8476C31.0099 37.6144 30.8811 37.8023 30.8306 37.8598C30.7523 37.9485 30.6714 38.0347 30.5861 38.1165C30.5374 38.1634 30.486 38.2069 30.4364 38.2531C30.2006 38.4723 30.5896 38.16 30.4234 38.2679C30.2963 38.3505 30.1745 38.4375 30.0413 38.5115C29.9682 38.5524 29.8908 38.5855 29.8177 38.6255C29.6445 38.7203 30.1101 38.5315 29.8046 38.6272C29.6271 38.6829 29.4513 38.7238 29.2712 38.7682C29.0771 38.8152 29.5905 38.7569 29.2668 38.7647C29.1989 38.7664 29.1319 38.7717 29.0641 38.7717C28.9953 38.7717 28.8221 38.7926 28.7621 38.7577C28.7804 38.7682 29.0693 38.8195 28.8108 38.763C28.6463 38.7264 28.4854 38.6899 28.3252 38.6351C28.2617 38.6133 28.199 38.5889 28.1364 38.5646C28.4314 38.6794 28.1486 38.5602 28.0824 38.5254C27.9328 38.4454 27.7953 38.3496 27.6534 38.2583C27.8875 38.4088 27.7004 38.2957 27.6386 38.2435C27.5742 38.1887 27.5124 38.1312 27.4515 38.0729C27.388 38.0103 27.0643 37.6213 27.2566 37.8815C27.1565 37.7466 27.0651 37.6057 26.9833 37.4595C26.9424 37.3864 26.9094 37.3098 26.8702 37.2359C26.778 37.0618 26.9624 37.5282 26.8702 37.2228C26.8354 37.1071 26.7066 36.8504 26.7431 36.739C26.7379 36.7556 26.7632 37.0557 26.7501 36.7869C26.7458 36.7025 26.7397 36.6189 26.7397 36.5337C26.7397 36.4736 26.7188 36.3301 26.7501 36.2813C26.724 36.4449 26.7188 36.4771 26.7353 36.3788C26.7431 36.3292 26.7527 36.2796 26.7632 36.2309C26.7806 36.1491 26.8023 36.0681 26.8267 35.9881C26.8484 35.915 26.9946 35.5817 26.8537 35.8776C26.9259 35.7262 27.0033 35.5774 27.0938 35.4356C27.0982 35.4295 27.2801 35.1519 27.1661 35.3198C27.066 35.4669 27.2966 35.171 27.3236 35.1414C27.4393 35.0179 27.5646 34.9056 27.6934 34.796C27.4524 35.0022 27.7048 34.7943 27.7552 34.7612C27.8396 34.7064 27.9258 34.6542 28.0146 34.6063C28.0737 34.5741 28.1346 34.5471 28.1938 34.5158C27.918 34.6603 28.1773 34.5236 28.2539 34.4975C28.3487 34.4662 28.4445 34.4384 28.5419 34.4149L28.6394 34.3931C28.7873 34.367 28.7699 34.3679 28.588 34.394C28.5854 34.3722 29.1598 34.3896 29.192 34.3923C29.8742 34.4488 30.5261 33.7518 30.4965 33.087C30.4625 32.3318 29.923 31.8427 29.192 31.7818L29.1911 31.781Z" fill="#145A6C"/>
<path d="M93.0585 33.3646C91.2919 33.6361 90.0023 35.5643 90.3303 37.322C90.6584 39.0797 92.4581 40.3962 94.242 40.2805C96.3428 40.1447 98.1041 38.0434 97.87 35.9515C97.6359 33.8597 95.4525 32.1995 93.3744 32.5319" fill="#145A6C"/>
<path d="M92.7113 32.1055C90.6549 32.4605 89.2025 34.3861 88.9963 36.3849C88.7743 38.5367 90.2781 40.4414 92.1944 41.228C94.1106 42.0147 96.3184 41.4378 97.7116 39.935C99.1771 38.3548 99.6061 36.1395 98.6767 34.1773C98.2242 33.2219 97.3992 32.3996 96.4837 31.8828C95.4046 31.2737 94.2429 31.0979 93.0272 31.2728C92.3493 31.3702 91.9176 32.2665 92.1152 32.8782C92.3554 33.6204 92.9941 33.8945 93.7207 33.7901C93.3927 33.8371 93.9305 33.7936 94.0088 33.7953C94.1263 33.7988 94.4683 33.8623 94.1872 33.8014C94.3604 33.8388 94.5309 33.8736 94.6998 33.9276C94.7668 33.9493 94.8329 33.9772 94.8999 33.9972C94.6249 33.9163 94.9164 34.0059 94.9774 34.0363C95.1201 34.1077 95.2585 34.1878 95.3925 34.2748C95.4673 34.3235 95.5395 34.374 95.6118 34.4262C95.5709 34.3966 95.4212 34.2608 95.597 34.4218C95.7153 34.5297 95.8328 34.6367 95.9416 34.7551C96.0016 34.8203 96.0591 34.8873 96.1165 34.9552C95.9729 34.7838 96.1043 34.943 96.1626 35.0335C96.2401 35.1519 96.3106 35.2737 96.375 35.399C96.3793 35.4077 96.5029 35.7183 96.4394 35.5321C96.3741 35.3407 96.4803 35.6705 96.4811 35.6739C96.5229 35.8097 96.5507 35.9472 96.5803 36.0855C96.5194 35.7992 96.5725 36.0281 96.5777 36.1116C96.5847 36.2195 96.5864 36.3274 96.5829 36.4353C96.5803 36.5249 96.5725 36.6137 96.5647 36.7033C96.569 36.652 96.6178 36.4353 96.5621 36.6746C96.5255 36.8321 96.489 36.9879 96.4376 37.1419C96.415 37.2089 96.3219 37.4342 96.4333 37.1819C96.4045 37.248 96.3732 37.3133 96.341 37.3768C96.2592 37.5387 96.1583 37.6875 96.066 37.8423C95.8937 38.1321 96.1766 37.7292 96.0425 37.8824C95.9834 37.9502 95.9259 38.0207 95.865 38.0868C95.7667 38.193 95.6631 38.2939 95.5543 38.3897C95.5526 38.3914 95.2759 38.6002 95.4342 38.4915C95.5952 38.381 95.2994 38.5759 95.3011 38.575C95.1488 38.6716 94.9904 38.7534 94.8286 38.8317C95.0748 38.7116 94.8616 38.8152 94.7911 38.8386C94.7067 38.8674 94.6206 38.8935 94.5335 38.9161C94.4256 38.9439 94.0662 38.9831 94.3499 38.9639C94.1663 38.9761 93.9888 38.9718 93.8052 38.9726C93.7425 38.9726 93.5537 38.9361 93.8278 38.984C93.7199 38.9648 93.6137 38.9457 93.5075 38.9196C93.3474 38.8804 93.1951 38.8247 93.0402 38.7708C92.8488 38.7038 93.2935 38.9196 93.0028 38.7473C92.9401 38.7107 92.8731 38.6794 92.8105 38.6437C92.7478 38.6081 92.6852 38.5698 92.6243 38.5297C92.626 38.5306 92.3362 38.3244 92.4894 38.4419C92.6425 38.5593 92.3684 38.334 92.3701 38.3348C92.2901 38.2617 92.2118 38.1852 92.1378 38.1051C92.0882 38.052 92.0438 37.9955 91.9942 37.9424C92.1569 38.1199 92.036 38.0016 92.002 37.9476C91.9054 37.7936 91.8158 37.6422 91.7297 37.4821C91.6948 37.4168 91.6705 37.2689 91.734 37.496C91.7149 37.4273 91.6861 37.3594 91.6653 37.2907C91.64 37.2045 91.6278 37.1114 91.6 37.027C91.5817 36.9278 91.5826 36.9557 91.6043 37.1132C91.5982 37.0609 91.5939 37.0087 91.5913 36.9565C91.5791 36.7651 91.5852 36.5745 91.607 36.384C91.6009 36.4353 91.5513 36.6546 91.6113 36.4223C91.6374 36.3205 91.6592 36.2195 91.6905 36.1186C91.7114 36.0516 91.7357 35.9872 91.7584 35.9202C91.6644 36.2047 91.761 35.9158 91.7958 35.8488C91.8837 35.6757 91.9899 35.5191 92.0969 35.3581C92.2057 35.1945 91.8889 35.5634 92.1221 35.3372C92.197 35.265 92.264 35.1849 92.3397 35.1127C92.3902 35.0648 92.445 35.0222 92.4955 34.9744C92.2901 35.171 92.5059 34.9709 92.5651 34.9335C92.6225 34.896 92.6826 34.8604 92.7426 34.8273C92.8523 34.7664 93.0133 34.7064 92.8044 34.7838C93.0019 34.7107 93.1986 34.6576 93.4066 34.6219C94.081 34.5054 94.5205 33.6413 94.3186 33.0165C94.0836 32.29 93.4353 31.9802 92.713 32.1046L92.7113 32.1055Z" fill="#145A6C"/>
<path d="M41.8948 63.0111C44.2357 60.8149 46.0371 58.0513 47.1144 55.0285C47.2572 54.6291 47.8211 54.6674 47.9124 55.0807C48.2701 56.7 48.7644 58.2889 49.5502 59.7446C50.5945 61.679 52.2044 63.3766 54.2564 64.1676" stroke="#145A6C" stroke-width="4" stroke-miterlimit="10" stroke-linecap="round"/>
<path d="M41.5633 41.2803C40.2013 41.6596 39.2693 43.0484 39.1719 44.458C39.0744 45.8676 39.7001 47.2564 40.6191 48.3301C41.538 49.4039 42.732 50.2035 43.9442 50.9301C45.4497 51.8333 47.1241 52.6713 48.8715 52.512C51.0514 52.3145 52.778 50.6334 54.1825 48.9549C55.2686 47.6575 56.3433 46.019 55.8777 44.3928C55.3686 42.6151 53.3088 41.8345 51.49 41.5013C47.9029 40.8435 45.1164 40.458 41.5633 41.2803Z" fill="#145A6C"/>
<path d="M41.2161 40.0212C37.629 41.1863 37.0964 45.5022 39.0091 48.3528C40.0003 49.8303 41.4249 50.911 42.9226 51.8359C44.4733 52.794 46.1546 53.6798 48.0039 53.8181C51.544 54.0826 54.6272 51.0224 56.3355 48.2162C57.2684 46.683 57.6774 44.7774 56.7576 43.1371C56.024 41.8293 54.6516 41.0619 53.2723 40.6042C51.4491 39.9994 49.4023 39.7758 47.4974 39.6009C45.3845 39.4069 43.2863 39.56 41.2161 40.0212C39.5765 40.3866 40.271 42.9048 41.9105 42.5394C44.5786 41.9451 47.2302 42.0878 49.908 42.5411C51.4709 42.8056 55.0754 43.2015 54.6507 45.5701C54.4332 46.7839 53.4515 47.8524 52.6509 48.7339C51.859 49.6049 50.9662 50.4794 49.861 50.9371C47.4556 51.9325 44.5865 50.0304 42.7616 48.5781C41.7173 47.7471 40.7444 46.6482 40.5129 45.2899C40.3267 44.197 40.7801 42.9074 41.9105 42.5402C43.5013 42.0234 42.8208 39.5017 41.2161 40.0229V40.0212Z" fill="#145A6C"/>
</svg>
