<svg width="213" height="202" viewBox="0 0 213 202" fill="none" xmlns="http://www.w3.org/2000/svg">
<path d="M19.4389 145.277L19.1721 135.969C19.1508 135.234 19.1539 134.425 19.6289 133.863C20.3451 133.016 21.68 133.197 22.7475 133.5C25.5273 134.288 28.2153 135.398 30.7433 136.797C31.7133 137.334 32.8338 138.389 33.9463 138.522C35.2381 138.677 37.178 137.748 38.4623 137.476C44.0376 136.294 49.7455 135.786 55.4421 135.941C58.2894 136.018 58.6875 134.952 60.5662 132.892C62.3736 130.91 64.3397 129.073 66.4409 127.406C67.3439 126.689 68.4851 125.966 69.5732 126.346C70.7794 126.768 71.16 128.266 71.275 129.538C71.5281 132.343 71.3669 135.185 70.7981 137.943" stroke="#145A6C" stroke-width="5" stroke-miterlimit="10" stroke-linecap="round"/>
<path d="M79.3328 170.091C69.0733 177.022 56.8308 180.983 44.4552 181.373C36.7737 181.616 29.056 180.482 21.7551 178.088C18.0597 176.876 14.4692 175.341 11.0444 173.498C9.32889 172.575 8.41206 172.175 7.90834 170.191C7.47711 168.493 7.56898 166.687 7.81084 164.967C8.91579 157.107 13.2268 149.745 19.5421 144.936" stroke="#145A6C" stroke-width="5" stroke-miterlimit="10" stroke-linecap="round"/>
<path d="M70.8044 138.332C75.9217 144.248 79.3409 151.616 80.5571 159.344C81.1514 163.121 81.152 167.262 79.024 170.439" stroke="#145A6C" stroke-width="5" stroke-miterlimit="10" stroke-linecap="round"/>
<path d="M16.1292 176.218C14.6281 176.234 13.1688 177.127 12.4719 178.457C11.7751 179.786 11.8707 181.494 12.7119 182.738C13.5381 183.96 14.9474 184.657 16.3561 185.096C20.8571 186.497 25.71 185.756 30.4135 186.07" stroke="#145A6C" stroke-width="5" stroke-miterlimit="10" stroke-linecap="round"/>
<path d="M39.0291 181.339C34.8325 180.908 30.5171 182.214 30.4477 183.922C30.3783 185.631 31.6833 187.154 33.2326 187.878C34.7819 188.601 36.5405 188.69 38.2486 188.767C48.3462 189.222 58.6556 189.655 68.3708 186.864" stroke="#145A6C" stroke-width="5" stroke-miterlimit="10" stroke-linecap="round"/>
<path d="M42.8752 136.172C59.5119 121.567 81.0845 111.896 103.22 112.221C125.356 112.546 147.701 123.802 158.784 142.965C160.82 146.485 162.513 150.463 162.035 154.501C161.869 155.9 161.343 157.546 160.604 159.258C157.885 165.559 153.097 170.754 147.157 174.191C124.343 187.394 97.1543 192.973 70.9919 189.652C69.8732 189.51 68.5602 189.213 68.2202 188.078C68.0139 187.391 68.2827 186.656 68.7827 186.141C69.5776 185.323 70.7088 185.096 71.7919 184.889C81.7945 182.981 91.7971 181.073 101.8 179.166C109.395 177.717 117.071 176.244 124.121 173.068" stroke="#145A6C" stroke-width="5" stroke-miterlimit="10" stroke-linecap="round"/>
<path d="M137.536 141.678C132.98 140.519 128.353 139.352 123.654 139.485C117.696 139.655 111.773 142.039 107.578 146.271C103.383 150.504 101.035 156.587 101.607 162.518C102.178 168.45 105.762 174.078 111.041 176.843" stroke="#145A6C" stroke-width="5" stroke-miterlimit="10" stroke-linecap="round"/>
<path d="M24.1062 160.387C26.4117 160.352 28.7235 161.015 30.659 162.267" stroke="#145A6C" stroke-width="5" stroke-miterlimit="10" stroke-linecap="round"/>
<path d="M54.4229 161.66C56.8983 160.319 59.8019 159.782 62.5931 160.152" stroke="#145A6C" stroke-width="5" stroke-miterlimit="10" stroke-linecap="round"/>
<path d="M45.5976 163.885C44.682 163.653 43.7577 163.42 42.8033 163.356C41.849 163.292 40.8472 163.412 40.0435 163.84C39.7647 163.989 39.4954 164.2 39.466 164.472C39.441 164.704 39.5985 164.921 39.7497 165.119C40.116 165.597 40.4816 166.075 40.8478 166.553C41.1603 166.96 41.5409 167.407 42.1203 167.484C42.7383 167.566 43.2964 167.191 43.7364 166.826C44.2714 166.382 44.7764 165.913 45.247 165.422C45.5032 165.156 45.7582 164.864 45.8007 164.526C45.8432 164.189 45.5851 163.802 45.1726 163.768" fill="#145A6C"/>
<path d="M69.8809 54.5352C71.1683 47.9334 76.9611 42.4628 83.6264 41.5548L186.13 39.955" stroke="#145A6C" stroke-width="5" stroke-miterlimit="10" stroke-linecap="round"/>
<path d="M190.297 39.9594C193.408 39.7282 196.526 41.9523 197.319 44.9701" stroke="#145A6C" stroke-width="5" stroke-miterlimit="10" stroke-linecap="round"/>
<path d="M83.2183 72.0345H188.213" stroke="#145A6C" stroke-width="5" stroke-miterlimit="10" stroke-linecap="round"/>
<path d="M67.2229 58.2798C67.7197 77.9164 67.8854 97.5611 67.721 117.203C67.7141 118.056 67.7029 118.91 67.6885 119.764" stroke="#145A6C" stroke-width="5" stroke-miterlimit="10" stroke-linecap="round"/>
<path d="M159.413 162.858L192.188 163.093C194.103 163.097 196.008 162.85 197.863 162.38C199.283 162.019 200.925 161.658 201.459 161.298C208.268 156.698 205.516 146.994 205.511 139.606C205.505 129.663 205.31 119.72 204.927 109.784C204.162 89.9126 202.644 70.0698 200.378 50.3126" stroke="#145A6C" stroke-width="5" stroke-miterlimit="10" stroke-linecap="round"/>
<path d="M82.3008 55.3621C82.4114 57.1694 82.522 58.976 82.6333 60.7833" stroke="#145A6C" stroke-width="5" stroke-miterlimit="10" stroke-linecap="round"/>
<path d="M90.926 54.7446V61.202" stroke="#145A6C" stroke-width="5" stroke-miterlimit="10" stroke-linecap="round"/>
<path d="M100.576 54.949C100.707 56.8913 100.666 58.8448 100.453 60.7802" stroke="#145A6C" stroke-width="5" stroke-miterlimit="10" stroke-linecap="round"/>
<path d="M109.831 55.7946L110.577 60.7759" stroke="#145A6C" stroke-width="5" stroke-miterlimit="10" stroke-linecap="round"/>
<path d="M124.491 55.7883C124.35 57.7512 124.497 59.7354 124.926 61.6558" stroke="#145A6C" stroke-width="5" stroke-miterlimit="10" stroke-linecap="round"/>
<path d="M133.078 54.5334C133.151 56.272 133.224 58.0106 133.298 59.7497" stroke="#145A6C" stroke-width="5" stroke-miterlimit="10" stroke-linecap="round"/>
<path d="M144.637 54.9558C144.764 56.7619 144.892 58.5679 145.019 60.3746" stroke="#145A6C" stroke-width="5" stroke-miterlimit="10" stroke-linecap="round"/>
<path d="M152.31 56.8113L152.882 61.4264" stroke="#145A6C" stroke-width="5" stroke-miterlimit="10" stroke-linecap="round"/>
<path d="M163.866 56.4138C163.687 58.2942 163.797 60.2021 164.192 62.0494" stroke="#145A6C" stroke-width="5" stroke-miterlimit="10" stroke-linecap="round"/>
<path d="M173.026 56.4125C172.917 57.9417 172.955 59.4809 173.137 61.0032" stroke="#145A6C" stroke-width="5" stroke-miterlimit="10" stroke-linecap="round"/>
<path d="M181.424 56.6013C181.738 58.0512 181.948 59.5229 182.054 61.0027" stroke="#145A6C" stroke-width="5" stroke-miterlimit="10" stroke-linecap="round"/>
<path d="M189.893 53.2866L190.102 58.4635C190.124 59.0135 190.152 59.5853 190.413 60.0696" stroke="#145A6C" stroke-width="5" stroke-miterlimit="10" stroke-linecap="round"/>
<path d="M97.9664 31.6204C97.8264 29.7662 97.8745 27.8983 98.1095 26.0535" stroke="#145A6C" stroke-width="5" stroke-miterlimit="10" stroke-linecap="round"/>
<path d="M119.635 27.7332L119.269 16.9038" stroke="#145A6C" stroke-width="5" stroke-miterlimit="10" stroke-linecap="round"/>
<path d="M139.335 29.956L139.289 26.6239" stroke="#145A6C" stroke-width="5" stroke-miterlimit="10" stroke-linecap="round"/>
<path d="M167.032 29.3974L167.359 22.1782" stroke="#145A6C" stroke-width="5" stroke-miterlimit="10" stroke-linecap="round"/>
<path d="M178.769 28.845V27.7339" stroke="#145A6C" stroke-width="5" stroke-miterlimit="10" stroke-linecap="round"/>
</svg>
