<?xml version="1.0" encoding="utf-8"?>
<!-- Generator: Adobe Illustrator 27.5.0, SVG Export Plug-In . SVG Version: 6.00 Build 0)  -->
<svg version="1.1" id="Layer_1" xmlns="http://www.w3.org/2000/svg" xmlns:xlink="http://www.w3.org/1999/xlink" x="0px" y="0px"
	 viewBox="0 0 93 73" style="enable-background:new 0 0 93 73;" xml:space="preserve">
<style type="text/css">
	.st0{clip-path:url(#SVGID_00000183968979335142146970000010579538075118892693_);}
	.st1{fill:none;stroke:#26B994;stroke-width:4;stroke-linecap:round;stroke-linejoin:round;}
	.st2{fill:#26B994;}
</style>
<g>
	<defs>
		<rect id="SVGID_1_" y="0" width="93" height="73"/>
	</defs>
	<clipPath id="SVGID_00000153669006762587691180000018397408854525045161_">
		<use xlink:href="#SVGID_1_"  style="overflow:visible;"/>
	</clipPath>
	<g style="clip-path:url(#SVGID_00000153669006762587691180000018397408854525045161_);">
		<path class="st1" d="M86.3,32.4L6.4,34.2C4.5,34.2,3,36,3.2,38l1.5,14c0.2,1.8,1.7,3.2,3.5,3.1l78.5-1.2c2.2-0.1,3.9-1.9,3.9-4.1
			l0-13.3C90.5,34.1,88.6,32.3,86.3,32.4z"/>
		<path class="st1" d="M14.5,44.1l2.2-0.2"/>
		<path class="st1" d="M26.2,44.1l2.2-0.1"/>
		<path class="st1" d="M39.4,43.9h1.8"/>
		<path class="st1" d="M53.3,43.7l1.5,0.2"/>
		<path class="st1" d="M86.3,24L6.4,24.5c-2-0.1-3.5-1.8-3.2-3.8l-0.7-14C2.7,4.8,4.2,3.5,6,3.5l80.6-1c2.2,0.1,3.9,1.9,3.9,4.1
			l0,13.3C90.5,22.3,88.6,24.1,86.3,24z"/>
		<path class="st1" d="M14.5,13c0.7-0.1,46.8,0,47.5,0"/>
		<path class="st2" d="M58.5,62.9H36.6c-2.8,0-5,2.3-5,5.1c0,2.8,2.2,5.1,5,5.1h21.9c2.8,0,5-2.3,5-5.1
			C63.5,65.2,61.2,62.9,58.5,62.9z"/>
	</g>
</g>
</svg>
