<svg width="148" height="311" viewBox="0 0 148 311" fill="none" xmlns="http://www.w3.org/2000/svg">
<path d="M136.817 4.93439C134.636 98.2722 134.33 191.654 135.9 285.004" stroke="#145A6C" stroke-width="4" stroke-miterlimit="10" stroke-linecap="round"/>
<path d="M132.589 2.53113C62.946 4.15363 -6.72628 4.48891 -76.3811 3.53618" stroke="#145A6C" stroke-width="4" stroke-miterlimit="10" stroke-linecap="round"/>
<path d="M-87.1883 308.271C-88.0352 308.77 -89.1884 308.268 -89.7282 307.445C-90.268 306.622 -90.3503 305.59 -90.397 304.607C-90.5466 301.403 -90.4794 298.189 -90.1936 294.994C-90.0551 293.446 -89.8477 291.848 -89.0372 290.522C-88.2267 289.197 -86.6516 288.218 -85.1399 288.571L138.11 289.078C139.719 287.762 143.71 288.858 144.697 290.689C145.685 292.52 145.521 294.732 145.33 296.805C145.096 299.343 144.863 301.882 144.629 304.421C144.531 305.488 144.403 306.628 143.71 307.444C143.016 308.26 137.416 308.493 136.816 307.606L-87.1891 308.272L-87.1883 308.271Z" stroke="#145A6C" stroke-width="4" stroke-miterlimit="10" stroke-linecap="round"/>
<path d="M-78.1484 159.347C-7.55806 159.058 63.0323 158.768 133.623 158.478" stroke="#145A6C" stroke-width="4" stroke-miterlimit="10" stroke-linecap="round"/>
<path d="M-77.0664 178.953C-6.85515 177.07 63.3973 176.709 133.624 177.867" stroke="#145A6C" stroke-width="4" stroke-miterlimit="10" stroke-linecap="round"/>
<path d="M117.125 282.806C121.271 262.277 123.425 246.609 126.885 225.578C127.202 223.653 125.566 221.946 123.619 221.885C99.1305 221.119 79.6199 221.451 58.6094 221.464C56.5958 221.466 54.3503 221.934 53.9854 225.023C53.8936 225.801 53.9656 226.588 54.1215 227.355C57.9089 245.937 62.2289 264.41 67.0745 282.744C67.2795 283.521 67.4956 284.318 67.9713 284.964C69.3216 286.797 72.0254 286.407 74.3001 286.429C87.9694 286.562 97.9171 287.146 112.426 286.611C114.663 286.529 116.681 285.003 117.125 282.806Z" stroke="#145A6C" stroke-width="4" stroke-miterlimit="10" stroke-linecap="round"/>
<path d="M68.0566 221.334C65.3616 220.163 62.904 218.449 60.873 216.323C59.7736 215.172 58.7375 213.592 59.2614 212.088C59.7466 210.698 61.3558 210.058 62.8161 209.885C66.4475 209.456 70.1043 210.879 73.0574 213.039C76.0105 215.199 78.37 218.057 80.6891 220.888" stroke="#26B994" stroke-width="4" stroke-miterlimit="10" stroke-linecap="round"/>
<path d="M120.217 221.536C123.502 219.35 125.941 215.923 126.934 212.101C127.267 210.818 127.441 209.465 127.175 208.168C126.909 206.87 126.152 205.628 124.983 205.008C123.765 204.361 122.253 204.464 120.982 204.999C119.71 205.534 118.642 206.455 117.66 207.424C113.75 211.277 110.833 216.135 109.268 221.4" stroke="#26B994" stroke-width="4" stroke-miterlimit="10" stroke-linecap="round"/>
<path d="M80.9741 220.587C74.5787 212.739 71.7245 202.104 73.3297 192.102C73.4667 191.25 73.6645 190.345 74.2867 189.748C75.7003 188.391 78.0218 189.52 79.543 190.756C88.6905 198.185 95.2006 208.807 97.674 220.339" stroke="#26B994" stroke-width="4" stroke-miterlimit="10" stroke-linecap="round"/>
<path d="M108.862 220.694C110.378 210.787 109.971 195.927 106.697 186.457C106.243 185.145 104.489 184.839 103.647 185.941C100.869 189.579 98.7727 198.728 98.138 203.298C97.3631 208.874 97.8388 214.54 98.316 220.149" stroke="#26B994" stroke-width="4" stroke-miterlimit="10" stroke-linecap="round"/>
<path d="M70.8312 257.792C72.2519 257.792 73.4036 256.638 73.4036 255.216C73.4036 253.793 72.2519 252.64 70.8312 252.64C69.4105 252.64 68.2588 253.793 68.2588 255.216C68.2588 256.638 69.4105 257.792 70.8312 257.792Z" fill="#145A6C"/>
<path d="M79.9769 258.606C81.3976 258.606 82.5493 257.453 82.5493 256.03C82.5493 254.608 81.3976 253.454 79.9769 253.454C78.5562 253.454 77.4045 254.608 77.4045 256.03C77.4045 257.453 78.5562 258.606 79.9769 258.606Z" fill="#145A6C"/>
<path d="M90.5419 257.99C91.9626 257.99 93.1143 256.837 93.1143 255.414C93.1143 253.991 91.9626 252.838 90.5419 252.838C89.1212 252.838 87.9695 253.991 87.9695 255.414C87.9695 256.837 89.1212 257.99 90.5419 257.99Z" fill="#145A6C"/>
<path d="M100.996 258.606C102.417 258.606 103.569 257.453 103.569 256.03C103.569 254.608 102.417 253.454 100.996 253.454C99.5755 253.454 98.4238 254.608 98.4238 256.03C98.4238 257.453 99.5755 258.606 100.996 258.606Z" fill="#145A6C"/>
<path d="M111.043 258.188C112.464 258.188 113.616 257.035 113.616 255.612C113.616 254.189 112.464 253.036 111.043 253.036C109.623 253.036 108.471 254.189 108.471 255.612C108.471 257.035 109.623 258.188 111.043 258.188Z" fill="#145A6C"/>
</svg>
