<svg width="554" height="554" viewBox="0 0 554 554" fill="none" xmlns="http://www.w3.org/2000/svg">
<circle cx="277" cy="277" r="277" fill="#145A6C" fill-opacity="0.1"/>
<mask id="mask0_2472_203" style="mask-type:alpha" maskUnits="userSpaceOnUse" x="0" y="0" width="554" height="554">
<circle cx="277" cy="277" r="277" fill="#F7F7F5"/>
</mask>
<g mask="url(#mask0_2472_203)">
<path d="M554 426L14 426" stroke="#145A6C" stroke-width="4" stroke-linecap="round"/>
<path d="M607.99 419.153C615.732 380.816 619.754 351.554 626.217 312.28C626.808 308.684 623.753 305.497 620.116 305.383C574.384 303.953 537.948 304.572 498.711 304.597C494.951 304.6 490.757 305.475 490.076 311.243C489.904 312.695 490.039 314.167 490.33 315.598C497.403 350.301 505.471 384.799 514.52 419.038C514.903 420.489 515.306 421.976 516.194 423.183C518.716 426.606 523.765 425.878 528.014 425.92C553.541 426.168 572.118 427.259 599.214 426.26C603.391 426.106 607.161 423.257 607.99 419.153Z" stroke="#145A6C" stroke-width="4" stroke-miterlimit="10" stroke-linecap="round"/>
<path d="M516.354 304.354C511.321 302.168 506.732 298.966 502.939 294.996C500.886 292.847 498.951 289.895 499.929 287.087C500.835 284.491 503.84 283.297 506.567 282.974C513.349 282.172 520.178 284.83 525.693 288.864C531.208 292.897 535.614 298.234 539.945 303.521" stroke="#26B994" stroke-width="4" stroke-miterlimit="10" stroke-linecap="round"/>
<path d="M540.477 302.958C528.534 288.303 523.204 268.441 526.201 249.763C526.457 248.172 526.827 246.482 527.988 245.367C530.628 242.833 534.964 244.941 537.805 247.248C554.888 261.123 567.045 280.959 571.665 302.495" stroke="#26B994" stroke-width="4" stroke-miterlimit="10" stroke-linecap="round"/>
<path d="M521.535 372.439C524.189 372.439 526.339 370.285 526.339 367.628C526.339 364.971 524.189 362.818 521.535 362.818C518.882 362.818 516.731 364.971 516.731 367.628C516.731 370.285 518.882 372.439 521.535 372.439Z" fill="#145A6C"/>
<path d="M538.615 373.961C541.268 373.961 543.419 371.807 543.419 369.15C543.419 366.493 541.268 364.339 538.615 364.339C535.962 364.339 533.811 366.493 533.811 369.15C533.811 371.807 535.962 373.961 538.615 373.961Z" fill="#145A6C"/>
<path d="M558.345 372.809C560.998 372.809 563.149 370.655 563.149 367.998C563.149 365.341 560.998 363.187 558.345 363.187C555.692 363.187 553.541 365.341 553.541 367.998C553.541 370.655 555.692 372.809 558.345 372.809Z" fill="#145A6C"/>
<path d="M96 143C96 126.431 109.431 113 126 113H428C444.569 113 458 126.431 458 143V554H96V143Z" fill="white"/>
<path d="M108 141C108 132.163 115.163 125 124 125H430C438.837 125 446 132.163 446 141V564H108V141Z" fill="#145A6C"/>
<path d="M277 506.667L277 525.333M277 525.333L286.333 516M277 525.333L267.667 516" stroke="white" stroke-width="2" stroke-linecap="round" stroke-linejoin="round"/>
<rect opacity="0.25" x="132" y="405" width="290" height="1" fill="#F2EAE6"/>
<circle cx="164" cy="181" r="32" fill="#26B994"/>
<path d="M174.667 173L160 187.667L153.333 181" stroke="white" stroke-width="4" stroke-linecap="round" stroke-linejoin="round"/>
<path d="M133.536 428.976H137.92C140.256 428.976 141.2 430.704 141.2 432.416C141.2 434.16 140.256 435.856 137.92 435.856H134.992V440H133.536V428.976ZM134.992 434.496H137.824C139.2 434.496 139.744 433.472 139.744 432.416C139.744 431.392 139.216 430.32 137.904 430.32H134.992V434.496ZM146.376 432.336C146.904 432.336 147.448 432.48 147.672 432.624L147.448 433.936C147.048 433.744 146.648 433.68 146.36 433.68C144.872 433.68 144.28 435.296 144.28 437.264V440H142.872V432.528H144.28V434.224C144.664 432.912 145.384 432.336 146.376 432.336ZM149.748 430.704C149.22 430.704 148.772 430.304 148.772 429.776C148.772 429.248 149.22 428.848 149.748 428.848C150.292 428.848 150.74 429.248 150.74 429.776C150.74 430.304 150.292 430.704 149.748 430.704ZM150.452 440H149.06V432.528H150.452V440ZM156.36 440.192C154.216 440.192 152.344 438.624 152.344 436.256C152.344 433.888 154.216 432.336 156.36 432.336C157.528 432.336 158.552 432.8 159.208 433.52L158.328 434.432C157.864 433.952 157.192 433.648 156.408 433.648C154.936 433.648 153.752 434.72 153.752 436.256C153.752 437.792 154.936 438.88 156.408 438.88C157.192 438.88 157.864 438.576 158.328 438.096L159.208 439.008C158.552 439.744 157.528 440.192 156.36 440.192ZM167.835 436.24C167.835 436.448 167.819 436.656 167.803 436.864H161.723C161.931 438.192 162.891 438.88 164.171 438.88C165.083 438.88 165.915 438.464 166.347 437.712L167.547 438.192C166.907 439.488 165.563 440.192 164.123 440.192C161.995 440.192 160.283 438.608 160.283 436.24C160.283 433.872 161.995 432.336 164.123 432.336C166.251 432.336 167.835 433.872 167.835 436.24ZM161.739 435.664H166.443C166.267 434.384 165.355 433.648 164.123 433.648C162.859 433.648 161.963 434.32 161.739 435.664ZM175.539 435.264V438.656H180.755V440H174.099V428.976H180.595V430.32H175.539V433.904H179.955V435.264H175.539ZM184.986 440.192C183.642 440.192 182.266 439.344 182.202 437.808H183.498C183.514 438.448 184.074 438.976 184.986 438.976C185.93 438.976 186.49 438.512 186.49 437.904C186.49 437.344 186.058 437.056 185.466 436.928L184.442 436.688C183.194 436.352 182.474 435.744 182.474 434.544C182.474 433.312 183.53 432.336 185.034 432.336C186.298 432.336 187.61 433.008 187.61 434.512H186.266C186.25 433.936 185.658 433.552 185.066 433.552C184.346 433.552 183.866 434.016 183.866 434.592C183.866 435.104 184.346 435.376 184.826 435.488L185.93 435.76C187.482 436.144 187.882 437.072 187.882 437.92C187.882 439.312 186.538 440.192 184.986 440.192ZM191.715 432.528H193.331V433.728H191.715V440H190.323V433.728H188.979V432.528H190.323V429.712H191.715V432.528ZM195.576 430.704C195.048 430.704 194.6 430.304 194.6 429.776C194.6 429.248 195.048 428.848 195.576 428.848C196.12 428.848 196.568 429.248 196.568 429.776C196.568 430.304 196.12 430.704 195.576 430.704ZM196.28 440H194.888V432.528H196.28V440ZM207.564 432.336C209.436 432.336 210.46 433.584 210.46 435.68V440H209.068V435.76C209.068 434.512 208.38 433.68 207.292 433.68C205.964 433.664 205.276 434.592 205.276 436.256V440H203.884V435.76C203.884 434.496 203.196 433.68 202.204 433.68C201.148 433.68 200.092 434.368 200.092 435.952V440H198.7V432.528H200.092V433.68C200.46 432.864 201.436 432.336 202.492 432.336C203.58 432.336 204.524 432.912 204.956 433.936C205.644 432.592 206.812 432.336 207.564 432.336ZM218.667 433.696V432.528H220.059V440H218.667V438.672C218.171 439.568 217.131 440.192 215.931 440.192C213.979 440.192 212.267 438.544 212.267 436.256C212.267 434.048 213.883 432.336 215.995 432.336C217.115 432.336 218.171 432.816 218.667 433.696ZM216.139 438.88C217.467 438.88 218.667 437.776 218.667 436.256C218.667 434.72 217.371 433.648 216.123 433.648C214.763 433.648 213.674 434.848 213.674 436.256C213.674 437.68 214.763 438.88 216.139 438.88ZM224.465 432.528H226.081V433.728H224.465V440H223.073V433.728H221.729V432.528H223.073V429.712H224.465V432.528ZM234.538 436.24C234.538 436.448 234.522 436.656 234.506 436.864H228.426C228.634 438.192 229.594 438.88 230.874 438.88C231.786 438.88 232.618 438.464 233.05 437.712L234.25 438.192C233.61 439.488 232.266 440.192 230.826 440.192C228.698 440.192 226.986 438.608 226.986 436.24C226.986 433.872 228.698 432.336 230.826 432.336C232.954 432.336 234.538 433.872 234.538 436.24ZM228.442 435.664H233.146C232.97 434.384 232.058 433.648 230.826 433.648C229.562 433.648 228.666 434.32 228.442 435.664Z" fill="white"/>
<path d="M142.688 452.864C143.861 452.864 144.917 452.992 145.856 453.248C146.795 453.504 147.627 453.813 148.352 454.176L147.36 456.416C146.72 456.117 146.005 455.84 145.216 455.584C144.448 455.328 143.627 455.2 142.752 455.2C141.536 455.2 140.608 455.52 139.968 456.16C139.328 456.779 139.008 457.792 139.008 459.2V463.648H145.536V465.76H139.008V469.088C139.008 469.941 138.901 470.656 138.688 471.232C138.496 471.787 138.229 472.235 137.888 472.576C137.568 472.917 137.216 473.205 136.832 473.44H149.12V476H133.024V473.632C133.643 473.483 134.187 473.237 134.656 472.896C135.125 472.533 135.499 472.053 135.776 471.456C136.053 470.837 136.192 470.059 136.192 469.12V465.76H133.12V463.648H136.192V458.912C136.192 457.632 136.459 456.544 136.992 455.648C137.525 454.752 138.283 454.069 139.264 453.6C140.245 453.109 141.387 452.864 142.688 452.864ZM156.169 460.288C156.169 461.696 157.257 462.72 158.825 462.72C160.329 462.688 161.353 461.6 161.353 460.288C161.353 459.008 160.265 457.952 158.761 457.952C157.257 457.952 156.169 459.008 156.169 460.288ZM154.633 469.344C154.633 471.456 156.457 473.152 158.761 473.152C161.065 473.152 162.857 471.456 162.857 469.344C162.857 467.328 161.129 465.568 158.857 465.568H158.505C156.297 465.6 154.633 467.36 154.633 469.344ZM152.969 460.256C152.969 457.248 155.465 454.784 158.761 454.784C162.057 454.784 164.617 457.248 164.617 460.256C164.617 461.728 163.977 463.008 162.985 463.904C164.937 465.088 166.153 467.072 166.153 469.376C166.153 473.248 162.889 476.32 158.761 476.32C154.601 476.32 151.369 473.248 151.369 469.376C151.369 467.04 152.585 465.056 154.505 463.904C153.577 463.008 152.969 461.728 152.969 460.256ZM172.572 473.728C172.38 477.088 169.436 479.904 168.188 479.904C167.676 479.904 167.228 479.648 167.228 479.168C167.228 478.944 167.196 478.656 167.516 478.272C168.572 476.992 168.956 475.424 169.116 473.376C169.18 472.512 169.948 471.84 170.812 471.84C171.836 471.84 172.572 472.576 172.572 473.536V473.728ZM178.69 471.168C179.682 472.32 180.738 473.12 182.338 473.12C185.57 473.12 187.138 471.296 187.138 469.12C187.138 466.528 185.218 465.248 182.946 465.248C181.25 465.248 179.97 465.568 178.05 466.944C177.57 467.264 176.994 467.232 176.514 466.816C176.098 466.464 175.874 465.984 176.002 465.344L177.506 456.288C177.634 455.456 178.306 454.976 179.01 454.976H187.714C188.578 454.976 189.314 455.68 189.314 456.544C189.314 457.44 188.578 458.176 187.714 458.176H180.322L179.362 463.648C180.29 462.88 182.018 462.304 183.298 462.304C187.17 462.304 190.37 464.672 190.37 469.12C190.37 473.44 187.17 476.32 182.338 476.32C179.938 476.32 177.634 475.072 176.098 473.056C175.522 472.32 175.682 471.328 176.482 470.752C177.154 470.272 178.146 470.528 178.69 471.168ZM206.321 457.536L196.977 475.264C196.561 476.064 195.569 476.416 194.705 475.968C193.905 475.552 193.649 474.528 194.065 473.76L202.321 458.176H194.321C193.457 458.176 192.721 457.44 192.721 456.544C192.721 455.68 193.457 454.976 194.321 454.976H205.329C206.129 454.976 206.737 455.456 206.737 456.256C206.737 456.672 206.513 457.12 206.321 457.536ZM211.504 471.168C212.496 472.32 213.552 473.12 215.152 473.12C218.384 473.12 219.952 471.296 219.952 469.12C219.952 466.528 218.032 465.248 215.76 465.248C214.064 465.248 212.784 465.568 210.864 466.944C210.384 467.264 209.808 467.232 209.328 466.816C208.912 466.464 208.688 465.984 208.816 465.344L210.32 456.288C210.448 455.456 211.12 454.976 211.824 454.976H220.528C221.392 454.976 222.128 455.68 222.128 456.544C222.128 457.44 221.392 458.176 220.528 458.176H213.136L212.176 463.648C213.104 462.88 214.832 462.304 216.112 462.304C219.984 462.304 223.184 464.672 223.184 469.12C223.184 473.44 219.984 476.32 215.152 476.32C212.752 476.32 210.448 475.072 208.912 473.056C208.336 472.32 208.496 471.328 209.296 470.752C209.968 470.272 210.96 470.528 211.504 471.168Z" fill="#EBF2DA"/>
<path d="M142.656 248.988L148.992 239.88C149.568 239.016 150.756 238.764 151.656 239.304C152.484 239.808 152.7 241.068 152.124 241.932L144.564 252.624V262.236C144.564 263.28 143.7 264.18 142.584 264.18C141.576 264.18 140.748 263.28 140.748 262.236V252.624L133.188 241.932C132.612 241.068 132.828 239.808 133.656 239.304C134.556 238.764 135.744 239.016 136.32 239.88L142.656 248.988ZM158.715 260.76C161.523 260.76 163.863 258.708 163.863 255.54C163.863 252.444 161.523 250.428 158.715 250.428C155.943 250.428 153.639 252.444 153.639 255.54C153.639 258.708 155.943 260.76 158.715 260.76ZM158.715 264.36C153.963 264.36 149.967 260.868 149.967 255.54C149.967 250.212 153.963 246.828 158.715 246.828C163.503 246.828 167.535 250.212 167.535 255.54C167.535 260.868 163.503 264.36 158.715 264.36ZM185.255 248.88V262.308C185.255 263.316 184.427 264.18 183.347 264.18C182.339 264.18 181.547 263.316 181.547 262.308V261.48C180.575 263.424 178.271 264.36 176.399 264.36C172.331 264.36 169.991 261.732 169.991 256.98V248.88C169.991 247.872 170.819 247.008 171.899 247.008C172.907 247.008 173.699 247.872 173.699 248.88V256.548C173.699 259.212 175.067 260.724 177.227 260.724C179.423 260.724 181.547 259.536 181.547 256.224V248.88C181.547 247.872 182.375 247.008 183.455 247.008C184.463 247.008 185.255 247.872 185.255 248.88ZM196.977 250.32C193.809 250.32 192.477 253.488 192.477 257.952V262.308C192.477 263.316 191.649 264.18 190.569 264.18C189.561 264.18 188.769 263.316 188.769 262.308V248.88C188.769 247.872 189.561 247.008 190.569 247.008C191.649 247.008 192.477 247.872 192.477 248.88V251.04C193.341 248.052 194.997 246.828 197.085 246.828C197.625 246.828 198.165 246.864 198.669 246.972C199.605 247.188 200.217 248.124 200.001 249.096C199.677 250.716 198.057 250.32 196.977 250.32ZM211.959 239.736V249.744C212.895 247.692 215.523 246.828 217.287 246.828C221.571 246.828 224.091 249.636 224.091 254.424V262.308C224.091 263.316 223.263 264.18 222.183 264.18C221.175 264.18 220.383 263.316 220.383 262.308V254.64C220.383 252.012 218.727 250.464 216.639 250.464C214.515 250.464 211.959 251.652 211.959 254.964V262.308C211.959 263.316 211.131 264.18 210.051 264.18C209.043 264.18 208.251 263.316 208.251 262.308V239.736C208.251 238.728 209.079 237.864 210.159 237.864C211.167 237.864 211.959 238.728 211.959 239.736ZM235.293 260.76C238.101 260.76 240.441 258.708 240.441 255.54C240.441 252.444 238.101 250.428 235.293 250.428C232.521 250.428 230.217 252.444 230.217 255.54C230.217 258.708 232.521 260.76 235.293 260.76ZM235.293 264.36C230.541 264.36 226.545 260.868 226.545 255.54C226.545 250.212 230.541 246.828 235.293 246.828C240.081 246.828 244.113 250.212 244.113 255.54C244.113 260.868 240.081 264.36 235.293 264.36ZM250.421 248.88V249.708C251.537 247.368 254.381 246.828 255.713 246.828C258.377 246.828 260.069 248.052 261.005 250.176C262.589 247.26 265.109 246.828 266.657 246.828C270.797 246.828 273.137 249.528 273.137 254.316V262.308C273.137 263.316 272.309 264.18 271.229 264.18C270.221 264.18 269.429 263.316 269.429 262.308V254.64C269.429 252.012 268.025 250.464 265.865 250.464C263.417 250.464 261.797 252.264 261.797 254.964V262.308C261.797 263.316 260.969 264.18 259.889 264.18C258.881 264.18 258.089 263.316 258.089 262.308V254.568C258.089 251.976 256.649 250.464 254.669 250.464C252.509 250.464 250.421 251.688 250.421 254.964V262.308C250.421 263.316 249.593 264.18 248.513 264.18C247.505 264.18 246.713 263.316 246.713 262.308V248.88C246.713 247.872 247.541 247.008 248.621 247.008C249.629 247.008 250.421 247.872 250.421 248.88ZM279.262 254.208H289.018C288.658 251.58 286.75 250.068 284.23 250.068C281.638 250.068 279.622 251.616 279.262 254.208ZM292.654 255.216C292.654 256.188 291.862 256.908 290.962 256.908H279.262C279.622 259.5 281.71 261.12 284.41 261.12C286.174 261.12 287.182 260.508 288.406 259.5C289.018 258.996 290.026 258.744 290.782 259.356C291.466 259.896 291.502 261.012 290.854 261.696C289.162 263.46 286.714 264.36 284.23 264.36C279.442 264.36 275.59 260.868 275.59 255.54C275.59 250.212 279.442 246.828 284.23 246.828C288.91 246.828 292.51 250.068 292.654 255.216ZM301.932 240.384C301.932 241.716 303.084 242.724 304.416 242.724C305.784 242.724 306.864 241.716 306.864 240.384C306.864 239.052 305.784 238.044 304.416 238.044C303.084 238.044 301.932 239.052 301.932 240.384ZM306.288 262.308C306.288 263.316 305.46 264.18 304.38 264.18C303.372 264.18 302.58 263.316 302.58 262.308V248.88C302.58 247.872 303.372 247.008 304.38 247.008C305.46 247.008 306.288 247.872 306.288 248.88V262.308ZM309.032 260.544C308.744 259.644 309.14 258.816 309.932 258.528C310.832 258.168 311.516 258.636 311.804 259.248C312.488 260.544 313.784 261.264 315.44 261.264C317.132 261.264 318.356 260.508 318.356 259.248C318.356 258.168 317.312 257.7 316.088 257.412L313.82 256.872C310.256 255.9 308.96 253.956 309.176 251.256C309.392 248.772 312.092 246.828 315.188 246.828C317.42 246.828 319.472 247.548 320.588 249.312C321.092 250.176 320.84 251.04 320.264 251.472C319.652 251.976 318.896 251.94 318.104 251.256C317.168 250.428 316.088 250.104 315.224 250.104C314.288 250.104 313.244 250.428 312.884 251.004C312.596 251.472 312.56 251.94 312.74 252.444C312.956 253.092 313.964 253.416 314.864 253.668L317.456 254.316C321.092 255.216 321.848 257.592 321.848 259.284C321.848 262.524 319.004 264.36 315.152 264.36C312.56 264.36 309.932 262.992 309.032 260.544ZM138.264 275.736V285.744C139.2 283.692 141.828 282.828 143.592 282.828C147.876 282.828 150.396 285.636 150.396 290.424V298.308C150.396 299.316 149.568 300.18 148.488 300.18C147.48 300.18 146.688 299.316 146.688 298.308V290.64C146.688 288.012 145.032 286.464 142.944 286.464C140.82 286.464 138.264 287.652 138.264 290.964V298.308C138.264 299.316 137.436 300.18 136.356 300.18C135.348 300.18 134.556 299.316 134.556 298.308V275.736C134.556 274.728 135.384 273.864 136.464 273.864C137.472 273.864 138.264 274.728 138.264 275.736ZM156.522 290.208H166.278C165.918 287.58 164.01 286.068 161.49 286.068C158.898 286.068 156.882 287.616 156.522 290.208ZM169.914 291.216C169.914 292.188 169.122 292.908 168.222 292.908H156.522C156.882 295.5 158.97 297.12 161.67 297.12C163.434 297.12 164.442 296.508 165.666 295.5C166.278 294.996 167.286 294.744 168.042 295.356C168.726 295.896 168.762 297.012 168.114 297.696C166.422 299.46 163.974 300.36 161.49 300.36C156.702 300.36 152.85 296.868 152.85 291.54C152.85 286.212 156.702 282.828 161.49 282.828C166.17 282.828 169.77 286.068 169.914 291.216ZM185.387 298.308V297.588C184.271 299.424 181.823 300.36 179.735 300.36C175.199 300.36 171.203 296.94 171.203 291.576C171.203 286.212 175.199 282.828 179.735 282.828C181.751 282.828 184.235 283.656 185.387 285.564V284.88C185.387 283.872 186.179 283.008 187.187 283.008C188.267 283.008 189.095 283.872 189.095 284.88V298.308C189.095 299.316 188.267 300.18 187.187 300.18C186.179 300.18 185.387 299.316 185.387 298.308ZM175.019 291.54C175.019 294.636 177.359 296.76 180.167 296.76C182.903 296.76 185.351 294.852 185.351 291.54C185.351 288.228 182.687 286.428 180.167 286.428C177.359 286.428 175.019 288.444 175.019 291.54ZM193.969 298.308V286.248H192.313C191.485 286.248 190.765 285.6 190.765 284.772C190.765 283.872 191.485 283.188 192.313 283.188H193.969V278.508C193.969 277.5 194.761 276.636 195.769 276.636C196.849 276.636 197.677 277.5 197.677 278.508V283.188H199.873C200.701 283.188 201.421 283.872 201.421 284.772C201.421 285.6 200.701 286.248 199.873 286.248H197.677V298.308C197.677 299.316 196.849 300.18 195.769 300.18C194.761 300.18 193.969 299.316 193.969 298.308ZM213.927 284.88V285.672C214.971 283.872 217.275 282.828 219.543 282.828C224.079 282.828 227.895 286.32 227.895 291.612C227.895 296.976 224.079 300.36 219.543 300.36C217.275 300.36 214.971 299.46 213.927 297.588V306.48C213.927 307.488 213.099 308.352 212.019 308.352C211.011 308.352 210.219 307.488 210.219 306.48V284.88C210.219 283.872 211.011 283.008 212.019 283.008C213.099 283.008 213.927 283.872 213.927 284.88ZM213.963 291.684C213.963 294.996 216.519 296.796 219.075 296.796C221.883 296.796 224.115 294.78 224.115 291.684C224.115 288.552 221.883 286.428 219.075 286.428C216.339 286.428 213.963 288.408 213.963 291.684ZM245.659 284.88V298.308C245.659 299.316 244.831 300.18 243.751 300.18C242.743 300.18 241.951 299.316 241.951 298.308V297.48C240.979 299.424 238.675 300.36 236.803 300.36C232.735 300.36 230.395 297.732 230.395 292.98V284.88C230.395 283.872 231.223 283.008 232.303 283.008C233.311 283.008 234.103 283.872 234.103 284.88V292.548C234.103 295.212 235.471 296.724 237.631 296.724C239.827 296.724 241.951 295.536 241.951 292.224V284.88C241.951 283.872 242.779 283.008 243.859 283.008C244.867 283.008 245.659 283.872 245.659 284.88ZM252.882 284.88V285.708C253.998 283.368 256.842 282.828 258.174 282.828C260.838 282.828 262.53 284.052 263.466 286.176C265.05 283.26 267.57 282.828 269.118 282.828C273.258 282.828 275.598 285.528 275.598 290.316V298.308C275.598 299.316 274.77 300.18 273.69 300.18C272.682 300.18 271.89 299.316 271.89 298.308V290.64C271.89 288.012 270.486 286.464 268.326 286.464C265.878 286.464 264.258 288.264 264.258 290.964V298.308C264.258 299.316 263.43 300.18 262.35 300.18C261.342 300.18 260.55 299.316 260.55 298.308V290.568C260.55 287.976 259.11 286.464 257.13 286.464C254.97 286.464 252.882 287.688 252.882 290.964V298.308C252.882 299.316 252.054 300.18 250.974 300.18C249.966 300.18 249.174 299.316 249.174 298.308V284.88C249.174 283.872 250.002 283.008 251.082 283.008C252.09 283.008 252.882 283.872 252.882 284.88ZM282.767 284.88V285.672C283.811 283.872 286.115 282.828 288.383 282.828C292.919 282.828 296.735 286.32 296.735 291.612C296.735 296.976 292.919 300.36 288.383 300.36C286.115 300.36 283.811 299.46 282.767 297.588V306.48C282.767 307.488 281.939 308.352 280.859 308.352C279.851 308.352 279.059 307.488 279.059 306.48V284.88C279.059 283.872 279.851 283.008 280.859 283.008C281.939 283.008 282.767 283.872 282.767 284.88ZM282.803 291.684C282.803 294.996 285.359 296.796 287.915 296.796C290.723 296.796 292.955 294.78 292.955 291.684C292.955 288.552 290.723 286.428 287.915 286.428C285.179 286.428 282.803 288.408 282.803 291.684ZM315.288 286.32C312.12 286.32 310.788 289.488 310.788 293.952V298.308C310.788 299.316 309.96 300.18 308.88 300.18C307.872 300.18 307.08 299.316 307.08 298.308V284.88C307.08 283.872 307.872 283.008 308.88 283.008C309.96 283.008 310.788 283.872 310.788 284.88V287.04C311.652 284.052 313.308 282.828 315.396 282.828C315.936 282.828 316.476 282.864 316.98 282.972C317.916 283.188 318.528 284.124 318.312 285.096C317.988 286.716 316.368 286.32 315.288 286.32ZM321.946 290.208H331.702C331.342 287.58 329.434 286.068 326.914 286.068C324.322 286.068 322.306 287.616 321.946 290.208ZM335.338 291.216C335.338 292.188 334.546 292.908 333.646 292.908H321.946C322.306 295.5 324.394 297.12 327.094 297.12C328.858 297.12 329.866 296.508 331.09 295.5C331.702 294.996 332.71 294.744 333.466 295.356C334.15 295.896 334.186 297.012 333.538 297.696C331.846 299.46 329.398 300.36 326.914 300.36C322.126 300.36 318.274 296.868 318.274 291.54C318.274 286.212 322.126 282.828 326.914 282.828C331.594 282.828 335.194 286.068 335.338 291.216ZM350.811 298.308V297.588C349.695 299.424 347.247 300.36 345.159 300.36C340.623 300.36 336.627 296.94 336.627 291.576C336.627 286.212 340.623 282.828 345.159 282.828C347.175 282.828 349.659 283.656 350.811 285.564V284.88C350.811 283.872 351.603 283.008 352.611 283.008C353.691 283.008 354.519 283.872 354.519 284.88V298.308C354.519 299.316 353.691 300.18 352.611 300.18C351.603 300.18 350.811 299.316 350.811 298.308ZM340.443 291.54C340.443 294.636 342.783 296.76 345.591 296.76C348.327 296.76 350.775 294.852 350.775 291.54C350.775 288.228 348.111 286.428 345.591 286.428C342.783 286.428 340.443 288.444 340.443 291.54ZM371.165 291.54C371.165 288.228 368.537 286.428 366.017 286.428C363.209 286.428 360.941 288.444 360.941 291.54C360.941 294.636 363.209 296.76 366.017 296.76C368.753 296.76 371.165 294.816 371.165 291.54ZM371.201 285.6V275.736C371.201 274.728 372.029 273.864 373.109 273.864C374.117 273.864 374.909 274.728 374.909 275.736V298.308C374.909 299.316 374.117 300.18 373.109 300.18C372.029 300.18 371.201 299.316 371.201 298.308V297.552C370.157 299.352 367.853 300.36 365.585 300.36C361.049 300.36 357.161 296.904 357.161 291.612C357.161 286.212 360.977 282.828 365.549 282.828C367.925 282.828 370.157 283.764 371.201 285.6ZM392.599 285.42L383.599 307.092C383.203 308.028 382.267 308.532 381.295 308.28C380.323 308.028 379.783 306.876 380.143 305.94L382.879 299.208L377.155 285.42C376.759 284.484 377.335 283.332 378.307 283.08C379.279 282.828 380.215 283.332 380.611 284.268L384.859 294.708L389.143 284.268C389.539 283.332 390.475 282.828 391.447 283.08C392.419 283.332 392.995 284.484 392.599 285.42Z" fill="white"/>
<path d="M139.344 345.808V338.976H141.568V350H139.568L135.568 343.088V350H133.344V338.976H135.408L139.344 345.808ZM151.167 346.144C151.167 346.352 151.151 346.608 151.119 346.944H145.503C145.727 347.824 146.431 348.336 147.423 348.336C148.191 348.336 148.927 347.984 149.391 347.456L150.607 348.688C149.903 349.632 148.607 350.192 147.295 350.192C144.991 350.192 143.311 348.576 143.311 346.272C143.311 343.856 145.151 342.336 147.279 342.336C149.423 342.336 151.167 343.856 151.167 346.144ZM145.503 345.584H149.055C148.991 344.704 148.271 344.144 147.327 344.144C146.463 344.144 145.727 344.576 145.503 345.584ZM158.406 343.52V342.528H160.502V350H158.406V348.928C157.91 349.696 156.95 350.192 155.942 350.192C153.878 350.192 152.342 348.592 152.342 346.272C152.342 343.952 153.846 342.336 155.99 342.336C156.95 342.336 157.91 342.752 158.406 343.52ZM156.406 348.24C157.462 348.24 158.342 347.344 158.342 346.272C158.342 345.136 157.43 344.288 156.39 344.288C155.302 344.288 154.486 345.184 154.486 346.272C154.486 347.312 155.302 348.24 156.406 348.24ZM166.891 342.336C167.291 342.336 167.739 342.4 168.075 342.576L167.595 344.576C167.147 344.336 166.779 344.304 166.523 344.304C165.451 344.304 164.715 345.312 164.715 347.44V350H162.618V342.528H164.699V344.128C165.115 342.88 165.963 342.336 166.891 342.336ZM171.293 350H169.197V338.464H171.293V350ZM176.504 346.848L178.216 342.528H180.472L175.864 353.664H173.624L175.4 349.296L172.44 342.528H174.744L176.504 346.848ZM188.044 342.528H189.628V344.16H188.044V350H185.948V344.16H184.588V342.528H185.948V339.808H188.044V342.528ZM195.33 342.336C197.282 342.336 198.306 343.664 198.29 345.904V350H196.194V346.032C196.194 344.864 195.49 344.32 194.77 344.32C194.018 344.32 193.09 344.736 193.09 346.08V350H190.993V338.464H193.09V343.712C193.41 342.752 194.61 342.336 195.33 342.336ZM207.714 346.144C207.714 346.352 207.698 346.608 207.666 346.944H202.05C202.274 347.824 202.978 348.336 203.97 348.336C204.738 348.336 205.474 347.984 205.938 347.456L207.154 348.688C206.45 349.632 205.154 350.192 203.842 350.192C201.538 350.192 199.858 348.576 199.858 346.272C199.858 343.856 201.698 342.336 203.826 342.336C205.97 342.336 207.714 343.856 207.714 346.144ZM202.05 345.584H205.602C205.538 344.704 204.818 344.144 203.874 344.144C203.01 344.144 202.274 344.576 202.05 345.584ZM213.609 342.336C214.009 342.336 214.457 342.4 214.793 342.576L214.313 344.576C213.865 344.336 213.497 344.304 213.241 344.304C212.169 344.304 211.433 345.312 211.433 347.44V350H209.337V342.528H211.417V344.128C211.833 342.88 212.681 342.336 213.609 342.336ZM223.105 346.144C223.105 346.352 223.089 346.608 223.057 346.944H217.441C217.665 347.824 218.369 348.336 219.361 348.336C220.129 348.336 220.865 347.984 221.329 347.456L222.545 348.688C221.841 349.632 220.545 350.192 219.233 350.192C216.929 350.192 215.249 348.576 215.249 346.272C215.249 343.856 217.089 342.336 219.217 342.336C221.361 342.336 223.105 343.856 223.105 346.144ZM217.441 345.584H220.993C220.929 344.704 220.209 344.144 219.265 344.144C218.401 344.144 217.665 344.576 217.441 345.584ZM226.76 346.304H225.128L224.84 338.976H227.048L226.76 346.304ZM225.928 350.192C225.208 350.192 224.6 349.648 224.6 348.896C224.6 348.144 225.208 347.616 225.928 347.616C226.664 347.616 227.272 348.144 227.272 348.896C227.272 349.648 226.664 350.192 225.928 350.192ZM136.992 367.488L140.208 362.976H141.952L137.712 368.912V374H136.256V368.912L132.064 362.976H133.792L136.992 367.488ZM144.796 374.192C142.668 374.192 140.892 372.624 140.892 370.256C140.892 367.888 142.668 366.336 144.796 366.336C146.924 366.336 148.716 367.888 148.716 370.256C148.716 372.624 146.924 374.192 144.796 374.192ZM144.796 372.88C146.172 372.88 147.324 371.808 147.324 370.256C147.324 368.72 146.172 367.648 144.796 367.648C143.436 367.648 142.299 368.72 142.299 370.256C142.299 371.808 143.436 372.88 144.796 372.88ZM156.046 370.64V366.528H157.438V374H156.046V372.832C155.598 373.776 154.398 374.192 153.566 374.192C151.694 374.192 150.542 372.944 150.558 370.848V366.528H151.95V370.816C151.95 372.08 152.702 372.88 153.742 372.88C154.782 372.88 156.03 372.256 156.046 370.64ZM163.361 366.336C163.889 366.336 164.433 366.48 164.657 366.624L164.433 367.936C164.033 367.744 163.633 367.68 163.345 367.68C161.857 367.68 161.265 369.296 161.265 371.264V374H159.857V366.528H161.265V368.224C161.649 366.912 162.369 366.336 163.361 366.336ZM173.541 366.336C175.397 366.336 176.565 367.584 176.549 369.68V374H175.157V369.76C175.157 368.512 174.389 367.712 173.349 367.712C172.309 367.712 171.061 368.336 171.061 369.952V374H169.669V362.464H171.061V367.664C171.509 366.752 172.725 366.336 173.541 366.336ZM182.264 374.192C180.136 374.192 178.36 372.624 178.36 370.256C178.36 367.888 180.136 366.336 182.264 366.336C184.392 366.336 186.184 367.888 186.184 370.256C186.184 372.624 184.392 374.192 182.264 374.192ZM182.264 372.88C183.64 372.88 184.792 371.808 184.792 370.256C184.792 368.72 183.64 367.648 182.264 367.648C180.904 367.648 179.768 368.72 179.768 370.256C179.768 371.808 180.904 372.88 182.264 372.88ZM196.986 366.336C198.858 366.336 199.882 367.584 199.882 369.68V374H198.49V369.76C198.49 368.512 197.802 367.68 196.714 367.68C195.386 367.664 194.698 368.592 194.698 370.256V374H193.306V369.76C193.306 368.496 192.618 367.68 191.626 367.68C190.57 367.68 189.514 368.368 189.514 369.952V374H188.122V366.528H189.514V367.68C189.882 366.864 190.858 366.336 191.914 366.336C193.002 366.336 193.946 366.912 194.378 367.936C195.066 366.592 196.234 366.336 196.986 366.336ZM209.256 370.24C209.256 370.448 209.24 370.656 209.224 370.864H203.144C203.352 372.192 204.312 372.88 205.592 372.88C206.504 372.88 207.336 372.464 207.768 371.712L208.968 372.192C208.328 373.488 206.984 374.192 205.544 374.192C203.416 374.192 201.704 372.608 201.704 370.24C201.704 367.872 203.416 366.336 205.544 366.336C207.672 366.336 209.256 367.872 209.256 370.24ZM203.16 369.664H207.864C207.688 368.384 206.776 367.648 205.544 367.648C204.28 367.648 203.384 368.32 203.16 369.664ZM215.888 364.704C215.36 364.704 214.912 364.304 214.912 363.776C214.912 363.248 215.36 362.848 215.888 362.848C216.432 362.848 216.88 363.248 216.88 363.776C216.88 364.304 216.432 364.704 215.888 364.704ZM216.592 374H215.2V366.528H216.592V374ZM221.205 374.192C219.861 374.192 218.485 373.344 218.421 371.808H219.717C219.733 372.448 220.293 372.976 221.205 372.976C222.149 372.976 222.709 372.512 222.709 371.904C222.709 371.344 222.277 371.056 221.685 370.928L220.661 370.688C219.413 370.352 218.693 369.744 218.693 368.544C218.693 367.312 219.749 366.336 221.253 366.336C222.517 366.336 223.829 367.008 223.829 368.512H222.485C222.469 367.936 221.877 367.552 221.285 367.552C220.565 367.552 220.085 368.016 220.085 368.592C220.085 369.104 220.565 369.376 221.045 369.488L222.149 369.76C223.701 370.144 224.101 371.072 224.101 371.92C224.101 373.312 222.757 374.192 221.205 374.192ZM233.885 366.336C235.741 366.336 236.909 367.584 236.893 369.68V374H235.501V369.76C235.501 368.512 234.733 367.712 233.693 367.712C232.653 367.712 231.405 368.336 231.405 369.952V374H230.013V362.464H231.405V367.664C231.853 366.752 233.069 366.336 233.885 366.336ZM246.272 370.24C246.272 370.448 246.256 370.656 246.24 370.864H240.16C240.368 372.192 241.328 372.88 242.608 372.88C243.52 372.88 244.352 372.464 244.784 371.712L245.984 372.192C245.344 373.488 244 374.192 242.56 374.192C240.432 374.192 238.72 372.608 238.72 370.24C238.72 367.872 240.432 366.336 242.56 366.336C244.688 366.336 246.272 367.872 246.272 370.24ZM240.176 369.664H244.88C244.704 368.384 243.792 367.648 242.56 367.648C241.296 367.648 240.4 368.32 240.176 369.664ZM254.057 367.696V366.528H255.449V374H254.057V372.672C253.561 373.568 252.521 374.192 251.321 374.192C249.369 374.192 247.657 372.544 247.657 370.256C247.657 368.048 249.273 366.336 251.385 366.336C252.505 366.336 253.561 366.816 254.057 367.696ZM251.529 372.88C252.857 372.88 254.057 371.776 254.057 370.256C254.057 368.72 252.761 367.648 251.513 367.648C250.153 367.648 249.065 368.848 249.065 370.256C249.065 371.68 250.153 372.88 251.529 372.88ZM259.856 366.528H261.472V367.728H259.856V374H258.464V367.728H257.12V366.528H258.464V363.712H259.856V366.528ZM271.108 366.336C273.156 366.336 274.852 367.92 274.852 370.272C274.852 372.64 273.172 374.192 271.124 374.192C270.004 374.192 268.948 373.712 268.452 372.832V377.632H267.06V366.528H268.452V367.696C268.948 366.848 270.036 366.336 271.108 366.336ZM270.98 372.88C272.356 372.88 273.444 371.792 273.444 370.288C273.444 368.8 272.356 367.648 270.98 367.648C269.652 367.648 268.452 368.688 268.452 370.288C268.452 371.904 269.764 372.88 270.98 372.88ZM282.186 370.64V366.528H283.578V374H282.186V372.832C281.738 373.776 280.538 374.192 279.706 374.192C277.834 374.192 276.682 372.944 276.698 370.848V366.528H278.09V370.816C278.09 372.08 278.842 372.88 279.882 372.88C280.922 372.88 282.17 372.256 282.186 370.64ZM294.861 366.336C296.733 366.336 297.757 367.584 297.757 369.68V374H296.365V369.76C296.365 368.512 295.677 367.68 294.589 367.68C293.261 367.664 292.573 368.592 292.573 370.256V374H291.181V369.76C291.181 368.496 290.493 367.68 289.501 367.68C288.445 367.68 287.389 368.368 287.389 369.952V374H285.997V366.528H287.389V367.68C287.757 366.864 288.733 366.336 289.789 366.336C290.877 366.336 291.821 366.912 292.253 367.936C292.941 366.592 294.109 366.336 294.861 366.336ZM304.123 366.336C306.171 366.336 307.867 367.92 307.867 370.272C307.867 372.64 306.187 374.192 304.139 374.192C303.019 374.192 301.963 373.712 301.467 372.832V377.632H300.075V366.528H301.467V367.696C301.963 366.848 303.051 366.336 304.123 366.336ZM303.995 372.88C305.371 372.88 306.459 371.792 306.459 370.288C306.459 368.8 305.371 367.648 303.995 367.648C302.667 367.648 301.467 368.688 301.467 370.288C301.467 371.904 302.779 372.88 303.995 372.88ZM317.361 366.336C317.889 366.336 318.433 366.48 318.657 366.624L318.433 367.936C318.033 367.744 317.633 367.68 317.345 367.68C315.857 367.68 315.265 369.296 315.265 371.264V374H313.857V366.528H315.265V368.224C315.649 366.912 316.369 366.336 317.361 366.336ZM326.85 370.24C326.85 370.448 326.834 370.656 326.818 370.864H320.738C320.946 372.192 321.906 372.88 323.186 372.88C324.098 372.88 324.93 372.464 325.362 371.712L326.562 372.192C325.922 373.488 324.578 374.192 323.138 374.192C321.01 374.192 319.298 372.608 319.298 370.24C319.298 367.872 321.01 366.336 323.138 366.336C325.266 366.336 326.85 367.872 326.85 370.24ZM320.754 369.664H325.458C325.282 368.384 324.37 367.648 323.138 367.648C321.874 367.648 320.978 368.32 320.754 369.664ZM334.635 367.696V366.528H336.027V374H334.635V372.672C334.139 373.568 333.099 374.192 331.899 374.192C329.947 374.192 328.235 372.544 328.235 370.256C328.235 368.048 329.851 366.336 331.963 366.336C333.083 366.336 334.139 366.816 334.635 367.696ZM332.107 372.88C333.435 372.88 334.635 371.776 334.635 370.256C334.635 368.72 333.339 367.648 332.091 367.648C330.731 367.648 329.643 368.848 329.643 370.256C329.643 371.68 330.731 372.88 332.107 372.88ZM344.37 367.696V362.464H345.762V374H344.37V372.832C343.874 373.68 342.786 374.192 341.714 374.192C339.666 374.192 337.97 372.608 337.97 370.256C337.97 367.888 339.65 366.336 341.698 366.336C342.818 366.336 343.874 366.816 344.37 367.696ZM341.826 372.88C343.17 372.88 344.37 371.84 344.37 370.24C344.37 368.624 343.058 367.648 341.826 367.648C340.466 367.648 339.378 368.736 339.378 370.24C339.378 371.728 340.466 372.88 341.826 372.88ZM351.016 372.032L353.304 366.528H354.808L350.168 377.632H348.696L350.264 373.776L347.256 366.528H348.76L351.016 372.032Z" fill="white"/>
</g>
</svg>
