<svg width="262" height="179" viewBox="0 0 262 179" fill="none" xmlns="http://www.w3.org/2000/svg">
<path d="M79.0867 40.4279C77.7704 40.6497 76.745 41.7661 76.2573 43.0094C75.7695 44.2527 75.7262 45.6196 75.6985 46.955C75.5766 52.9069 75.6557 58.8626 75.9364 64.809C75.9646 65.4032 75.9998 66.0181 76.2692 66.5489C76.5385 67.0798 77.1081 67.5059 77.6961 67.4159L214.567 67.3324C215.748 67.3666 216.787 66.1233 216.544 64.9668L216.298 44.5368C216.419 42.4059 214.973 40.2821 212.947 39.6146C212.814 39.7366 188.508 39.3972 188.375 39.5192L79.0867 40.429V40.4279Z" stroke="#145A6C" stroke-width="4" stroke-miterlimit="10" stroke-linecap="round"/>
<path d="M132.193 87.7364H161.458C161.458 87.7364 163.987 80.326 157.303 78.8804C150.619 77.4349 135.264 76.8922 132.916 81.0493C130.567 85.2064 132.193 87.7364 132.193 87.7364Z" stroke="#145A6C" stroke-width="4" stroke-miterlimit="10" stroke-linecap="round"/>
<path d="M79.625 67.4273V124.5C79.625 126.555 81.2898 128.222 83.3444 128.222H210.817C212.884 128.222 214.554 126.535 214.536 124.467L214.027 67.3313" stroke="#145A6C" stroke-width="4" stroke-miterlimit="10" stroke-linecap="round"/>
<path d="M10.6172 129.473L333.615 128.75" stroke="#145A6C" stroke-width="4" stroke-miterlimit="10" stroke-linecap="round"/>
<path d="M335.822 129.366C338.953 130.52 340.836 134.308 339.867 137.502C338.897 140.696 335.228 142.798 331.984 142.016L332.652 142.004L10.8585 140.799C2.09851 140.799 1.66712 135.245 2.11856 133.166C2.43939 131.688 3.61216 130.493 4.98489 129.86C6.35763 129.227 7.9103 129.092 9.42069 129.153" stroke="#145A6C" stroke-width="4" stroke-miterlimit="10" stroke-linecap="round"/>
<path d="M10.8584 140.799L14.4715 171.886C14.4715 171.886 15.4351 179.356 19.0477 174.295L21.9379 142.179" stroke="#145A6C" stroke-width="4" stroke-miterlimit="10" stroke-linecap="round"/>
<path d="M40.3042 66.8175H33.3793C31.916 66.8175 30.7297 68.0043 30.7297 69.4684V126.489C30.7297 127.954 31.916 129.14 33.3793 129.14H40.3042C41.7675 129.14 42.9538 127.954 42.9538 126.489V69.4684C42.9538 68.0043 41.7675 66.8175 40.3042 66.8175Z" stroke="#145A6C" stroke-width="4" stroke-miterlimit="10" stroke-linecap="round"/>
<path d="M52.5276 66.8175H45.6027C44.1394 66.8175 42.9531 68.0043 42.9531 69.4684V126.489C42.9531 127.954 44.1394 129.14 45.6027 129.14H52.5276C53.9909 129.14 55.1772 127.954 55.1772 126.489V69.4684C55.1772 68.0043 53.9909 66.8175 52.5276 66.8175Z" stroke="#145A6C" stroke-width="4" stroke-miterlimit="10" stroke-linecap="round"/>
<path d="M64.7517 66.8175H57.8268C56.3635 66.8175 55.1772 68.0043 55.1772 69.4684V126.489C55.1772 127.954 56.3635 129.14 57.8268 129.14H64.7517C66.215 129.14 67.4013 127.954 67.4013 126.489V69.4684C67.4013 68.0043 66.215 66.8175 64.7517 66.8175Z" stroke="#145A6C" stroke-width="4" stroke-miterlimit="10" stroke-linecap="round"/>
<path d="M76.9754 66.8175H70.0504C68.5871 66.8175 67.4009 68.0043 67.4009 69.4684V126.489C67.4009 127.954 68.5871 129.14 70.0504 129.14H76.9754C78.4387 129.14 79.6249 127.954 79.6249 126.489V69.4684C79.6249 68.0043 78.4387 66.8175 76.9754 66.8175Z" stroke="#145A6C" stroke-width="4" stroke-miterlimit="10" stroke-linecap="round"/>
<g clip-path="url(#clip0_1709_5578)">
<path d="M297.213 163.271C297.442 164.651 295.558 165.281 294.158 165.355C279.6 166.123 265.029 166.663 250.454 166.973C249.018 167.004 247.546 167.026 246.195 166.542C244.845 166.057 243.622 164.948 243.432 163.528L236.456 121.652C235.933 120.06 237.858 118.815 239.453 118.288C254.862 113.198 271.542 113.908 287.704 115.412C292.22 115.833 297.5 116.825 299.449 120.912L297.213 163.271Z" stroke="#145A6C" stroke-width="4" stroke-miterlimit="10"/>
<path d="M245.742 116.539C237.857 110.499 230.67 99.9737 227.984 89.8917C227.373 87.5963 229.438 85.477 231.761 85.992C237.123 87.1805 242.096 90.1655 245.99 94.0819C250.994 99.1146 254.35 105.583 256.645 112.293" stroke="#26B994" stroke-width="4" stroke-miterlimit="10"/>
<path d="M259.194 114.387C249.465 100.474 245.904 82.8389 247.314 65.9311C247.581 62.7318 248.609 58.8475 251.741 58.1183C253.39 57.7346 255.145 58.4477 256.397 59.584C257.65 60.7203 258.488 62.2329 259.259 63.7375C267.202 79.2324 270.418 97.1011 268.376 114.386" stroke="#26B994" stroke-width="4" stroke-miterlimit="10"/>
</g>
<defs>
<clipPath id="clip0_1709_5578">
<rect width="96" height="129" fill="white" transform="translate(223)"/>
</clipPath>
</defs>
</svg>
