<svg width="343" height="179" viewBox="0 0 343 179" fill="none" xmlns="http://www.w3.org/2000/svg">
<path d="M79.0867 40.4278C77.7704 40.6496 76.745 41.766 76.2573 43.0093C75.7695 44.2526 75.7262 45.6195 75.6985 46.955C75.5766 52.9068 75.6557 58.8625 75.9364 64.8089C75.9646 65.4032 75.9998 66.0181 76.2692 66.5489C76.5385 67.0797 77.1081 67.5059 77.6961 67.4159L214.567 67.3324C215.748 67.3665 216.787 66.1232 216.544 64.9667L216.298 44.5367C216.419 42.4058 214.973 40.282 212.947 39.6145C212.814 39.7365 188.508 39.3971 188.375 39.5191L79.0867 40.4289V40.4278Z" stroke="#145A6C" stroke-width="4" stroke-miterlimit="10" stroke-linecap="round"/>
<path d="M132.193 87.7364H161.458C161.458 87.7364 163.987 80.326 157.303 78.8805C150.619 77.435 135.264 76.8922 132.916 81.0494C130.567 85.2065 132.193 87.7364 132.193 87.7364Z" stroke="#145A6C" stroke-width="4" stroke-miterlimit="10" stroke-linecap="round"/>
<path d="M79.625 67.4273V124.5C79.625 126.555 81.2898 128.222 83.3444 128.222H210.817C212.884 128.222 214.554 126.535 214.536 124.467L214.027 67.3313" stroke="#145A6C" stroke-width="4" stroke-miterlimit="10" stroke-linecap="round"/>
<path d="M10.6172 129.473L333.615 128.75" stroke="#145A6C" stroke-width="4" stroke-miterlimit="10" stroke-linecap="round"/>
<path d="M335.822 129.366C338.953 130.52 340.836 134.307 339.867 137.502C338.897 140.696 335.228 142.797 331.984 142.016L332.652 142.004L10.8585 140.799C2.09851 140.799 1.66712 135.244 2.11856 133.166C2.43939 131.688 3.61216 130.493 4.98489 129.86C6.35763 129.226 7.9103 129.091 9.42069 129.153" stroke="#145A6C" stroke-width="4" stroke-miterlimit="10" stroke-linecap="round"/>
<path d="M10.8584 140.799L14.4715 171.885C14.4715 171.885 15.4351 179.356 19.0477 174.295L21.9379 142.179" stroke="#145A6C" stroke-width="4" stroke-miterlimit="10" stroke-linecap="round"/>
<path d="M320.126 141.957V174.296C320.126 174.296 321.572 179.115 325.667 174.296L329.521 142.18" stroke="#145A6C" stroke-width="4" stroke-miterlimit="10" stroke-linecap="round"/>
<path d="M40.3045 66.8174H33.3795C31.9162 66.8174 30.73 68.0042 30.73 69.4683V126.489C30.73 127.953 31.9162 129.14 33.3795 129.14H40.3045C41.7678 129.14 42.954 127.953 42.954 126.489V69.4683C42.954 68.0042 41.7678 66.8174 40.3045 66.8174Z" stroke="#145A6C" stroke-width="4" stroke-miterlimit="10" stroke-linecap="round"/>
<path d="M52.5281 66.8174H45.6032C44.1399 66.8174 42.9536 68.0042 42.9536 69.4683V126.489C42.9536 127.953 44.1399 129.14 45.6032 129.14H52.5281C53.9914 129.14 55.1777 127.953 55.1777 126.489V69.4683C55.1777 68.0042 53.9914 66.8174 52.5281 66.8174Z" stroke="#145A6C" stroke-width="4" stroke-miterlimit="10" stroke-linecap="round"/>
<path d="M64.7522 66.8174H57.8273C56.364 66.8174 55.1777 68.0042 55.1777 69.4683V126.489C55.1777 127.953 56.364 129.14 57.8273 129.14H64.7522C66.2155 129.14 67.4018 127.953 67.4018 126.489V69.4683C67.4018 68.0042 66.2155 66.8174 64.7522 66.8174Z" stroke="#145A6C" stroke-width="4" stroke-miterlimit="10" stroke-linecap="round"/>
<path d="M76.9754 66.8174H70.0504C68.5871 66.8174 67.4009 68.0042 67.4009 69.4683V126.489C67.4009 127.953 68.5871 129.14 70.0504 129.14H76.9754C78.4387 129.14 79.6249 127.953 79.6249 126.489V69.4683C79.6249 68.0042 78.4387 66.8174 76.9754 66.8174Z" stroke="#145A6C" stroke-width="4" stroke-miterlimit="10" stroke-linecap="round"/>
<g clip-path="url(#clip0_1713_7171)">
<path d="M297.213 163.271C297.442 164.651 295.558 165.281 294.158 165.355C279.6 166.123 265.029 166.663 250.454 166.973C249.018 167.004 247.546 167.026 246.195 166.542C244.845 166.058 243.622 164.948 243.432 163.528L236.456 121.652C235.933 120.06 237.858 118.815 239.453 118.288C254.862 113.198 271.542 113.909 287.704 115.412C292.22 115.833 297.5 116.825 299.449 120.912L297.213 163.271Z" stroke="#145A6C" stroke-width="4" stroke-miterlimit="10"/>
<path d="M245.742 116.539C237.857 110.499 230.67 99.9737 227.984 89.8917C227.373 87.5964 229.438 85.4771 231.761 85.992C237.123 87.1805 242.096 90.1656 245.99 94.082C250.994 99.1146 254.35 105.583 256.645 112.293" stroke="#26B994" stroke-width="4" stroke-miterlimit="10"/>
<path d="M290.94 114.585C295.958 111.34 300.245 106.976 303.395 101.905C304.004 100.924 304.581 99.8912 304.775 98.7542C304.968 97.6172 304.716 96.345 303.87 95.5596C302.613 94.3925 300.618 94.6764 298.977 95.1793C290.087 97.9052 282.713 105.134 279.823 113.956" stroke="#26B994" stroke-width="4" stroke-miterlimit="10"/>
<path d="M259.194 114.387C249.465 100.474 245.904 82.8388 247.314 65.931C247.581 62.7317 248.609 58.8474 251.741 58.1183C253.39 57.7346 255.145 58.4477 256.397 59.584C257.65 60.7203 258.488 62.2329 259.259 63.7375C267.202 79.2324 270.418 97.1011 268.376 114.386" stroke="#26B994" stroke-width="4" stroke-miterlimit="10"/>
<path d="M278.002 112.79C286.738 99.8238 291.451 84.1989 291.341 68.5747C291.326 66.3557 291.043 63.8065 289.213 62.5464C287.074 61.0733 284.099 62.2518 282.085 63.8916C276.283 68.6162 274.012 76.3814 272.822 83.7596C271.296 93.2216 271.033 102.836 270.772 112.416" stroke="#26B994" stroke-width="4" stroke-miterlimit="10"/>
</g>
<defs>
<clipPath id="clip0_1713_7171">
<rect width="96" height="129" fill="white" transform="translate(223)"/>
</clipPath>
</defs>
</svg>
