<svg width="389" height="234" viewBox="0 0 389 234" fill="none" xmlns="http://www.w3.org/2000/svg">
<rect width="389" height="234" rx="8" fill="#145A6C"/>
<path d="M195 157C217.091 157 235 139.091 235 117C235 94.9086 217.091 77 195 77C172.909 77 155 94.9086 155 117C155 139.091 172.909 157 195 157Z" stroke="#EBF2DA" stroke-width="4" stroke-linecap="round" stroke-linejoin="round"/>
<path d="M185 104.861C185 102.952 185 101.998 185.399 101.465C185.747 101 186.279 100.71 186.858 100.668C187.522 100.621 188.324 101.137 189.93 102.17L208.813 114.308C210.206 115.204 210.903 115.652 211.144 116.222C211.354 116.719 211.354 117.281 211.144 117.778C210.903 118.348 210.206 118.796 208.813 119.692L189.93 131.83C188.324 132.863 187.522 133.379 186.858 133.332C186.279 133.29 185.747 133 185.399 132.535C185 132.002 185 131.048 185 129.139V104.861Z" stroke="#EBF2DA" stroke-width="4" stroke-linecap="round" stroke-linejoin="round"/>
</svg>
